<?xml version="1.0" encoding="UTF-8"?>
<!DOCTYPE svg PUBLIC "-//W3C//DTD SVG 1.1//EN" "http://www.w3.org/Graphics/SVG/1.1/DTD/svg11.dtd">
<!-- Creator: CorelDRAW -->
<svg xmlns="http://www.w3.org/2000/svg" xml:space="preserve" width="240px" height="400px" style="shape-rendering:geometricPrecision; text-rendering:geometricPrecision; image-rendering:optimizeQuality; fill-rule:evenodd; clip-rule:evenodd"
viewBox="0 0 240 399.999">
 <defs>
  <style type="text/css">
   <![CDATA[
    .fil2 {fill:#017C37}
    .fil1 {fill:#25292A}
    .fil6 {fill:#304E35}
    .fil4 {fill:#762432}
    .fil5 {fill:#A71931}
    .fil3 {fill:white}
    .fil0 {fill:black;fill-rule:nonzero}
   ]]>
  </style>
 </defs>
 <g id="Capa_x0020_1">
  <metadata id="CorelCorpID_0Corel-Layer"/>
  <g id="_196079024">
   <path id="_194815824" class="fil0" d="M35.2783 334.53l24.2823 0 0 -9.27874 -5.33031 0 0 4.34291 -9.67323 0 0 -9.17953 9.82087 0 0 -4.7374 -9.82087 0 0 -8.68583 9.62362 0 0 4.34291 5.33031 0 0 -9.27874 -24.2327 0 0 4.98425 3.70157 0 0 22.5059 -3.70157 0 0 4.98425zm36.5705 -21.6165l-8.39055 0 0 4.54016 3.20906 0 0 12.6343 -3.20906 0 0 4.44213 11.5488 0 0 -4.44213 -2.96102 0 0 -10.1669c1.72795,-1.43031 3.70157,-2.51693 5.57717,-2.51693 1.28268,0 2.17205,0.493701 2.66575,1.4315 0.295276,0.543307 0.442913,1.33228 0.442913,2.22047l0 9.03189 -2.96102 0 0 4.44213 11.5488 0 0 -4.44213 -3.20787 0 0 -10.3642c0,-1.77638 -0.394488,-3.2563 -1.13504,-4.44094 -1.13504,-1.72795 -3.01063,-2.76378 -5.57598,-2.76378 -3.15945,0 -5.47913,1.82598 -7.55197,3.84921l0 -3.45472zm41.0622 4.54016l3.20787 0 0 -4.54016 -8.38937 0 0 1.92402c-1.4315,-1.23307 -3.40512,-2.3185 -6.17008,-2.3185 -5.62559,0 -10.1173,4.78701 -10.1173,10.9559 0,6.41575 4.39252,10.611 9.87165,10.611 2.86181,0 4.58976,-1.13504 6.21732,-2.76378l0 3.10866c0,1.63701 -0.344882,2.87126 -0.98622,3.75945 -0.937795,1.28268 -2.46732,1.87559 -4.39252,1.87559 -1.28386,0 -2.31969,-0.24685 -3.20787,-0.543307 0.0496063,-0.197244 0.0980315,-0.591732 0.0980315,-0.838583 0,-1.62874 -1.33228,-2.81339 -3.01063,-2.81339 -1.77638,0 -2.91142,1.4811 -2.91142,3.01063 0,1.03701 0.346063,1.9748 1.18465,2.81339 1.52953,1.52953 4.7374,2.71417 8.48858,2.71417 3.50433,0 6.31772,-1.13504 8.09409,-3.30591 1.33228,-1.62992 2.02323,-3.85039 2.02323,-6.51496l0 -17.1343zm-10.2165 -0.296457c1.9252,0 3.55394,0.690945 4.83661,1.67835l0 8.5878c-1.38071,1.28268 -3.01063,2.12244 -4.83661,2.12244 -3.30591,0 -5.7248,-2.17205 -5.7248,-6.12047 0,-4.09606 2.4189,-6.26811 5.7248,-6.26811zm15.8433 17.3728l11.9433 0 0 -4.44213 -3.20787 0 0 -31.6843 -8.73543 0 0 4.54016 3.35551 0 0 27.1441 -3.35551 0 0 4.44213zm21.6661 0.402756c2.91142,0 5.52756,-1.29094 7.25551,-2.77205l0 2.36929 8.33976 0 0 -4.44213 -3.20787 0 0 -9.22913c0,-2.17087 -0.542126,-4.04646 -1.67835,-5.42835 -1.52953,-1.87559 -4.04646,-2.91142 -7.74803,-2.91142 -5.87244,0 -8.5878,2.8122 -8.5878,5.47795 0,1.77638 1.23425,2.91142 2.86299,2.91142 1.62874,0 2.91142,-1.18465 2.91142,-2.81339 0,-0.296457 -0.0980315,-0.788976 -0.197244,-1.08543 0.493701,-0.197244 1.18465,-0.344882 2.12244,-0.344882 1.9252,0 3.35551,0.444094 4.24488,1.57913 0.542126,0.690945 0.838583,1.67717 0.838583,2.96102l0 1.72677c-1.18465,-0.296457 -3.25748,-0.591732 -5.47913,-0.591732 -5.13189,0 -8.68583,2.46732 -8.68583,6.51496 0,4.04646 3.30709,6.07795 7.00866,6.07795zm1.72677 -3.90709c-1.92402,0 -3.20669,-0.937795 -3.20669,-2.66457 0,-1.9748 1.57913,-3.15827 4.19409,-3.15827 1.67835,0 3.20787,0.197244 4.44213,0.49252l0 3.4063c-1.62874,1.18346 -3.50433,1.92402 -5.42953,1.92402zm24.5787 -18.1122l-8.39055 0 0 4.54016 3.20787 0 0 12.6343 -3.20787 0 0 4.44213 11.5488 0 0 -4.44213 -2.96102 0 0 -10.1669c1.72795,-1.43031 3.70157,-2.51693 5.57717,-2.51693 1.28268,0 2.17087,0.493701 2.66457,1.4315 0.296457,0.543307 0.444094,1.33228 0.444094,2.22047l0 9.03189 -2.96102 0 0 4.44213 11.5488 0 0 -4.44213 -3.20787 0 0 -10.3642c0,-1.77638 -0.395669,-3.2563 -1.13504,-4.44094 -1.13504,-1.72795 -3.01063,-2.76378 -5.57717,-2.76378 -3.15827,0 -5.47795,1.82598 -7.55079,3.84921l0 -3.45472zm29.6126 22.0193c2.76378,0 4.78701,-1.24134 6.36614,-2.77205l0 2.36929 8.58661 0 0 -4.44213 -3.20669 0 0 -31.6843 -8.6374 0 0 4.54016 3.25748 0 0 11.648c-1.23425,-1.03701 -3.25748,-2.07283 -6.02126,-2.07283 -5.82402,0 -10.3642,5.03386 -10.3642,11.3008 0,6.51496 4.29331,11.113 10.0193,11.113zm1.23307 -4.64764c-3.15827,0 -5.7248,-2.36811 -5.7248,-6.51378 0,-4.29331 2.71417,-6.61417 5.7248,-6.61417 2.02323,0 3.70157,0.690945 5.13307,1.67835l0 9.27874c-1.4811,1.28268 -3.10984,2.17087 -5.13307,2.17087zm-140.361 48.6638l13.3252 0 0 -4.98543 -4.04764 0 0 -7.30512c0.692126,0.0496063 1.62992,0.0496063 2.66575,0.0496063 0.641339,0 1.28268,-0.0496063 1.97362,-0.0980315l6.51496 12.339 7.50236 0 0 -4.98543 -3.70157 0 -4.98543 -8.83465c3.55394,-1.43031 6.12047,-4.63819 6.12047,-8.83346 0,-6.61417 -5.33031,-9.82205 -12.7831,-9.82205l-12.5846 0 0 4.98543 3.70157 0 0 22.5047 -3.70157 0 0 4.98543zm12.437 -16.9783c-1.77638,0 -2.56654,-0.0496063 -3.15945,-0.0992126l0 -10.4126 3.01063 0c4.49173,0 7.30512,1.62874 7.30512,5.03386 0,3.40512 -2.96102,5.47795 -7.1563,5.47795zm27.0449 17.3811c3.15945,0 5.47795,-1.83543 7.55197,-3.85866l0 3.45591 8.38937 0 0 -4.44331 -3.20787 0 0 -17.1744 -8.73543 0 0 4.54016 3.35551 0 0 10.0689c-1.72677,1.43031 -3.70157,2.51693 -5.57598,2.51693 -1.28386,0 -2.17205,-0.493701 -2.66575,-1.4315 -0.296457,-0.592913 -0.444094,-1.28268 -0.444094,-2.22047l0 -13.474 -8.5878 0 0 4.54016 3.20787 0 0 10.2661c0,1.72677 0.395669,3.20787 1.08661,4.34291 1.08543,1.77638 3.01063,2.87126 5.62559,2.87126zm40.3713 -17.4803l3.20787 0 0 -4.54016 -8.38937 0 0 1.9252c-1.4315,-1.23425 -3.40512,-2.31969 -6.1689,-2.31969 -5.62677,0 -10.1185,4.78701 -10.1185,10.9559 0,6.41575 4.39252,10.611 9.87165,10.611 2.86181,0 4.58976,-1.13504 6.21732,-2.76378l0 3.10984c0,1.63701 -0.344882,2.87008 -0.98622,3.75827 -0.937795,1.28386 -2.46732,1.87559 -4.39252,1.87559 -1.28386,0 -2.31969,-0.245669 -3.20787,-0.542126 0.0496063,-0.198425 0.0980315,-0.592913 0.0980315,-0.839764 0,-1.62874 -1.33228,-2.8122 -3.01063,-2.8122 -1.77638,0 -2.91142,1.47992 -2.91142,3.01063 0,1.03583 0.346063,1.97362 1.18465,2.8122 1.52953,1.53071 4.7374,2.71535 8.48858,2.71535 3.50433,0 6.31772,-1.13622 8.09409,-3.30709 1.33228,-1.62874 2.02323,-3.85039 2.02323,-6.51496l0 -17.1343zm-10.2165 -0.295276c1.9252,0 3.55394,0.690945 4.83661,1.67717l0 8.5878c-1.38071,1.28386 -3.00945,2.12244 -4.83661,2.12244 -3.30591,0 -5.7248,-2.17205 -5.7248,-6.12047 0,-4.09606 2.4189,-6.26693 5.7248,-6.26693zm29.563 17.7756c5.82402,0 10.3642,-5.04331 10.3642,-11.3102 0,-6.51496 -4.29331,-11.1047 -10.0181,-11.1047 -2.76378,0 -4.78819,1.23307 -6.36732,2.76378l0 -16.8791 -8.63622 0 0 4.54016 3.25748 0 0 31.6937 3.65197 0 1.18465 -2.18031c1.82598,1.4811 3.79961,2.47677 6.56339,2.47677zm-0.888189 -4.64764c-2.02323,0 -3.70157,-0.690945 -5.13307,-1.67835l0 -9.27874c1.4811,-1.28268 3.10984,-2.17087 5.13307,-2.17087 3.15827,0 5.7248,2.36811 5.7248,6.51496 0,4.29331 -2.71417,6.61299 -5.7248,6.61299zm24.0354 11.2606c0.641339,-0.740551 1.18346,-1.62874 1.67835,-2.61614l10.1161 -21.4772 2.61614 0 0 -4.54016 -11.1047 0 0 4.29449 3.35669 0 -5.03386 11.4 -4.98543 -11.4 3.15945 0 0 -4.29449 -11.1543 0 0 4.54016 2.66575 0 7.69843 15.9909 -1.62874 3.41339c-0.344882,0.690945 -0.641339,1.23425 -0.987402,1.67835 -0.591732,0.788976 -1.18346,1.13504 -1.72677,1.28386 -0.346063,-0.839764 -1.08661,-1.62992 -2.36929,-1.62992 -1.4315,0 -2.66457,0.937795 -2.66457,2.76378 0,1.72795 1.77638,3.4063 4.63937,3.4063 2.17087,0 4.14449,-0.987402 5.7248,-2.81339z"/>
   <path id="_196086920" class="fil1" d="M171.267 259.77c0,-5.3563 4.68661,-9.37323 10.0417,-9.37323 5.3563,0 9.37441,4.01693 9.37441,9.37323 0,5.35748 -4.01693,10.0429 -9.37441,10.0429 -5.3563,0 -10.0417,-4.68543 -10.0417,-10.0429l0 0 0 0zm2.00787 0c0,4.6878 3.34724,8.03504 8.03386,8.03504 4.01811,0 8.03504,-3.34724 8.03504,-8.03504 0,-4.68661 -4.01693,-8.03386 -8.03504,-8.03386 -4.68661,0 -8.03386,3.34724 -8.03386,8.03386l0 0 0 0zm10.7161 5.35748l-2.67874 -4.68661 -2.00787 0 0 4.68661 -2.00906 0 0 -10.7161 4.68661 0c2.00787,0 4.01693,0.669685 4.01693,3.34724 0,2.00787 -2.00906,2.67756 -3.34724,2.67756l2.67874 4.6878 -1.33937 0 0 0.00354331 0 0zm-4.68661 -6.02717l1.33819 0c1.33937,0 3.34724,0 3.34724,-1.33819 0,-1.33937 -0.669685,-1.33937 -2.00787,-1.33937l-2.67756 0 0 2.67756 0 0z"/>
   <path id="_196087736" class="fil2" d="M88.9488 286.384c0.395669,0.39685 0.79252,0.39685 1.58504,-0.79252 -0.398031,0.79252 -0.79252,1.18937 -1.18937,1.18937 0,0 -0.395669,0 -0.395669,-0.39685l0 0 0 0zm-0.39685 -1.18937c-0.79252,-3.17126 -1.98189,-6.74055 -4.75748,-9.51496 -2.37756,-3.17008 -4.36063,-7.53189 -4.7563,-8.72126 0,0 -0.79252,1.58622 -1.58622,2.37874 -0.793701,0.79252 -0.793701,0.79252 -2.37756,-0.39685 -1.18937,-1.18937 -5.55,-6.74055 -5.94567,-15.0638 0,-0.79252 -0.39685,-1.18937 -0.79252,-0.79252 -0.793701,0.39685 -1.98189,1.18937 -2.77559,-0.79252 -0.39685,-1.98189 0,-6.34488 2.37874,-11.8925 1.98189,-3.96378 3.96378,-5.55 2.77441,-8.72244 0,0 -0.79252,-2.37874 -3.17126,-3.17008 0,0 -0.794882,-0.39685 -1.58622,0 -2.77441,1.58386 -13.0831,7.92874 -22.5945,17.4402 -1.58622,1.58622 -3.17244,3.17244 -6.34488,1.18937 -4.36063,-2.77323 -9.51378,-6.34252 -16.6488,-9.51378 -6.34488,-2.37874 -7.92874,-3.96378 -7.53425,-5.55 0.794882,-1.58622 2.77441,-1.58622 5.55,-1.18701 2.77441,0 12.2882,3.56575 30.5232,-5.55 0.39685,-0.39685 1.58622,-0.79252 1.18937,-2.37874 0,-1.58504 0.39685,-7.1374 0.39685,-8.72244 0,-1.18937 0.79252,-1.98071 1.98189,-0.791339 1.18819,1.18701 3.96378,3.96142 6.34252,5.54764 1.18819,0.39685 2.37756,0.79252 4.36063,0 1.58504,-0.79252 18.6307,-11.8925 19.4244,-12.2882 0,0 -3.56811,-1.98189 -8.72126,-1.58622 -4.75748,0.39685 -16.2531,0.79252 -25.3724,-3.17126 -3.56811,-1.58622 -10.3063,-6.73937 -11.8925,-8.72126 -0.79252,-0.79252 -1.18937,-1.98189 1.18937,-3.17126 0.79252,0 1.18937,-0.39685 0,-1.58622 -0.79252,-0.79252 -5.15315,-5.15315 -5.15315,-11.4957 0,-0.79252 0,-2.77441 2.37756,-2.37874 0,0 -2.37756,-2.77441 -3.56693,-8.72008 -0.39685,-1.18937 0.39685,-2.37874 1.58504,-1.98189 0,0 -3.96378,-6.74055 -4.7563,-12.2882 0,-1.18937 1.58622,-1.98189 2.77559,-0.79252 1.18819,1.18819 3.17126,3.17126 7.53071,4.7563 3.17244,1.18937 6.34252,1.98189 11.4969,2.37874 6.73819,0.395669 17.0457,3.17126 22.9913,7.1374 3.96378,2.37756 10.3063,9.11693 12.2882,15.4594 1.18937,4.35827 1.58622,9.51378 1.18937,12.2882 -0.39685,2.77441 -0.79252,7.92874 0.79252,10.7031 0,0 11.8925,-8.32323 17.8382,-17.0457 0,0 12.2882,3.56811 22.5957,-8.32441 0,0 1.58504,6.73937 6.34488,9.51496 2.37756,1.58504 5.15315,2.37756 9.51378,2.37756 0,0 -0.39685,0 -0.79252,0 0,0 9.51496,2.37874 11.498,2.77559 5.54764,1.58504 17.0433,4.7563 28.937,15.8563 11.4969,11.1 24.9744,28.1457 24.9744,28.1457 3.17126,5.55 6.74055,15.0626 6.74055,15.0626 -0.39685,0.39685 -0.79252,0 -1.18937,-1.18937 -0.79252,-2.37756 -3.17244,-6.74055 -9.11929,-9.90945 -5.94449,-2.77559 -9.11693,-3.17126 -11.0988,-3.17126 0,0 -0.39685,0 -0.39685,1.18937 0,1.58504 -0.79252,1.58504 -2.37874,1.18819 -3.96142,-0.79252 -15.0626,-4.36063 -21.0094,-10.7043 0,0 -0.395669,1.98189 -1.98189,2.37874 0,0 -4.36063,0 -7.13622,-7.53189 -1.98189,-5.94567 -4.75748,-20.2193 -11.1,-24.5787 -5.15315,-3.9626 -13.0819,-5.94449 -20.2181,-3.9626 -5.54882,1.18937 -13.4776,4.35827 -16.65,6.34252 0,0 3.17244,-0.39685 7.13504,-0.39685 -3.96378,0 -7.13504,0.39685 -7.13504,0.39685 -1.58504,0.79252 -0.79252,2.77559 0.39685,3.96378 0,0 5.94567,5.94685 9.11929,14.6669 1.98189,5.55 4.7563,22.2012 11.4957,30.9201 6.34488,8.32441 11.4957,11.1 11.4957,11.1 5.94567,6.74055 11.8925,9.11811 11.8925,9.11811 0.39685,-0.395669 0.39685,-0.79252 0,-1.58504 0.39685,1.18937 0,1.98189 -1.18937,1.58504 -3.1689,-0.395669 -15.0626,-3.17126 -22.1988,-13.0831 0,0 -0.79252,0.398031 -1.58622,1.18937 -1.18937,0.79252 -1.18937,0.79252 -2.77441,0.398031 -1.18937,-0.794882 -5.54764,-3.96378 -7.13504,-6.34488 0,0 -0.39685,0.39685 -1.18937,0.79252 -1.18937,0.39685 -1.98189,0.79252 -2.77559,-0.395669 -1.18819,-0.79252 -7.53071,-8.72126 -6.73819,-16.65 0,0 -0.79252,0 -2.37874,-0.39685 0,0 -0.39685,-0.395669 -0.79252,-1.18819 -0.39685,-2.37874 -1.58622,-7.92874 1.18937,-12.685 2.77441,-5.15433 2.77441,-9.11929 1.98189,-11.4969 -0.39685,-2.37756 -3.17244,-4.36063 -5.15433,-5.15315 -2.77441,-0.79252 -3.56693,-0.39685 -5.15315,0.39685 -1.58504,0.793701 -19.4244,11.0988 -28.1445,16.6488 -0.39685,2.37874 1.18937,3.17244 1.18937,3.17244 0,0 9.51378,6.73937 14.6681,28.1445 1.58622,6.34252 1.58622,20.6138 1.58622,20.6138 -1.18937,4.36063 -1.58622,10.7043 -1.58622,10.7043 0.0023622,-0.394488 -0.394488,-0.790157 -0.394488,-1.18701l0 0 0 0zm9.51496 -9.5126l0.39685 0 -0.39685 0 0 0 0 0zm1.18937 0c0,0 -0.398031,0 -0.794882,0 0.39685,0 0.794882,0 0.794882,0l0 0 0 0zm-3.17244 -1.19173c0,0 0.395669,0 0.395669,0.398031 0,-0.398031 -0.395669,-0.398031 -0.395669,-0.398031l0 0 0 0zm61.0488 -4.35827l0 0 0 0 0 0 0 0zm0 -0.39685c0,0.39685 0,0.39685 0,0.39685 0,0 0,0 0,-0.39685l0 0 0 0zm0 0l0 0 0 0 0 0 0 0zm-0.39685 0c-0.79252,-1.58622 -2.77323,-3.56811 -3.56575,-7.53425 -0.39685,-2.37874 -0.79252,-3.96142 -0.39685,-5.54764 -0.39685,1.58622 0,3.1689 0.39685,5.54764 0.790157,3.96614 2.77323,5.94921 3.56575,7.53425l0 0 0 0 0 0 0 0zm-26.9563 -31.3157c5.15315,13.8732 15.4606,24.1807 15.4606,24.1807 0,0 -10.3075,-9.91063 -15.4606,-24.1807l0 0 0 0zm-40.0382 10.7008c-0.39685,-0.39685 -0.39685,-0.39685 -0.39685,-0.79252 0.79252,3.17126 1.58504,6.34488 1.58504,9.51496 0,-2.77441 -0.79252,-5.55 -1.18819,-8.72244l0 0 0 0zm17.8382 5.15433c0,0 0,0 0.398031,0 -0.398031,0 -0.398031,0 -0.398031,0l0 0 0 0zm-1.18937 -0.395669c0.398031,0 0.398031,0 0.398031,0 0,0 0.0011811,0 -0.398031,0l0 0 0 0zm49.1587 -4.36181c-0.39685,-5.94685 -2.37874,-11.1 -3.17126,-12.685 -0.79252,-0.79252 -0.39685,-1.18937 0,-1.18937 -0.39685,0 -0.79252,0.39685 0,1.18937 0.790157,1.5874 2.77441,6.73819 3.17126,12.685 0,0.395669 0,0.79252 0,0.79252 0,0 0,-0.39685 0,-0.79252l0 0 0 0zm-1.98425 -13.8744c0.39685,0 0.79252,0 0.79252,0 0,0 -0.39685,0 -0.79252,0l0 0 0 0zm-0.79252 0c0.395669,0 0.395669,0 0.395669,0 0,0 0,0 -0.395669,0l0 0 0 0zm-78.4902 -8.72008c0,0 3.56693,0.39685 7.53307,5.15197 -3.96614,-4.36063 -7.53307,-5.15197 -7.53307,-5.15197l0 0 0 0zm38.8476 -21.0106c0,0 9.51496,5.15315 14.6669,26.1626 -5.15197,-21.0094 -14.6669,-26.1626 -14.6669,-26.1626l0 0 0 0zm35.2819 10.3063c-1.18937,-2.77323 -4.7563,-8.32441 -13.0819,-11.8925 -0.39685,-0.39685 -1.18937,-0.79252 -1.98189,-1.18937 0.79252,0.39685 1.58622,0.79252 1.98189,1.18937 8.32441,3.56811 11.8925,9.11929 13.0819,11.8925 0,0.79252 0.39685,1.18937 0.39685,1.58622 -0.0011811,-0.39685 -0.39685,-0.793701 -0.39685,-1.58622l0 0 0 0zm63.8232 -7.53189c0.79252,0 1.18937,0 1.58622,0 -0.39685,0 -0.793701,0 -1.58622,0l0 0 0 0zm-91.9677 -7.13504c0.79252,0 1.18819,0 1.98071,0 -0.79252,0 -1.18819,0 -1.98071,0l0 0 0 0zm23.7839 -11.4969l0 0 0 0 0 0zm0.793701 0l0 0 0 0 0 0 0 0zm1.58504 0c-0.39685,0 -0.79252,0 -1.18937,0 0.39685,0 0.79252,0 1.18937,0l0 0z"/>
   <path id="_196086512" class="fil3" d="M183.298 208.687c-11.8949,-11.0988 -23.3906,-14.2713 -28.9382,-15.8563 14.6669,2.37874 24.5776,7.92756 33.6945,17.0457 10.3087,9.91063 15.0661,18.6307 20.2193,26.9563 -0.0023622,0 -13.4799,-17.0457 -24.9756,-28.1457l0 0z"/>
   <path id="_196087616" class="fil3" d="M88.9488 255.069c-5.15433,-21.4087 -14.6693,-28.1457 -14.6693,-28.1457 0,0 3.56693,0.791339 7.53425,5.15197 2.37756,2.77441 5.15315,7.92992 7.53071,15.4594 0,0.39685 0,0.39685 0,0.79252 0,0.395669 0,0.39685 0.39685,0.79252 0.39685,3.17244 1.18937,5.94567 1.18937,8.72362 1.18937,9.90945 -0.39685,17.8358 -0.39685,17.8358 0,0 0,-14.2701 -1.58504,-20.6102l0 0z"/>
   <path id="_194825568" class="fil3" d="M33.0531 155.567c0,0 7.13504,13.0807 19.0276,21.802 11.8925,8.32441 3.17126,2.77559 19.0287,13.8744 10.3075,6.74055 13.0819,9.51378 13.0819,9.51378l-9.90945 -5.94449c0,0 -9.91063,-5.94567 -20.2169,-13.4776 -13.8768,-9.91063 -21.0118,-25.7681 -21.0118,-25.7681l0 0z"/>
   <path id="_196085480" class="fil3" d="M133.744 251.5c-6.73937,-8.72008 -9.51496,-25.3701 -11.4969,-30.9201 -3.17126,-8.72008 -9.11811,-14.6669 -9.11811,-14.6669 0,0 9.51496,5.15433 14.6669,26.1638 0.395669,1.98071 1.18819,3.96378 1.98071,6.3437 5.15433,14.2713 15.4606,24.1819 15.4606,24.1819 0,0 -5.15079,-2.78031 -11.4933,-11.1024l0 0z"/>
   <path id="_196085144" class="fil4" d="M142.069 12.8551c6.74055,2.77559 10.3087,8.72126 9.91181,16.65 0,8.72008 -4.36063,15.4594 -5.55,17.0457 -1.58504,1.58504 -3.56693,1.58504 -5.94331,0.395669 -2.77559,-0.79252 -5.94685,-2.37756 -10.7055,-2.37756 -4.36063,0 -8.72126,1.98189 -11.4957,4.7563 0,0 -6.73937,-0.39685 -11.4957,1.5874 -4.75748,1.58622 -6.34488,2.77559 -7.53189,3.56811 0,0 -4.7563,-0.39685 -9.11929,-2.37874 -5.15315,-2.77559 -16.6488,-10.3063 -16.6488,-21.4063 0,-11.4957 9.90945,-15.4594 15.8563,-15.0626 4.75748,0 8.72126,1.18819 13.0819,1.98071 3.96378,1.18937 7.13504,1.58622 9.51378,1.18937 2.77559,-0.398031 6.73937,-1.18937 9.91063,-3.17126 2.37874,-1.98189 7.13504,-3.56811 10.3063,-3.96378 3.9626,-0.398031 7.52953,0.394488 9.90945,1.18701l0 0z"/>
   <path id="_196084808" class="fil4" d="M167.837 24.3508c8.32441,0 12.2882,3.96496 15.0638,11.8925 1.18937,3.56811 2.37874,9.91063 10.3063,11.4969 9.51378,2.37756 15.0638,5.15315 17.8382,9.90945 2.77559,3.96378 2.77559,9.91063 1.58622,13.4776 -1.18937,3.56811 -1.98189,5.94567 1.18937,9.11929 2.37874,2.77441 4.35827,7.53189 1.98189,13.4776 -1.98189,6.34252 -8.32677,11.4957 -19.8224,12.2882 -5.55,0.39685 -13.4776,-0.79252 -13.0819,-3.56811 0,-0.79252 0.79252,-1.58504 2.77441,-3.96378 1.58622,-1.58622 2.37638,-4.36063 2.77559,-6.73937 0.394488,-3.96378 -1.18937,-7.53189 -4.36063,-11.0988 -1.58622,-1.58622 -2.37874,-3.56811 -1.18937,-6.73937 1.18937,-3.17126 1.18937,-5.15315 1.18937,-9.11693 0,-4.75748 -3.17126,-11.1 -8.32677,-12.685 -6.73937,-1.98189 -13.8744,-1.18937 -19.4244,3.96378 0,0 -5.15315,-3.56811 -5.15315,-10.7031 0,-7.13622 7.13858,-21.0106 16.6535,-21.0106l0 0z"/>
   <path id="_196084448" class="fil5" d="M205.892 114.736c3.17126,4.7563 3.56811,15.0638 -1.58504,22.9913 -7.13622,11.8925 -18.2339,11.1 -18.2339,11.1 -1.58504,16.6488 -15.8563,20.2181 -23.7862,20.2181 -21.0118,0 -21.802,-16.6488 -21.802,-18.6307 0,-1.5874 -0.794882,-1.98307 -1.58622,-1.18937 -5.15315,3.96496 -7.53425,11.1 -7.92992,17.4425 -0.39685,5.94567 1.18937,10.3063 1.98189,12.2882 3.56811,5.54764 8.32441,8.72126 19.4256,5.94449 10.7031,-2.77559 20.6138,-3.56575 29.7307,-2.37874 9.11811,1.5874 13.4776,-1.18701 15.0638,-5.94449 1.18937,-4.36063 4.7563,-7.92756 9.51378,-10.7031 12.685,-6.73937 10.7055,-17.0457 9.51614,-21.4063 -0.79252,-4.36063 1.97953,-6.73819 3.96142,-8.72008 7.1374,-8.32441 8.72362,-19.4244 3.96496,-25.3724 -4.75748,-6.34252 -13.8744,-4.7563 -18.6319,-3.96378 -2.77441,0.395669 -5.94449,1.58504 -7.13504,2.37756 0,0.0011811 4.35945,0.793701 7.53189,5.94685l0 0z"/>
   <path id="_196084112" class="fil5" d="M130.573 152.394c-0.39685,5.55 -2.77559,22.5957 -11.8925,27.7512 -3.96378,2.37638 -12.6874,3.56575 -21.4087,0.39685 -8.32323,-3.17244 -12.685,-9.11811 -14.6657,-11.4969 -4.36181,-4.7563 -9.91063,-10.7031 -24.1819,-12.685 -13.0807,-1.98071 -24.9756,-7.53307 -22.5945,-22.2 1.58622,-12.2882 13.8744,-15.4606 20.6138,-15.0638 0.79252,0 2.77441,0.794882 3.17126,1.58622 1.58504,2.77441 5.55,7.92874 9.90945,10.7031 5.94685,3.56811 13.0819,4.7563 19.8224,4.7563 0,0 3.17244,13.8744 13.8744,18.6319 9.11693,3.9626 19.0264,2.37756 27.352,-2.37992l0 0z"/>
   <path id="_196083776" class="fil5" d="M56.4437 33.8669c8.72008,0 21.4051,5.15315 23.3882,17.8382 0,0 -8.72126,-3.96378 -13.4776,1.98189 -3.96496,5.55 -1.18937,11.8925 -0.39685,15.4594 1.18937,3.56811 1.98189,6.73937 1.18937,9.51496 -0.79252,3.56693 -2.77559,5.55 -8.32441,9.11811 -5.15315,3.17244 -6.34252,8.32441 -6.74055,11.8925 -0.39685,6.34252 1.58504,13.0819 6.74055,16.65 0,0 -7.53189,2.77441 -15.4606,-0.39685 -9.11693,-3.56811 -13.8744,-11.0988 -13.8744,-20.2193 0,-9.51378 5.15433,-14.6669 7.13622,-16.6488 1.58504,-1.98189 3.56693,-5.15315 3.56693,-8.32441 0,-3.17126 -1.58622,-5.55 -2.37874,-7.1374 -1.58504,-2.77441 -3.17126,-7.53189 -1.58504,-14.2701 1.18701,-4.75748 7.13504,-15.4583 20.2169,-15.4583l0 0z"/>
   <path id="_196083440" class="fil5" d="M71.5063 61.2189c-1.58504,4.36181 -0.39685,6.73937 0.79252,10.3075 1.18937,3.17126 2.37874,7.92756 -3.17126,12.685 -5.94567,4.7563 -11.8925,8.32441 -11.4957,17.8382 0.79252,9.51378 7.53189,22.2 16.252,26.9575 7.13504,3.96378 12.2882,4.36063 17.4425,3.56693 0,0 4.7563,13.4799 15.0626,17.8406 7.53425,3.17244 19.0276,4.36063 29.3362,-4.36063 3.56811,-2.77441 7.92874,-11.0988 7.13622,-18.6307 0,0 -12.685,1.18937 -25.3701,-3.17126 -12.2894,-4.36181 -24.9768,-13.8768 -29.335,-25.3724 -3.96378,-11.1 -5.55,-28.5425 7.13504,-41.6232 0,0 -4.7563,-3.17126 -10.3063,-3.56693 -5.15433,-0.398031 -11.4969,1.97953 -13.4787,7.52953l0 0z"/>
   <path id="_196083104" class="fil4" d="M153.168 62.8039c-3.56693,-6.73819 -10.7043,-15.8563 -22.9937,-15.065 -3.56693,0 -8.72008,2.37874 -10.3063,4.7563 0,0 -5.94567,0 -9.91063,1.18937 -5.55,1.18937 -11.4957,4.7563 -15.0626,11.4957 -3.96496,7.13504 -5.55,12.2882 -5.55,19.0299 0,9.51378 5.15315,21.4063 14.2701,27.7488 1.58622,1.18937 1.98189,-0.39685 1.58622,-2.77559 -0.398031,-2.37756 -1.98189,-13.0819 2.77559,-22.9913 5.54764,-11.4957 15.4594,-18.6307 26.1626,-21.8031 6.3437,-2.37756 15.065,-2.37756 19.0287,-1.58504l0 0z"/>
   <path id="_196082768" class="fil5" d="M131.763 68.3539c-9.51496,4.36181 -22.5957,16.65 -23.3882,32.1106 -0.79252,13.8744 5.15315,22.2 23.7839,22.9925 18.6307,0.79252 36.8681,-11.8925 37.6606,-12.2882 0.791339,-0.794882 0.39685,-1.58622 -1.58622,-1.18937 -1.98071,0.39685 -15.0626,1.98189 -22.5969,1.58504 -7.53189,0 -16.2531,-2.37756 -19.8201,-8.32323 -4.36063,-6.34488 -5.54882,-17.4449 5.94685,-34.8874l0 0z"/>
   <path id="_196082432" class="fil5" d="M161.096 72.7157c5.15315,5.94567 4.36063,14.2713 -0.79252,22.9913 -5.15079,9.11693 -12.2882,11.4957 -16.6488,11.0988 -4.75512,-0.39685 -6.73937,-1.18937 -8.72126,-1.98189 0,0 8.32441,-0.79252 13.4776,-6.73819 3.56811,-4.36181 3.17126,-9.91063 1.18937,-13.4776 -1.58622,-2.37874 -3.56811,-3.96496 -5.15315,-5.15433 -3.56811,-1.98189 -10.3075,-3.17126 -14.2713,-1.58504 0,0 5.94567,-10.3075 17.4413,-10.3075 5.55,0 9.91181,1.58504 13.4787,5.15433l0 0z"/>
   <path id="_196082096" class="fil5" d="M130.573 79.4539c-2.77559,2.37756 -4.36063,6.34488 -4.75512,9.51496 -0.398031,4.36063 1.18937,8.32441 4.75512,10.3075 3.56693,1.98071 9.91181,1.18819 12.685,-1.58622 3.17126,-2.77559 3.17126,-6.34252 2.77441,-7.53189 0,-1.98189 -1.58504,-3.96378 -4.35827,-3.17126 -1.98425,0.39685 -3.96378,0.39685 -5.15315,0 -1.58858,-0.398031 -4.75866,-1.58622 -5.94803,-7.53307l0 0z"/>
   <path id="_196081760" class="fil4" d="M175.763 55.2732c5.15315,2.77441 5.94567,8.32323 4.36063,14.2701 -1.58622,5.94567 -2.37874,8.32441 1.58622,13.4776 3.56693,5.15315 1.98189,12.2882 0,15.4606 -2.37874,2.77441 -7.1374,8.32441 -16.65,9.11693 -9.51142,0.793701 -11.0988,-0.39685 -11.0988,-0.39685 0,0 6.73937,-4.36063 11.4957,-12.6862 3.17244,-5.15433 4.75748,-11.4969 3.17244,-17.4425 -2.37874,-8.32441 -11.1024,-10.7031 -15.0638,-10.7031 0,0 1.98189,-7.53189 7.53189,-10.3063 5.55,-2.3752 11.4945,-2.3752 14.6657,-0.790157l0 0z"/>
   <path id="_196081424" class="fil5" d="M145.24 123.852c1.18937,3.17244 2.77441,7.53307 0,14.2724 -2.77559,5.55 -3.56575,15.0626 3.56693,21.802 6.74055,6.73937 17.8382,5.15315 22.5957,2.77559 5.55,-2.77559 7.53425,-7.92874 8.72244,-13.8768 0.39685,-2.77559 1.98189,-3.96378 5.55,-3.96378 3.56693,-0.39685 10.3075,-1.18937 15.0638,-8.72126 3.56575,-5.94567 5.15079,-14.2713 1.18937,-20.2169 -3.96378,-6.74055 -15.0638,-8.32441 -19.8224,-7.92874 -2.77559,0.39685 -4.7563,1.18937 -6.74055,2.77559 -1.58386,1.5874 -12.287,11.498 -30.1252,13.0819l0 0z"/>
   <g>
    <path id="_196081064" class="fil6" d="M208.271 236.832c-5.15079,-8.32441 -9.91063,-17.0457 -20.2193,-26.9563 -9.11693,-9.11929 -19.0276,-14.6669 -33.6945,-17.0457 -1.98189,-0.39685 -11.498,-2.77559 -11.498,-2.77559 1.18937,0 2.37874,0 3.96496,0 1.18819,-0.395669 2.37756,-0.395669 3.96378,-0.79252 8.72126,-1.98189 15.0638,-3.17126 22.5945,-3.17126 7.1374,0 25.3724,0.39685 40.4362,19.0299 0.39685,0.39685 1.58622,2.77441 1.18937,3.17126 -0.39685,0.39685 -1.18937,0.39685 -2.77559,0.39685 0,0 5.15433,7.92874 6.34252,16.6488 0.398031,1.18937 0,1.98189 -1.18701,1.98189 -1.18819,0 -3.17126,-0.39685 -3.17126,-0.39685 0,0 3.56811,10.7043 1.98189,23.3894 0,0.79252 -0.39685,1.58504 -1.18937,1.58504 0.0011811,0 -3.56693,-9.51378 -6.73819,-15.065l0 0z"/>
    <path id="_196080728" class="fil6" d="M88.9488 286.384c0,0 0.395669,-6.34488 1.58504,-10.7043 0,0 2.77559,-13.4776 -1.18937,-28.1457 -5.55,-19.4244 -15.065,-20.6126 -15.065,-20.6126 0,0 -1.58622,-0.79252 -1.18937,-3.17244 0,0 0,1.98189 11.4957,2.37874 9.91063,0.39685 17.4425,1.58386 21.8031,11.4957 3.56693,7.53189 2.37756,13.4776 2.37756,15.4606 0,1.18819 -0.79252,1.58504 -1.58504,1.18819 -0.79252,-0.395669 -0.79252,-0.395669 -0.79252,0.79252 0,1.58622 -0.39685,13.8744 -6.73937,20.2169 -1.18937,1.18937 -1.58622,0.79252 -3.56811,-0.79252 0,0 -4.7563,9.11929 -5.55,11.1012 -0.398031,0.79252 -0.79252,1.18937 -1.18819,1.18937l-0.394488 -0.395669 0 0z"/>
    <path id="_196080368" class="fil6" d="M29.0894 150.412c0,0 1.18937,-0.793701 1.98189,0.39685 1.18937,1.18937 3.17126,3.17244 7.53189,4.75748 3.17126,1.18819 6.34252,1.98071 11.4957,2.37756 6.73937,0.39685 17.0457,3.17244 22.9913,7.1374 3.96378,2.37874 10.3063,9.11811 12.2882,15.4606 1.18937,4.35827 1.58622,9.51378 1.18937,12.2882 -0.39685,2.77441 -0.79252,7.92756 0.79252,10.7031l-3.17126 -2.77559c0,0 -2.77559,-2.77205 -13.0819,-9.51378 -14.2713,-9.90945 -9.11811,-6.74055 -19.0299,-13.8744 -2.37874,-1.98189 -11.4957,-8.72008 -19.0276,-21.802 -0.788976,-0.793701 -2.77087,-4.36299 -3.96024,-5.15551l0 0z"/>
    <path id="_196080032" class="fil6" d="M145.24 262.598c0,0 -13.4776,-13.4776 -17.4425,-30.5232 -5.15079,-21.0094 -14.6657,-26.1626 -14.6657,-26.1626 -1.18937,-1.18937 -1.98189,-3.17244 -0.39685,-3.96496 0,0 14.2724,-1.58504 22.5945,2.37874 8.32441,3.56811 11.8925,9.11929 13.0819,11.8925 0.39685,1.98189 0.39685,2.37874 -1.58622,2.77441 -1.98071,0 -2.37756,0.39685 -0.395669,1.98189 1.98071,1.58504 7.53307,7.1374 8.72244,12.685 0,1.98189 0,1.98189 -1.58622,1.98189 -1.18819,-0.39685 -1.98071,0 -1.18819,1.18937 0.79252,1.58622 2.77441,6.73937 3.17126,12.685 0,1.98189 0,2.37874 -1.18937,2.77559 -1.18937,0.395669 -2.77441,2.77441 -1.18937,9.90945 0.79252,3.96378 2.77323,5.94567 3.56693,7.53425 0.79252,0.79252 0.79252,1.58504 0.395669,1.98189 0,0 -5.94567,-2.37756 -11.8925,-9.11929l0 0z"/>
   </g>
  </g>
 </g>
</svg>
