<?xml version="1.0" encoding="UTF-8" standalone="no"?><svg width="100%" height="100%" viewBox="0 0 64 64" version="1.1" xmlns="http://www.w3.org/2000/svg" xmlns:xlink="http://www.w3.org/1999/xlink" xml:space="preserve" xmlns:serif="http://www.serif.com/" style="fill-rule:evenodd;clip-rule:evenodd;stroke-miterlimit:1.5;"><rect id="ball" x="0" y="0" width="64" height="64" style="fill:none;"/><g id="ball1" serif:id="ball"><path d="M50.684,11.972c7.049,6.998 3.836,21.683 -7.172,32.77c-11.008,11.088 -25.669,14.408 -32.719,7.409c-7.049,-6.998 -3.835,-21.682 7.172,-32.77c11.008,-11.088 25.669,-14.408 32.719,-7.409Z" style="fill:#fff;stroke:#040404;stroke-width:1.5px;"/><path d="M7.48,46.76c0,0 1.803,-5.342 4.974,-10.485c3.136,-5.087 7.766,-10.872 10.887,-13.947c2.612,-2.574 6.94,-5.87 11.001,-8.218c5.696,-3.294 10.951,-5.239 10.951,-5.239" style="fill:none;stroke:#040404;stroke-width:1.51px;"/><path d="M53.974,17.239c0,0 -1.83,5.373 -5.045,10.546c-3.181,5.117 -7.877,10.936 -11.043,14.029c-2.649,2.589 -7.039,5.904 -11.157,8.266c-5.778,3.313 -11.107,5.269 -11.107,5.269" style="fill:none;stroke:#040404;stroke-width:1.53px;"/></g></svg>