<?xml version="1.0" encoding="UTF-8" standalone="no"?>
<!-- Created with Serif DrawPlus 12,0,4,27 (May 24, 08:37:51) (http://www.serif.com) -->

<svg
   xmlns:dc="http://purl.org/dc/elements/1.1/"
   xmlns:cc="http://creativecommons.org/ns#"
   xmlns:rdf="http://www.w3.org/1999/02/22-rdf-syntax-ns#"
   xmlns:svg="http://www.w3.org/2000/svg"
   xmlns="http://www.w3.org/2000/svg"
   xmlns:sodipodi="http://sodipodi.sourceforge.net/DTD/sodipodi-0.dtd"
   xmlns:inkscape="http://www.inkscape.org/namespaces/inkscape"
   version="1.1"
   width="295.803989155"
   height="338.061701891" viewBox="0 0 350.0 400.0"
   id="svg3143"
   inkscape:version="0.48.1 "
   sodipodi:docname="Scottish_Rugby_Union_Logo.svg">
  <metadata
     id="metadata3177">
    <rdf:RDF>
      <cc:Work
         rdf:about="">
        <dc:format>image/svg+xml</dc:format>
        <dc:type
           rdf:resource="http://purl.org/dc/dcmitype/StillImage" />
      </cc:Work>
    </rdf:RDF>
  </metadata>
  <defs
     id="defs3175" />
  <sodipodi:namedview
     pagecolor="#ffffff"
     bordercolor="#666666"
     borderopacity="1"
     objecttolerance="10"
     gridtolerance="10"
     guidetolerance="10"
     inkscape:pageopacity="0"
     inkscape:pageshadow="2"
     inkscape:window-width="1366"
     inkscape:window-height="706"
     id="namedview3173"
     showgrid="false"
     inkscape:zoom="0.46752998"
     inkscape:cx="266.716"
     inkscape:cy="311.20999"
     inkscape:window-x="-8"
     inkscape:window-y="-8"
     inkscape:window-maximized="1"
     inkscape:current-layer="svg3143" />
  <g
     id="dp_group001"
     transform="matrix(0.62056996,0,0,0.62056996,507.90314,-160.42349)">
    <g
       id="dp_group002">
      <path
         id="dp_path003"
         d="m -322.851,300.093 c -1.661,-1.805 -2.622,-2.036 -9.16,-2.197 l -7.304,-0.179 c -0.062,8.464 -0.125,16.927 -0.188,25.391 l 1.939,-0.151 c 1.816,-0.14 1.943,-0.497 1.983,-5.557 0.044,-5.275 0.096,-5.403 2.152,-5.228 1.618,0.136 2.874,1.429 5.425,5.583 2.803,4.562 3.644,5.372 5.409,5.19 l 2.091,-0.214 c -2.14,-3.419 -4.28,-6.838 -6.42,-10.258 l 2.717,-1.72 c 3.478,-2.2 4.204,-7.561 1.356,-10.66 z m -3.748,2.202 c -2.424,-1.52 -6.046,-1.027 -8.788,-1.027 -0.05,2.581 -0.1,5.161 -0.15,7.743 l 4.693,-0.376 c 4.393,-0.352 4.731,-0.534 5.287,-2.844 0.473,-1.962 0.258,-2.68 -1.042,-3.496 z"
         inkscape:connector-curvature="0"
         style="fill:#004b84;fill-rule:evenodd" />
      <path
         id="dp_path004"
         d="m -322.835,290.303 c -8.189,-2.938 -17.973,-1.459 -24.176,5.074 -9.784,10.306 -6.792,27.774 5.724,34.263 12.415,6.437 28.18,-0.4 31.45,-14.277 2.388,-10.139 -3.038,-21.488 -12.998,-25.06 z m -1.032,3.941 c -2.049,-0.841 -3.788,-1.543 -5.981,-1.748 -4.833,-0.452 -10.569,2.053 -13.793,5.569 -8.518,9.292 -4.798,25.122 7.093,29.264 8.679,3.026 18.179,-1.625 21.463,-10.268 3.18,-8.368 -0.135,-19.269 -8.782,-22.817 z"
         inkscape:connector-curvature="0"
         style="fill:#004b84;fill-rule:evenodd" />
      <path
         id="dp_path005"
         d="m -520.08,388.801 -11.385,-0.849 c -6.194,0 -12.131,0.928 -18.28,1.815 -33.324,4.808 -66.044,22.802 -87.864,48.789 -16.507,19.663 -28.71,46.928 -21.407,72.947 4.401,15.686 15.36,28.017 29.465,35.618 26.414,14.235 59.322,11.698 86.787,2.147 29.724,-10.339 58.057,-30.476 74.372,-58.059 12.076,-20.418 17.735,-46.369 6.313,-68.366 -11.194,-21.562 -34.889,-32.32 -58.001,-34.042 z"
         inkscape:connector-curvature="0"
         style="fill:#004b84;fill-rule:evenodd" />
      <path
         id="dp_path006"
         d="m -694.373,543.052 -3.847,-18.371 c -1.103,-7.769 -2.205,-15.538 -3.308,-23.308 l -8.16,16.724 c -11.324,23.207 -20.723,48.822 -17.544,75.099 3.317,27.435 20.615,49.807 41.947,66.077 37.697,28.752 88.276,27.11 132.22,17.236 18.576,-4.173 36.468,-10.461 54.437,-16.685 3.873,-1.832 7.747,-3.664 11.62,-5.496 l 1.808,-13.741 c 2.752,-20.92 1.263,-41.974 -2.877,-62.606 -2.658,-13.253 -6.054,-26.272 -9.752,-39.257 -10.102,5.597 -20.204,11.195 -30.306,16.791 l 4.391,11.572 c 5.592,14.737 8.488,30.324 7.353,46.101 -0.71,9.884 -3.212,18.997 -6.053,28.404 -9.952,0.044 -19.596,-0.04 -29.397,-2.143 -22.814,-4.896 -43.258,-18.021 -60.167,-33.918 -10.632,-9.999 -19.697,-21.607 -28.336,-33.37 l -1.072,9.08 c -1.053,8.923 -3.533,18.39 -9.599,25.284 -2.588,2.942 -5.512,4.952 -8.932,6.696 l -5.456,-4.581 c -10.224,-8.584 -15.958,-22.079 -20.441,-34.375 -3.433,-9.418 -5.708,-17.737 -8.529,-31.213 z"
         inkscape:connector-curvature="0"
         style="fill:#004b84;fill-rule:evenodd" />
      <path
         id="dp_path007"
         d="m -542.037,293.815 c 2.224,-7.34 3.856,-13.414 3.629,-13.495 l -0.413,-0.148 -17.69,1.596 c -42.364,3.821 -83.576,18.597 -118.553,43.149 -11.575,8.126 -21.979,17.596 -32.34,27.196 -3.075,3.519 -6.151,7.038 -9.225,10.556 l 9.32,2.76 c 19.586,5.802 36.208,18.771 49.26,34.374 5.416,6.474 9.748,13.493 13.817,20.858 l 16.373,-10.538 c 19.308,-12.426 39.858,-23.564 61.451,-31.375 7.787,-2.816 15.589,-5.448 23.607,-7.484 -2.802,-9.229 -5.336,-18.16 -5.974,-27.871 -1.098,-16.728 1.904,-33.617 6.738,-49.578 z"
         inkscape:connector-curvature="0"
         style="fill:#004b84;fill-rule:evenodd" />
      <path
         id="dp_path008"
         d="m -417.392,391.011 c -6.836,-2.924 -13.739,-5.154 -20.953,-6.818 l 7.193,6.114 c 15.579,13.236 24.348,32.276 28.545,52.07 4.536,21.384 2.75,43.291 0.33,64.834 l -2.83,0.473 c -2.037,0.341 -5.073,-0.343 -10.841,-2.44 -8.679,-3.156 -16.681,-7.808 -24.704,-12.337 l 2.504,11.92 c 5.989,28.502 2.511,58.212 -5.28,86.005 -4.197,14.979 -10.001,29.328 -15.884,43.684 -1.735,3.284 -3.468,6.568 -5.203,9.852 l 14.327,-10.024 c 33.459,-23.411 63.779,-54.397 80.372,-92.384 13.025,-29.824 21.545,-64.857 9.472,-96.441 -9.893,-25.886 -32.311,-43.935 -57.048,-54.508 z"
         inkscape:connector-curvature="0"
         style="fill:#004b84;fill-rule:evenodd" />
      <path
         id="dp_path009"
         d="m -485.683,282.501 c -6.56,-1.878 -13.093,-3.406 -19.853,-4.209 -0.579,0.224 -1.157,0.448 -1.736,0.672 4.971,5.857 9.317,11.84 12.693,18.832 4.188,8.673 7.244,17.769 10.264,26.901 l -10.27,6.675 c -9.742,6.331 -20.16,14.328 -25.692,24.927 l -2.832,5.422 c -0.25,1.502 -0.499,3.003 -0.748,4.503 l 18.509,-1.848 c 37.981,-3.796 78.224,-0.149 111.896,19.451 12.875,7.494 23.757,17.46 33.256,28.896 l 3.904,-10.59 c 4.945,-13.41 7.519,-27.542 6.033,-41.818 -1.229,-11.792 -4.405,-23.234 -10.52,-33.426 -7.693,-12.822 -18.92,-22.064 -30.92,-30.492 l 1.482,6.711 c 3.301,14.953 -2.658,29.416 -7.899,43.157 -1.696,2.95 -3.392,5.899 -5.088,8.85 -3.053,-8.3 -6.115,-16.516 -10.961,-23.972 -7.304,-11.24 -17.394,-20.556 -28.307,-28.132 -13.068,-9.072 -27.959,-16.142 -43.211,-20.51 z"
         inkscape:connector-curvature="0"
         style="fill:#004b84;fill-rule:evenodd" />
      <path
         id="dp_path010"
         d="m -306.548,350.907 -2.675,-5.147 c -0.314,0 -0.628,0 -0.941,0 -1.644,9.011 -3.325,17.595 -7.321,25.929 -8.904,18.568 -23.316,33.01 -37.663,47.3 l -0.043,0.4 c -0.024,0.22 2.251,5.071 5.055,10.778 10.496,21.361 13.104,44.964 9.331,68.377 -4.526,28.083 -16.936,54.891 -33.058,78.059 -4.83,6.941 -9.014,13.09 -9.298,13.666 l -0.518,1.043 15.584,-8.853 c 26.062,-14.808 50.878,-33.584 68.711,-58.128 14.14,-19.46 23.671,-42.347 25.193,-66.564 0.616,-9.808 -0.256,-19.128 -1.594,-28.8 l -10.204,8.78 c -8.831,7.598 -17.814,14.998 -26.831,22.366 l 4.749,-16.21 c 5.422,-18.504 9.192,-37.631 8.834,-56.991 -0.223,-12.052 -1.662,-25.133 -7.311,-36.005 z"
         inkscape:connector-curvature="0"
         style="fill:#004b84;fill-rule:evenodd" />
      <path
         id="dp_path011"
         d="m -275.909,579.408 c -5.719,-2.287 -8.863,-2.959 -17.116,-3.655 -32.658,-2.76 -65.278,10.478 -92.687,27.432 -5.572,3.447 -19.155,13.295 -30.184,21.888 -22.275,17.352 -45.581,32.618 -70.947,44.866 9.195,3.485 18.136,6.648 27.943,7.98 15.228,2.069 30.391,0.597 44.928,-4.414 18.367,-6.33 37.38,-11.541 56.892,-8.105 6.795,1.196 13.296,3.067 19.788,5.351 l 1.188,-11.287 c 2.567,-24.389 12.763,-48.768 33.117,-63.283 8.527,-6.078 18.816,-10.52 29.003,-12.822 l 5.083,-1.148 z"
         inkscape:connector-curvature="0"
         style="fill:#004b84;fill-rule:evenodd" />
      <path
         id="dp_path012"
         d="m -736.352,397.751 -0.857,-10.964 c 0.041,-0.307 0.081,-0.615 0.121,-0.922 l -8.236,12.322 c -9.949,14.885 -18.04,31.101 -22.809,48.444 -6.308,22.933 -6.09,47.208 2.433,69.546 5.719,14.988 14.739,27.538 25.427,39.231 1.922,-10.315 3.952,-20.305 8.04,-30.033 7.153,-17.02 17.729,-32.638 29.072,-47.056 11.38,-14.463 24.297,-27.559 37.072,-40.74 l 4.668,-4.238 4.669,-4.24 -7.107,-1.804 c -12.248,-3.109 -25.496,-1.888 -37.705,0.783 -7.344,1.605 -14.341,3.828 -21.271,6.697 -4.172,-5.79 -7.882,-11.412 -10.133,-18.309 -1.907,-5.849 -2.739,-10.448 -3.384,-18.717 z"
         inkscape:connector-curvature="0"
         style="fill:#004b84;fill-rule:evenodd" />
      <path
         id="dp_path013"
         d="m -793.793,527.28 -6.886,-9.527 -0.042,0.062 -0.044,0.061 -0.162,14.855 c -0.261,24.152 4.588,48.989 17.778,69.51 4.885,7.6 11.037,13.886 17.441,20.134 -4.545,0.554 -9.085,0.117 -13.659,-0.06 -7.786,-0.304 -15.353,-1.366 -22.965,-2.926 l 9.268,11.64 c 13.867,17.416 31.219,33.835 52.728,40.743 10.855,3.487 22.657,4.461 33.796,1.721 l 7.165,-1.762 c 0.844,-0.575 1.686,-1.148 2.53,-1.722 -7.127,-4.477 -14.039,-8.937 -19.834,-15.185 -15.53,-16.745 -21.985,-40.377 -24.29,-62.648 -1.056,-10.209 -1.446,-20.363 -1.359,-30.611 -8.009,-1.89 -15.779,-3.737 -23.055,-7.808 -11.382,-6.372 -20.792,-15.934 -28.41,-26.477 z"
         inkscape:connector-curvature="0"
         style="fill:#004b84;fill-rule:evenodd" />
    </g>
    <g
       id="dp_dp014"
       transform="translate(-792.453,788.453)">
      <path
         id="dp_path015"
         d="m 60.8413,-68.7907 -29.472,0 c -3.876,0 -6.6346,0.152 -8.2706,0.4507 -1.644,0.2987 -3.248,0.9707 -4.816,2.0107 -3.8054,2.3613 -6.6494,5.9773 -8.53737,10.8373 -1.888,4.8693 -2.828,9.7227 -2.828,14.5613 0,4.6547 3.50797,8.24 10.52537,10.7467 l 6.5426,2.6373 c 3.4934,1.4667 5.732,2.5907 6.7267,3.3854 0.9933,0.788 1.4893,1.812 1.4893,3.0653 0,2.7213 -1.024,4.556 -3.088,5.5107 -2.056,0.956 -4.8,1.4293 -8.216,1.4293 l -10.8386,0 c -2.05603,0 -3.64537,-0.1147 -4.76137,-0.3507 C 4.212,-14.752 3.44667,-15.1493 2.988,-15.7227 2.576,-16.288 2.308,-17.136 2.20933,-18.276 l -2.935997,0 -2.980003,11.74133 C -3.98933,-5.10533 -4.128,-4.12 -4.128,-3.57733 c 0,1.82 0.84133,2.98133 2.51467,3.49333 1.6746633,0.565333 3.76933,0.848 6.284,0.848 l 23.29733,0 c 3.3093,0 5.816,-0.114667 7.5133,-0.336 1.6894,-0.221333 3.4774,-0.68 5.3654,-1.368 2.3,-0.98667 4.3946,-2.43067 6.2746,-4.34133 1.9267,-1.94134 3.356,-4.15067 4.296,-6.62667 1.116,-2.7213 2.1094,-5.8253 2.9894,-9.3173 0.8706,-3.4934 1.3066,-6.184 1.3066,-8.064 0,-4.7774 -3.4786,-8.492 -10.4186,-11.152 l -8.1707,-3.4934 c -1.9493,-0.8333 -3.2947,-1.46 -4.028,-1.88 -0.772,-0.4506 -1.292,-0.9253 -1.5747,-1.4373 -0.244,-0.4733 -0.3666,-1.1773 -0.3666,-2.1013 0,-2.5387 0.948,-4.196 2.828,-4.968 1.888,-0.78 4.472,-1.1707 7.7506,-1.1707 l 10.104,0 c 2.164,0 3.7147,-0.2973 4.656,-0.8933 0.9467,-0.596 1.6814,-1.7054 2.2014,-3.3094 z"
         inkscape:connector-curvature="0"
         style="fill:#004b84" />
      <path
         id="dp_path016"
         d="m 129.111,-68.7907 -2.455,9.072 c -0.451,1.8507 -1.245,3.096 -2.376,3.7534 -1.132,0.6573 -2.883,0.9866 -5.252,0.9866 l -8.568,0 c -2.957,0 -5.007,0.0987 -6.137,0.3134 -1.132,0.2053 -2.148,0.6866 -3.058,1.4293 -1.8423,1.7347 -3.325,4.5707 -4.441,8.5213 -0.2747,0.956 -1.0387,3.3107 -2.2933,7.0787 -1.2534,3.76 -2.1707,6.8787 -2.744,9.34 -0.5734,2.4693 -0.8627,4.9227 -0.8627,7.376 0,2.7213 0.8867,4.4947 2.6667,5.3347 1.7733,0.8333 4.3346,1.2533 7.6743,1.2533 l 7.414,0 c 3.485,0 5.832,-0.236 7.056,-0.7173 1.214,-0.4747 2.246,-1.552 3.08,-3.2267 l 3.446,0 -3.446,11.56533 c -0.803,3.172 -2.676,5.28134 -5.619,6.344003 C 110.253,0.696 106.493,1.22267 101.931,1.22267 L 96.128,1.13067 84.6867,0.956 C 77.7,0.772 72.892,-0.153333 70.2707,-1.82667 66.3573,-4.08933 64.4013,-8.14 64.4013,-13.964 c 0,-4.3573 0.4347,-8.8973 1.3067,-13.6133 0.8707,-4.724 2.0787,-9.4174 3.608,-14.0867 1.536,-4.6787 3.2787,-9.1653 5.2347,-13.468 3.0346,-6.444 7.048,-10.4787 12.0306,-12.092 3.104,-1.0467 7.6054,-1.5667 13.4987,-1.5667 z"
         inkscape:connector-curvature="0"
         style="fill:#004b84" />
      <path
         id="dp_path017"
         d="m 175.969,-69.708 c -9.004,0 -15.95,0.8173 -20.858,2.4613 -4.899,1.6427 -8.874,4.5174 -11.908,8.6374 -3.455,4.2106 -6.383,10.3866 -8.791,18.5266 -1.467,4.12 -2.652,8.3854 -3.561,12.8027 -0.91,4.4187 -1.36,8.0573 -1.36,10.9227 0,7.24663 3.072,12.1453 9.209,14.67597 4.189,1.7346633 10.945,2.598663 20.263,2.598663 4.709,0 8.852,-0.237333 12.429,-0.718666 3.576,-0.473334 6.833,-1.192 9.76,-2.147997 2.652,-1.016 5.021,-2.37734 7.093,-4.096 2.079,-1.71334 3.959,-3.91467 5.656,-6.59737 1.69,-2.6906 3.34,-6.0613 4.946,-10.12 2.76,-7.368 4.761,-14.484 6.022,-21.348 0.344,-4.028 0.52,-6.4426 0.52,-7.2453 0,-6.8333 -2.246,-11.7253 -6.749,-14.684 -2.269,-1.3147 -5.167,-2.2547 -8.691,-2.82 -3.492,-0.5653 -8.148,-0.848 -13.98,-0.848 z m -3.186,14.5987 c 4.601,0 6.909,2.224 6.909,6.6653 0,4.0893 -1.696,10.9373 -5.083,20.5533 -1.742,5.312 -3.577,9.0414 -5.496,11.1894 -1.918,2.148 -4.341,3.2186 -7.276,3.2186 -4.326,0 -6.489,-2.0866 -6.489,-6.268 0,-2.056 0.473,-5.0213 1.413,-8.904 0.979,-3.8533 2.355,-8.24 4.136,-13.1626 1.008,-2.9507 1.888,-5.228 2.614,-6.8254 0.734,-1.5973 1.873,-3.0733 3.409,-4.4333 1.529,-1.3533 3.485,-2.0333 5.863,-2.0333 z"
         inkscape:connector-curvature="0"
         style="fill:#004b84" />
      <path
         id="dp_path018"
         d="M 254.588,-54.9787 242.176,-7.796 c -0.207,0.74933 -0.313,1.39067 -0.313,1.92533 0,1.79734 1.314,2.912 3.928,3.364 L 245.271,0 220.82,0 c -3.493,0 -5.236,-1.192 -5.236,-3.58533 0,-0.65734 0.176,-1.58134 0.52,-2.78134 l 13.093,-48.61203 -6.757,0 c -2.476,0 -4.143,0.1907 -4.999,0.58 -0.856,0.3907 -1.704,1.3307 -2.537,2.8214 l -3.508,0 3.088,-11.8934 c 0.42,-1.636 0.887,-2.8133 1.413,-3.532 0.52,-0.7186 1.276,-1.192 2.255,-1.4293 0.971,-0.2373 2.477,-0.3587 4.503,-0.3587 l 43.712,0 c 1.392,0 2.461,-0.092 3.196,-0.268 0.725,-0.1826 1.321,-0.4973 1.78,-0.94 0.45,-0.4506 0.97,-1.1853 1.566,-2.1933 l 3.456,0 -2.981,11.7093 c -0.635,2.476 -1.337,4.0134 -2.125,4.6094 -0.787,0.596 -2.4,0.8946 -4.839,0.8946 z"
         inkscape:connector-curvature="0"
         style="fill:#004b84" />
      <path
         id="dp_path019"
         d="M 322.581,-54.9787 310.169,-7.796 c -0.206,0.74933 -0.313,1.39067 -0.313,1.92533 0,1.79734 1.315,2.912 3.928,3.364 L 313.264,0 288.813,0 c -3.493,0 -5.236,-1.192 -5.236,-3.58533 0,-0.65734 0.176,-1.58134 0.52,-2.78134 l 13.094,-48.61203 -6.758,0 c -2.476,0 -4.142,0.1907 -4.998,0.58 -0.856,0.3907 -1.704,1.3307 -2.538,2.8214 l -3.508,0 3.088,-11.8934 c 0.42,-1.636 0.887,-2.8133 1.414,-3.532 0.52,-0.7186 1.276,-1.192 2.254,-1.4293 0.971,-0.2373 2.478,-0.3587 4.503,-0.3587 l 43.712,0 c 1.392,0 2.461,-0.092 3.196,-0.268 0.725,-0.1826 1.321,-0.4973 1.78,-0.94 0.451,-0.4506 0.971,-1.1853 1.567,-2.1933 l 3.456,0 -2.982,11.7093 c -0.634,2.476 -1.337,4.0134 -2.125,4.6094 -0.787,0.596 -2.4,0.8946 -4.839,0.8946 z"
         inkscape:connector-curvature="0"
         style="fill:#004b84" />
      <path
         id="dp_path020"
         d="m 362.432,-7.796 c -0.275,1.108 -0.412,1.84133 -0.412,2.19333 0,1.43734 1.131,2.46934 3.401,3.096 L 364.74,0 341.925,0 c -3.7,0 -5.549,-1.22267 -5.549,-3.66933 0,-0.87067 0.205,-1.94134 0.627,-3.22534 L 350.5,-58.7173 c 0.459,-1.4294 0.688,-2.6214 0.688,-3.5774 0,-2.1546 -1.192,-3.4693 -3.561,-3.944 l 0.733,-2.552 22.603,0 c 4.149,0 6.229,1.284 6.229,3.852 0,0.7187 -0.139,1.444 -0.421,2.1934 z"
         inkscape:connector-curvature="0"
         style="fill:#004b84" />
      <path
         id="dp_path021"
         d="m 436.272,-68.7907 -29.472,0 c -3.876,0 -6.635,0.152 -8.271,0.4507 -1.644,0.2987 -3.248,0.9707 -4.816,2.0107 -3.805,2.3613 -6.649,5.9773 -8.537,10.8373 -1.888,4.8693 -2.828,9.7227 -2.828,14.5613 0,4.6547 3.508,8.24 10.525,10.7467 l 6.543,2.6373 c 3.493,1.4667 5.732,2.5907 6.727,3.3854 0.993,0.788 1.489,1.812 1.489,3.0653 0,2.7213 -1.024,4.556 -3.088,5.5107 -2.056,0.956 -4.8,1.4293 -8.216,1.4293 l -10.839,0 c -2.056,0 -3.645,-0.1147 -4.761,-0.3507 -1.085,-0.2453 -1.851,-0.6426 -2.309,-1.216 -0.412,-0.5653 -0.68,-1.4133 -0.779,-2.5533 l -2.936,0 -2.98,11.74133 c -0.283,1.42934 -0.421,2.41467 -0.421,2.95734 0,1.82 0.841,2.98133 2.514,3.49333 1.675,0.565333 3.77,0.848 6.284,0.848 l 23.298,0 c 3.309,0 5.816,-0.114667 7.513,-0.336 1.689,-0.221333 3.477,-0.68 5.365,-1.368 2.3,-0.98667 4.395,-2.43067 6.275,-4.34133 1.927,-1.94134 3.356,-4.15067 4.296,-6.62667 1.116,-2.7213 2.109,-5.8253 2.989,-9.3173 0.871,-3.4934 1.307,-6.184 1.307,-8.064 0,-4.7774 -3.479,-8.492 -10.419,-11.152 l -8.17,-3.4934 c -1.95,-0.8333 -3.295,-1.46 -4.028,-1.88 -0.772,-0.4506 -1.292,-0.9253 -1.575,-1.4373 -0.244,-0.4733 -0.367,-1.1773 -0.367,-2.1013 0,-2.5387 0.948,-4.196 2.828,-4.968 1.888,-0.78 4.472,-1.1707 7.751,-1.1707 l 10.104,0 c 2.164,0 3.715,-0.2973 4.656,-0.8933 0.947,-0.596 1.681,-1.7054 2.201,-3.3094 z"
         inkscape:connector-curvature="0"
         style="fill:#004b84" />
      <path
         id="dp_path022"
         d="m 481.42,-31.3387 -14.485,0 -6.75,25.19337 c 0,1.58933 1.255,2.79733 3.762,3.63866 L 463.06,0 438.945,0 c -2.821,0 -4.234,-1.22267 -4.234,-3.66933 0,-1.016 0.137,-1.972 0.42,-2.86534 l 13.705,-52.18263 c 0.451,-1.5507 0.68,-2.8054 0.68,-3.76 0,-2.0334 -1.116,-3.2867 -3.348,-3.7614 l 0.52,-2.552 23.908,0 c 3.279,0 4.915,1.2534 4.915,3.76 0,0.3907 -0.068,0.9707 -0.214,1.7427 l -5.121,19.5133 14.439,0 4.861,-18.6186 c 0,-2.0867 -1.185,-3.3707 -3.555,-3.8454 l 1.047,-2.552 23.115,0 c 3.661,0 5.494,1.2534 5.494,3.76 0,0.8414 -0.137,1.6587 -0.42,2.4614 l -14.43,54.7733 c -0.244,0.62667 -0.367,1.268 -0.367,1.92533 0,1.736 1.215,2.852 3.661,3.364 L 503.127,0 479.799,0 c -2.026,0 -3.432,-0.298667 -4.235,-0.894667 -0.803,-0.604003 -1.207,-1.497333 -1.207,-2.690663 0,-0.80934 0.175,-1.85734 0.527,-3.14134 z"
         inkscape:connector-curvature="0"
         style="fill:#004b84" />
    </g>
    <g
       id="dp_dp023"
       transform="translate(-720.661,880.166)">
      <path
         id="dp_path024"
         d="m 53.948,-30.368 5.4947,12.276 c 0.8026,1.6133 1.5066,2.6373 2.1173,3.088 0.612,0.4507 1.6813,0.672 3.2187,0.672 l 2.9266,0 -2.9266,9.80667 C 64.3573,-2.82 63.724,-1.644 62.8667,-0.986667 62.0107,-0.329333 60.628,0 58.7093,0 l -13.392,0 c -1.36,0 -2.3533,-0.190667 -2.988,-0.581333 -0.4506,-0.244 -0.8106,-0.603997 -1.0706,-1.099997 C 41,-2.17067 40.7707,-2.69067 40.5787,-3.22533 40.388,-3.76 40.2427,-4.22667 40.136,-4.616 l -9.2107,-25.752 -2.4533,0 -5.7027,22.572 c -0.2133,0.74933 -0.3133,1.39067 -0.3133,1.92533 0,1.736 1.2533,2.852 3.7613,3.364 L 25.384,0 1.26133,0 c -3.03466,0 -4.548,-1.22267 -4.548,-3.66933 0,-0.80934 0.13734,-1.57467 0.42,-2.28534 L 11.5187,-62.3013 c 0,-2.156 -1.2227,-3.4627 -3.66137,-3.944 l 0.68,-2.5454 49.07067,0 c 5.404,0 9.2267,0.7027 11.4587,2.1014 2.72,1.964 4.0813,5.2053 4.0813,9.7146 0,3.8534 -0.696,7.7054 -2.0947,11.5574 -1.3906,3.852 -3.524,7.1693 -6.3826,9.944 -2.896,2.744 -6.4654,4.448 -10.7227,5.1053 z m -18.7267,-25.3293 -3.4546,13.8653 5.908,0 c 3.248,0 5.916,-0.88 8.0106,-2.6453 2.0867,-1.7654 3.1334,-4.0734 3.1334,-6.9174 0,-1.5213 -0.6187,-2.6213 -1.8574,-3.2946 -1.2386,-0.672 -2.7586,-1.008 -4.5786,-1.008 z"
         inkscape:connector-curvature="0"
         style="fill:#004b84" />
      <path
         id="dp_path025"
         d="m 127.604,-58.7093 c 0.352,-1.3454 0.52,-2.5374 0.52,-3.5854 0,-2.1773 -1.216,-3.492 -3.661,-3.944 l 0.68,-2.552 23.756,0 c 3.524,0 5.281,1.284 5.281,3.852 l -12.252,46.488 C 139.52,-8.744 133.551,-2.77467 124.02,-0.534667 117.66,0.688 111.377,1.3 105.163,1.3 98.184,1.3 92.016,0.497333 86.6813,-1.116 79.8707,-3.11067 76.416,-7.276 76.3093,-13.62 c 0,-1.9187 0.244,-3.7533 0.7334,-5.5187 l 10.54,-39.5706 c 0.528,-1.9414 0.788,-3.164 0.788,-3.676 0,-2.0867 -1.2227,-3.3707 -3.6694,-3.8534 l 0.7334,-2.552 24.1613,0 c 3.073,0 4.617,1.3454 4.617,4.036 0,0.8627 -0.038,1.536 -0.108,2.0174 l -10.524,39.1653 c -0.802,2.5067 -1.208,4.3493 -1.208,5.5107 0,2.9573 1.835,4.4413 5.496,4.4413 2.828,0 4.938,-0.5133 6.336,-1.5293 1.391,-1.016 2.492,-2.836 3.295,-5.4654 z"
         inkscape:connector-curvature="0"
         style="fill:#004b84" />
      <path
         id="dp_path026"
         d="m 225.821,-68.7907 -2.254,8.668 c -0.352,1.9414 -1.018,3.2787 -1.988,4.028 -0.978,0.7414 -2.636,1.116 -4.976,1.116 l -15.554,0 -4.089,0 c -3.104,0.0294 -5.343,0.5347 -6.704,1.52 -1.36,0.9867 -2.545,2.9587 -3.561,5.916 -1.712,4.6934 -2.974,8.2254 -3.799,10.5867 -0.819,2.3613 -1.56,5.0213 -2.224,7.98 -0.665,2.9573 -0.995,5.8547 -0.995,8.6973 0,1.7894 0.872,3.2867 2.623,4.48 1.712,1.1694 3.637,1.7507 5.771,1.7507 2.445,0 4.386,-0.704 5.816,-2.1107 0.772,-0.772 1.597,-2.6133 2.469,-5.5106 l 2.361,-9.4627 -2.789,0 c -2.003,0 -3.44,-0.3813 -4.319,-1.1387 -0.878,-0.764 -1.314,-2.1706 -1.314,-4.2266 l 2.041,-7.0707 24.473,0 c 1.888,0 3.356,0.3293 4.403,0.9867 1.085,0.688 1.621,1.636 1.621,2.8586 0,0.7787 -0.153,1.4747 -0.466,2.1014 l -7.591,28.3493 c -0.596,2.148 -1.153,3.82267 -1.673,5.01467 -0.566,1.16933 -1.216,2.056 -1.964,2.668 -0.75,0.610663 -1.827,1.138663 -3.219,1.58933 -4.089,0.833333 -9.164,1.24533 -15.241,1.24533 -1.184,0 -4.012,-0.05333 -8.476,-0.17466 C 179.739,0.948 176.735,0.894667 175.199,0.894667 170.1,0.833333 166.203,0.473333 163.496,-0.184 c -2.705,-0.657333 -4.837,-1.73467 -6.412,-3.22533 -2.721,-2.69067 -4.081,-6.74937 -4.081,-12.18267 0,-4.8307 1.726,-12.9413 5.181,-24.3147 0.596,-2.0026 1.483,-4.8986 2.668,-8.6906 1.223,-3.7907 2.591,-6.9787 4.112,-9.5614 1.521,-2.584 3.577,-4.7933 6.176,-6.6266 2.599,-1.8347 5.817,-2.9894 9.661,-3.4707 2.095,-0.3587 5.878,-0.5347 11.359,-0.5347 z"
         inkscape:connector-curvature="0"
         style="fill:#004b84" />
      <path
         id="dp_path027"
         d="m 284.743,-39.272 c 5.801,0.7187 8.697,4.12 8.697,10.212 0,3.256 -1.032,7.8653 -3.088,13.8347 -1.253,3.6146 -2.652,6.49597 -4.188,8.64397 C 284.628,-4.464 282.8,-2.82 280.668,-1.65867 279.415,-0.94 278.123,-0.481333 276.8,-0.290667 275.471,-0.1 272.94,0 269.211,0 l -41.504,0 c -2.79,0 -4.188,-1.07067 -4.188,-3.21733 0,-0.84134 0.106,-1.68934 0.313,-2.55334 L 238.384,-61.4 c 0.031,-0.244 0.055,-0.588 0.055,-1.032 0,-2.1547 -1.194,-3.424 -3.563,-3.8067 l 0.68,-2.552 44.485,0 c 11.06,0 16.587,3.4467 16.587,10.3494 0,4.3253 -0.956,8.3306 -2.875,12.008 -1.925,3.668 -4.922,6.06 -9.01,7.1613 z m -22.411,-16.2347 -3.035,11.9387 5.702,0 c 3.004,0 5.289,-0.7187 6.856,-2.1547 1.605,-1.4373 2.408,-3.5013 2.408,-6.192 0,-1.3146 -0.382,-2.2466 -1.154,-2.7813 -0.765,-0.536 -2.041,-0.8107 -3.822,-0.8107 z m -6.215,23.848 -4.601,17.5187 7.368,0 c 3.593,0 6.223,-1.3 7.896,-3.9133 1.673,-2.6147 2.507,-5.7174 2.507,-9.3027 0,-1.612 -0.49,-2.728 -1.46,-3.356 -0.978,-0.6333 -2.736,-0.9467 -5.282,-0.9467 z"
         inkscape:connector-curvature="0"
         style="fill:#004b84" />
      <path
         id="dp_path028"
         d="m 342.76,-26.7827 -4.923,18.9867 c -0.206,0.65733 -0.313,1.29867 -0.313,1.92533 0,1.736 1.192,2.852 3.563,3.364 L 340.2,0 317.063,0 c -3.807,0 -5.703,-0.956 -5.703,-2.86667 0,-0.328 0.26,-1.55066 0.78,-3.668 L 317.583,-26.7827 307.432,-59.52 c -0.803,-2.3307 -1.704,-3.9667 -2.699,-4.9067 -0.993,-0.94 -2.498,-1.544 -4.524,-1.812 l 0.68,-2.552 22.09,0 c 1.986,0 3.37,0.244 4.158,0.7414 0.787,0.4893 1.383,1.528 1.803,3.1106 l 5.916,21.18 11.565,-17.06 c 0.948,-1.376 1.414,-2.5066 1.414,-3.4013 0,-1.2 -0.818,-1.8733 -2.462,-2.0187 l 0.635,-2.552 21.563,0 c 2.682,0 4.028,0.7027 4.028,2.1014 0,0.5426 -0.283,1.2386 -0.842,2.1093 z"
         inkscape:connector-curvature="0"
         style="fill:#004b84" />
    </g>
  </g>
</svg>
