<?xml version="1.0" encoding="UTF-8" standalone="no"?>
<!-- Created with Inkscape (http://www.inkscape.org/) -->

<svg
   xmlns:dc="http://purl.org/dc/elements/1.1/"
   xmlns:cc="http://creativecommons.org/ns#"
   xmlns:rdf="http://www.w3.org/1999/02/22-rdf-syntax-ns#"
   xmlns:svg="http://www.w3.org/2000/svg"
   xmlns="http://www.w3.org/2000/svg"
   xmlns:sodipodi="http://sodipodi.sourceforge.net/DTD/sodipodi-0.dtd"
   xmlns:inkscape="http://www.inkscape.org/namespaces/inkscape"
   width="57.5"
   height="78.5"
   viewBox="0 0 57.500001 78.500001"
   id="svg3845"
   version="1.1"
   inkscape:version="0.91 r13725"
   sodipodi:docname="irish rugby.svg">
  <defs
     id="defs3847" />
  <sodipodi:namedview
     id="base"
     pagecolor="#ffffff"
     bordercolor="#666666"
     borderopacity="1.0"
     inkscape:pageopacity="0.0"
     inkscape:pageshadow="2"
     inkscape:zoom="6.9488873"
     inkscape:cx="28.75"
     inkscape:cy="39.249994"
     inkscape:document-units="px"
     inkscape:current-layer="layer1"
     showgrid="false"
     units="px"
     inkscape:window-width="1280"
     inkscape:window-height="744"
     inkscape:window-x="-4"
     inkscape:window-y="-4"
     inkscape:window-maximized="1" />
  <metadata
     id="metadata3850">
    <rdf:RDF>
      <cc:Work
         rdf:about="">
        <dc:format>image/svg+xml</dc:format>
        <dc:type
           rdf:resource="http://purl.org/dc/dcmitype/StillImage" />
        <dc:title></dc:title>
      </cc:Work>
    </rdf:RDF>
  </metadata>
  <g
     inkscape:label="Layer 1"
     inkscape:groupmode="layer"
     id="layer1"
     transform="translate(0,-973.86209)">
    <g
       id="g3603"
       transform="matrix(1.25,0,0,-1.25,56.555606,1001.7604)">
      <path
         d="M 0,0 C -0.693,0.996 -1.631,1.324 -1.867,1.661 -2.101,1.997 -2.079,2.991 -2.77,3.989 -4.08,5.872 -5.265,5.212 -6.263,4.519 -7.321,3.784 -8.275,2.22 -8.798,0.8 -9.047,0.148 -9.072,-0.179 -9.196,-0.166 c -0.084,0.009 -0.116,0.105 -0.141,0.405 -0.005,0.173 -0.016,0.348 -0.03,0.527 0,0.007 -0.002,0.014 -0.002,0.023 -0.116,1.331 -0.471,2.736 -1.08,3.612 -0.694,0.996 -1.574,2.028 -3.459,0.722 -0.996,-0.695 -1.321,-1.632 -1.66,-1.866 -0.008,-0.007 -0.019,-0.012 -0.03,-0.017 -0.153,0.11 -0.305,0.217 -0.455,0.317 -2.013,1.348 -3.723,1.862 -3.797,1.885 -1.044,0.314 -2.013,0.519 -2.902,0.65 -0.139,0.708 -0.26,1.544 -0.26,2.277 -0.004,0.411 0.039,0.78 0.126,1.078 0.09,0.256 0.156,0.277 0.289,0.127 0.097,-0.129 0.213,-0.296 0.293,-0.443 0.777,-1.433 3.336,-3.46 5.387,-3.673 1.205,-0.125 2.561,-0.132 2.797,2.149 0.129,1.207 -0.371,2.069 -0.328,2.477 0.041,0.407 0.706,1.146 0.833,2.353 l 0,0.002 0.004,0.003 c 0.237,2.28 -1.093,2.553 -2.299,2.678 -0.52,0.053 -1.116,-0.008 -1.73,-0.145 -0.007,0 -0.011,-0.002 -0.016,-0.002 -0.114,-0.026 -0.228,-0.057 -0.343,-0.087 -0.025,-0.006 -0.05,-0.013 -0.074,-0.02 -0.083,-0.023 -0.165,-0.046 -0.247,-0.073 -0.039,-0.012 -0.077,-0.023 -0.114,-0.036 -0.088,-0.027 -0.175,-0.055 -0.261,-0.087 -0.068,-0.022 -0.13,-0.047 -0.196,-0.07 -0.025,-0.009 -0.048,-0.018 -0.072,-0.027 -0.226,-0.087 -0.448,-0.178 -0.662,-0.278 l 0,0.002 c -0.68,-0.313 -0.894,-0.427 -0.962,-0.327 -0.034,0.05 0.016,0.116 0.122,0.227 0.185,0.175 0.374,0.371 0.56,0.584 0.005,0.007 0.011,0.012 0.016,0.017 0.712,0.818 1.385,1.867 1.762,2.872 l 0.011,0.031 c 0.041,0.105 0.076,0.21 0.107,0.315 0.001,0.002 0.003,0.006 0.003,0.006 0.016,0.052 0.029,0.1 0.043,0.148 0.005,0.021 0.011,0.043 0.018,0.066 0.018,0.075 0.036,0.148 0.05,0.221 0.007,0.029 0.012,0.054 0.018,0.082 0.007,0.042 0.014,0.081 0.021,0.122 0.004,0.032 0.009,0.064 0.013,0.096 0.003,0.031 0.009,0.061 0.012,0.089 0.127,1.207 0.131,2.562 -2.151,2.799 -1.206,0.125 -2.067,-0.373 -2.477,-0.33 -0.407,0.041 -1.144,0.707 -2.353,0.833 -2.282,0.236 -2.555,-1.094 -2.681,-2.299 -0.003,-0.028 -0.003,-0.057 -0.005,-0.085 -0.003,-0.063 -0.009,-0.129 -0.011,-0.193 -0.001,-0.046 -0.001,-0.096 0,-0.143 0,-0.052 0.002,-0.103 0.002,-0.155 0.002,-0.052 0.006,-0.104 0.009,-0.157 0.004,-0.048 0.009,-0.1 0.013,-0.15 0.012,-0.107 0.025,-0.216 0.043,-0.328 0.005,-0.036 0.01,-0.072 0.016,-0.109 0.012,-0.07 0.025,-0.138 0.039,-0.207 0.007,-0.034 0.014,-0.07 0.021,-0.104 0.017,-0.075 0.032,-0.15 0.05,-0.223 0.006,-0.021 0.013,-0.043 0.018,-0.064 0.22,-0.869 0.589,-1.756 1.012,-2.504 0.036,-0.063 0.068,-0.122 0.1,-0.179 l 0.002,0 c 0.253,-0.43 0.409,-0.609 0.332,-0.682 -0.061,-0.057 -0.154,-0.018 -0.396,0.156 -0.007,0.005 -0.015,0.01 -0.02,0.016 -0.13,0.101 -0.264,0.203 -0.402,0.305 -10e-4,0 -0.005,0.004 -0.009,0.007 -0.003,0.002 -0.007,0.004 -0.008,0.007 l -0.002,0 c -0.005,0.004 -0.009,0.006 -0.014,0.009 -1.08,0.78 -2.373,1.421 -3.433,1.533 -1.206,0.124 -2.561,0.131 -2.802,-2.152 -0.125,-1.205 0.373,-2.065 0.33,-2.474 -0.039,-0.407 -0.707,-1.148 -0.832,-2.354 -0.124,-1.214 0.191,-1.86 0.696,-2.217 0.447,-0.318 1.041,-0.409 1.609,-0.47 l 0.005,0.004 c 2.087,-0.209 5.285,1.128 6.169,2.195 0.344,0.416 0.478,0.586 0.612,0.586 0.262,0 0.218,-0.321 0.218,-0.541 0,-0.787 0.101,-1.947 0.207,-2.956 -0.447,0.036 -0.868,0.052 -1.264,0.052 -2.31,0 -3.718,-0.518 -4.018,-0.641 -0.157,-0.055 -0.76,-0.271 -1.472,-0.596 -0.074,0.004 -0.136,0.013 -0.19,0.03 -0.389,0.129 -0.967,0.939 -2.116,1.323 -2.176,0.726 -2.731,-0.512 -3.115,-1.664 -0.345,-1.028 -0.282,-2.49 -0.002,-3.803 l -0.002,0 c 0.159,-0.73 0.224,-0.967 0.109,-1.01 -0.052,-0.022 -0.109,0.041 -0.193,0.167 -0.13,0.222 -0.282,0.447 -0.448,0.675 -0.005,0.007 -0.008,0.013 -0.014,0.02 l 0,-0.002 c -0.903,1.226 -2.268,2.477 -3.504,2.888 -1.153,0.386 -2.473,0.684 -3.2,-1.49 -0.384,-1.152 -0.085,-2.1 -0.214,-2.488 -0.13,-0.391 -0.939,-0.968 -1.323,-2.119 -0.724,-2.176 0.513,-2.731 1.664,-3.115 1.223,-0.409 3.04,-0.237 4.489,0.193 0.678,0.191 0.957,0.369 1.021,0.261 0.043,-0.072 -0.016,-0.156 -0.239,-0.354 -0.139,-0.111 -0.277,-0.227 -0.413,-0.348 -0.003,-0.003 -0.005,-0.007 -0.01,-0.009 -0.998,-0.889 -1.91,-2.015 -2.247,-3.027 -0.386,-1.153 -0.684,-2.476 1.492,-3.202 1.149,-0.382 2.097,-0.082 2.488,-0.212 0.389,-0.131 0.967,-0.941 2.118,-1.325 2.174,-0.726 2.73,0.512 3.115,1.664 0.587,1.761 -0.027,4.758 -0.882,6.109 1.212,-0.994 1.537,-1.21 2.139,-1.585 0.101,-0.062 1.708,-1.085 1.708,-1.085 0,0 9.117,-6.545 1.963,-17.975 -0.011,-0.018 -0.021,-0.036 -0.034,-0.054 -0.014,-0.034 -0.018,-0.066 -0.003,-0.091 0.012,-0.027 0.044,-0.043 0.083,-0.048 l 7.693,0 c 0,0 0.118,0.009 0.082,0.144 -0.032,0.134 -3.41,12.705 1.917,15.366 2.387,0.423 3.749,1.478 4.02,1.709 0.65,0.487 1.094,0.972 1.383,1.454 0.005,0.009 0.009,0.018 0.014,0.025 -0.107,-1.606 0.229,-3.743 1.061,-4.94 0.692,-0.996 1.574,-2.026 3.455,-0.72 1,0.693 1.325,1.634 1.66,1.866 0.339,0.235 1.333,0.212 2.329,0.904 1.885,1.311 1.225,2.496 0.532,3.492 -0.619,0.89 -1.827,1.717 -3.047,2.279 -0.012,0.004 -0.023,0.011 -0.033,0.014 -0.009,0.006 -0.017,0.009 -0.025,0.013 -0.634,0.289 -0.848,0.376 -0.816,0.489 0.014,0.057 0.1,0.064 0.255,0.053 0.252,-0.025 0.521,-0.041 0.8,-0.043 l 0.028,0 c 1.521,-0.01 3.34,0.338 4.409,1.08 1,0.691 2.029,1.573 0.721,3.456 m -22.793,-22.568 c -0.15,-0.245 -0.164,-0.314 -0.218,-0.3 -0.043,0.009 -0.003,0.071 0.034,0.3 -0.112,-0.705 1.589,8.405 -2.159,12.425 0,0 -0.113,0.169 0.109,0.135 0.039,-0.005 0.09,-0.034 0.153,-0.055 1.605,-0.58 3.152,-0.873 3.231,-0.889 0,0 0.642,-0.434 0.692,-2.66 0.118,-5.213 -1.315,-8.098 -1.842,-8.956 m 8.598,14.343 c -1.348,-0.896 -3.291,-1.633 -6.329,-1.312 -3.183,0.339 -7.031,1.585 -10.763,4.854 -0.743,0.651 -2.056,2.541 -1.416,4.781 0.217,0.757 1.482,1.085 2.428,1.114 2.088,0.062 3.752,-0.238 5.283,-0.614 0.014,-0.289 0.084,-0.537 0.082,-0.73 0,-0.018 0,-0.032 -0.002,-0.05 l 0,-0.022 0,-0.001 0.002,-0.004 0,-0.005 0,-0.002 c 0.011,-0.121 0.102,-0.223 0.225,-0.241 l 0.006,-0.002 10e-4,0 c 0,0 0.002,-0.002 0.004,-0.002 l 0.005,0 0.002,0 0.007,0 0,-0.001 0.007,0 0.008,0 c 0.017,0 0.03,0.001 0.042,0.003 l 0.002,0 c 0,0 0.002,0.002 0.004,0.002 l 0.001,0 0.006,0 0.002,0 0.001,0 0.006,0.002 0.002,0 0.003,0 c 0,0 0.002,0.002 0.004,0.002 l 0.005,0.001 c 0.109,0.033 0.187,0.129 0.195,0.248 l 0,0.011 c 0.007,0.182 0.064,0.377 0.137,0.584 0.004,0.012 0.011,0.027 0.018,0.039 0.298,-0.066 0.601,-0.141 0.91,-0.219 -0.011,-0.07 -0.016,-0.138 -0.016,-0.2 0.004,-0.322 0.089,-0.593 0.086,-0.802 0,-0.014 0,-0.032 -0.002,-0.05 l 0,-0.002 c -0.005,-0.148 0.111,-0.273 0.257,-0.278 l 0.011,0 c 0.143,0 0.262,0.112 0.269,0.257 0,0.009 0,0.018 0.002,0.027 0.007,0.176 0.066,0.368 0.136,0.569 0.026,0.079 0.067,0.157 0.117,0.241 0.265,-0.077 0.53,-0.157 0.798,-0.244 -0.037,-0.116 -0.051,-0.236 -0.051,-0.343 0.005,-0.32 0.089,-0.593 0.085,-0.802 l 0,-0.049 c -0.003,-0.043 0.006,-0.086 0.023,-0.125 l 0.002,0 0.002,-0.004 0.002,-0.002 0.002,-0.003 c 0,0 0,-0.004 0.001,-0.006 l 0,-0.001 c 0.02,-0.034 0.047,-0.065 0.077,-0.088 l 0.006,-0.002 0,-0.002 c 0.042,-0.028 0.092,-0.046 0.144,-0.046 l 0.009,0 c 0.043,0 0.082,0.009 0.12,0.027 l 0.005,0.003 0.003,0.004 0.002,0 0.004,0.002 0.003,0 0,0.002 0.004,10e-4 0.002,0.002 c 0.028,0.02 0.055,0.043 0.075,0.07 l 0.005,0.005 0,0.002 0.002,0.004 0.002,0.001 0.001,0.004 0.002,0.002 0.002,0.003 0,0.002 c 0.002,0.002 0.003,0.004 0.003,0.004 0.02,0.037 0.031,0.076 0.034,0.119 l 0,0.014 c 0.008,0.182 0.065,0.377 0.136,0.582 0.034,0.102 0.097,0.204 0.17,0.318 2.625,-0.93 5.222,-2.345 7.389,-4.503 0.899,-0.973 0.453,-2.31 -0.812,-3.149 m 1.746,3.174 c -0.15,-0.007 -0.429,0.117 -0.97,0.651 -2.079,2.035 -4.526,3.397 -6.918,4.305 0.047,0.065 0.086,0.159 0.084,0.261 0,0.037 -0.003,0.073 -0.011,0.103 -0.012,0.075 -0.076,0.168 -0.148,0.204 -0.046,0.025 -0.082,0.034 -0.116,0.039 -0.036,0.011 -0.075,0.011 -0.116,0.006 0,0 -0.319,-0.077 -0.359,-0.122 -0.094,-0.039 -0.191,-0.089 -0.278,-0.153 -0.243,0.08 -0.484,0.157 -0.721,0.23 0.011,0.014 0.025,0.029 0.036,0.046 0.049,0.065 0.092,0.165 0.091,0.27 0,0.037 -0.004,0.071 -0.011,0.103 -0.014,0.081 -0.082,0.17 -0.154,0.206 -0.039,0.021 -0.073,0.03 -0.103,0.035 -0.038,0.013 -0.081,0.015 -0.123,0.008 0,0 -0.322,-0.075 -0.361,-0.12 -0.141,-0.061 -0.28,-0.139 -0.4,-0.261 -0.283,0.073 -0.565,0.143 -0.842,0.206 0.025,0.019 0.054,0.042 0.089,0.069 0.043,0.036 0.095,0.077 0.143,0.145 0.05,0.062 0.093,0.162 0.093,0.269 0,0.038 -0.006,0.072 -0.013,0.104 -0.014,0.075 -0.076,0.166 -0.15,0.203 -0.043,0.022 -0.078,0.032 -0.108,0.038 -0.038,0.011 -0.079,0.014 -0.122,0.007 0,0 -0.323,-0.077 -0.36,-0.121 -0.209,-0.09 -0.417,-0.222 -0.559,-0.463 -0.007,-0.012 -0.011,-0.027 -0.018,-0.039 -2.492,0.478 -4.078,0.557 -4.964,0.559 -0.308,0 -0.462,-0.025 -0.812,-0.05 -0.175,-0.013 -0.505,-0.073 -0.68,-0.073 -0.278,0 -0.439,0.087 -0.539,0.171 -0.05,0.039 -0.126,0.093 -0.126,0.219 -0.006,0.22 0.185,0.496 0.51,0.764 0.482,0.404 1.224,0.786 1.842,1.062 0.619,0.277 1.112,0.452 1.112,0.452 l 0.005,0 0.005,0.003 c 0,0 0.07,0.031 0.218,0.081 0.443,0.153 1.546,0.462 3.215,0.462 1.23,0 2.77,-0.168 4.576,-0.694 0,0 0.373,-0.109 0.966,-0.363 1.788,-0.76 5.546,-2.827 7.013,-7.112 0,0 0.069,-0.209 0.141,-0.481 0.069,-0.273 0.137,-0.608 0.137,-0.844 0,-0.219 -0.094,-0.383 -0.194,-0.385"
         style="fill:#006946;fill-opacity:1;fill-rule:nonzero;stroke:none"
         id="path3605"
         inkscape:connector-curvature="0" />
    </g>
    <g
       id="g3607"
       transform="matrix(1.25,0,0,-1.25,12.406726,1046.7707)">
      <path
         d="m 0,0 c 0,-1.581 0.027,-2.22 0.068,-2.545 0.094,-0.696 0.26,-0.861 1.158,-0.996 0.15,-0.027 0.218,-0.148 0.218,-0.271 0,-0.109 -0.055,-0.218 -0.177,-0.218 l -3.893,0 c -0.124,0 -0.178,0.109 -0.178,0.218 0,0.123 0.068,0.244 0.218,0.271 0.953,0.135 1.088,0.314 1.144,0.996 0.027,0.325 0.068,0.951 0.068,2.557 l 0,1.893 c 0,1.592 -0.041,2.355 -0.068,2.682 -0.056,0.682 -0.123,0.845 -1.076,0.98 -0.15,0.027 -0.218,0.15 -0.218,0.273 0,0.109 0.053,0.218 0.178,0.218 l 3.661,0 C 1.226,6.058 1.28,5.949 1.28,5.84 1.28,5.717 1.212,5.594 1.064,5.567 0.162,5.432 0.162,5.281 0.068,4.587 0.027,4.26 0,3.497 0,1.933 L 0,0 Z"
         style="fill:#006946;fill-opacity:1;fill-rule:nonzero;stroke:none"
         id="path3609"
         inkscape:connector-curvature="0" />
    </g>
    <g
       id="g3611"
       transform="matrix(1.25,0,0,-1.25,20.302736,1046.3981)">
      <path
         d="m 0,0 c -0.136,0.205 -0.232,0.37 -0.232,0.462 0,0.111 0.084,0.164 0.26,0.164 1.184,0 2.437,0.668 2.437,2.315 0,1.402 -0.994,2.166 -2.613,2.166 -0.206,0 -0.573,-0.027 -0.696,-0.084 l 0,-5.158 c 0,-2.205 0.041,-2.492 0.096,-2.914 0.068,-0.49 0.216,-0.655 1.117,-0.79 0.149,-0.027 0.216,-0.148 0.216,-0.271 0,-0.109 -0.053,-0.218 -0.176,-0.218 l -3.881,0 c -0.121,0 -0.176,0.109 -0.176,0.218 0,0.123 0.067,0.244 0.217,0.271 0.953,0.135 1.089,0.314 1.145,0.996 0.026,0.324 0.067,0.951 0.067,2.557 l 0,1.948 c 0,1.592 -0.041,2.3 -0.067,2.627 -0.056,0.682 -0.124,0.844 -1.075,0.98 -0.152,0.027 -0.22,0.15 -0.22,0.273 0,0.109 0.056,0.218 0.177,0.218 l 3.663,0 C 2.124,5.76 3.95,4.996 3.95,3.036 3.95,1.403 2.586,0.503 1.376,0.3 L 3.595,-2.777 C 4.207,-3.62 4.56,-3.92 5.281,-4.287 5.351,-4.316 5.39,-4.37 5.39,-4.437 c 0,-0.15 -0.298,-0.191 -0.789,-0.191 -1.035,0 -1.647,0.176 -1.974,0.667 L 0,0 Z"
         style="fill:#006946;fill-opacity:1;fill-rule:nonzero;stroke:none"
         id="path3613"
         inkscape:connector-curvature="0" />
    </g>
    <g
       id="g3615"
       transform="matrix(1.25,0,0,-1.25,30.853486,1044.7804)">
      <path
         d="m 0,0 c 0.327,-0.041 0.614,-0.068 0.98,-0.068 1.348,0 1.824,0.04 2.027,1.117 0.029,0.149 0.152,0.217 0.274,0.217 0.109,0 0.219,-0.054 0.219,-0.177 0,-0.395 -0.084,-0.83 -0.084,-1.537 0,-0.776 0.084,-1.05 0.084,-1.337 0,-0.121 -0.11,-0.177 -0.219,-0.177 -0.122,0 -0.245,0.07 -0.274,0.22 -0.135,0.992 -0.692,1.021 -1.986,1.021 -0.382,0 -0.668,0 -1.021,-0.055 l 0,-0.857 c 0,-1.58 0.027,-2.18 0.068,-2.504 0.094,-0.696 0.571,-0.873 1.703,-0.996 0.148,-0.013 0.215,-0.148 0.215,-0.272 0,-0.109 -0.051,-0.217 -0.174,-0.217 l -4.439,0 c -0.124,0 -0.177,0.108 -0.177,0.217 0,0.124 0.07,0.245 0.218,0.272 0.951,0.135 1.089,0.314 1.142,0.996 0.029,0.324 0.07,0.91 0.07,2.516 l 0,1.989 c 0,1.592 -0.041,2.3 -0.07,2.627 -0.053,0.682 -0.121,0.844 -1.074,0.98 -0.15,0.027 -0.216,0.15 -0.216,0.273 0,0.109 0.052,0.218 0.174,0.218 l 6.496,0 c 0.298,0 0.503,-0.109 0.503,-0.397 l 0,-1.986 C 4.439,1.933 4.316,1.853 4.193,1.853 4.071,1.853 3.936,1.933 3.92,2.11 3.813,3.186 3.309,3.771 2.436,3.771 l -1.742,0 C 0.489,3.771 0.123,3.745 0,3.689 L 0,0 Z"
         style="fill:#006946;fill-opacity:1;fill-rule:nonzero;stroke:none"
         id="path3617"
         inkscape:connector-curvature="0" />
    </g>
    <g
       id="g3619"
       transform="matrix(1.25,0,0,-1.25,40.297736,1047.6718)">
      <path
         d="m 0,0 c 0,-1.773 1.144,-2.668 2.615,-2.668 1.783,0 2.777,0.883 2.777,2.163 l 0,3.186 c 0,1.592 -0.041,2.3 -0.069,2.627 C 5.269,5.99 5.199,6.152 4.248,6.288 4.098,6.315 4.03,6.438 4.03,6.561 c 0,0.109 0.054,0.218 0.177,0.218 l 3.295,0 C 7.623,6.779 7.679,6.67 7.679,6.561 7.679,6.438 7.611,6.315 7.461,6.288 6.563,6.152 6.563,6.002 6.467,5.308 6.427,4.981 6.427,4.273 6.399,2.709 L 6.358,-0.316 C 6.331,-2.452 4.766,-3.445 2.356,-3.445 c -2.029,0 -3.745,0.925 -3.745,3.375 l 0,2.751 c 0,1.592 -0.041,2.3 -0.068,2.627 -0.053,0.682 -0.122,0.844 -1.076,0.98 -0.15,0.027 -0.218,0.15 -0.218,0.273 0,0.109 0.056,0.218 0.179,0.218 l 3.661,0 C 1.212,6.779 1.266,6.67 1.266,6.561 1.266,6.438 1.2,6.315 1.048,6.288 0.15,6.152 0.15,6.002 0.054,5.308 0.013,4.981 0,4.273 0,2.709 L 0,0 Z"
         style="fill:#006946;fill-opacity:1;fill-rule:nonzero;stroke:none"
         id="path3621"
         inkscape:connector-curvature="0" />
    </g>
  </g>
</svg>
