<?xml version="1.0" encoding="UTF-8" standalone="no"?>
<!-- Created with Inkscape (http://www.inkscape.org/) -->

<svg
   xmlns:dc="http://purl.org/dc/elements/1.1/"
   xmlns:cc="http://creativecommons.org/ns#"
   xmlns:rdf="http://www.w3.org/1999/02/22-rdf-syntax-ns#"
   xmlns:svg="http://www.w3.org/2000/svg"
   xmlns="http://www.w3.org/2000/svg"
   version="1.1"
   width="300"
   height="247.06584"
   viewBox="0 0 300 247.06585"
   id="svg8521">
  <defs
     id="defs8523" />
  <metadata
     id="metadata8526">
    <rdf:RDF>
      <cc:Work
         rdf:about="">
        <dc:format>image/svg+xml</dc:format>
        <dc:type
           rdf:resource="http://purl.org/dc/dcmitype/StillImage" />
        <dc:title></dc:title>
      </cc:Work>
    </rdf:RDF>
  </metadata>
  <g
     transform="translate(-205.86697,-408.82928)"
     id="layer1">
    <g
       transform="matrix(3.3108699,0,0,3.3108699,-299.38268,-2666.1123)"
       id="g8402">
      <g
         transform="matrix(1.25,0,0,-1.25,169.87842,975.2098)"
         id="g7751"
         style="fill:#000000">
        <path
           d="m 0,0 -1.072,0 -0.99,-3.787 -1.88,3.787 -0.5,0 -1.649,-6.109 1.077,0 1.008,3.865 1.911,-3.948 0.422,0 L 0,0 Z M 4.833,0 0.9,0 l -1.652,-6.109 3.887,0 0.261,0.95 -2.77,0 0.506,1.893 2.019,0 0.249,0.911 -2.019,0 0.376,1.404 2.814,0 L 4.833,0 Z M 12.827,0 11.651,0 9.548,-3.679 9.299,0 8.827,0 6.581,-3.704 6.437,0 5.332,0 l 0.329,-6.192 0.438,0 2.303,3.728 0.341,-3.728 0.438,0 L 12.827,0 Z m 7.074,-0.347 0.03,0.347 -3.871,0 -0.256,-0.951 2.51,0 -3.722,-4.814 -0.029,-0.344 3.956,0 0.262,0.95 -2.49,0 3.61,4.812 z M 24.838,0 l -3.933,0 -1.653,-6.109 3.887,0 0.261,0.95 -2.77,0 0.507,1.893 2.018,0 0.25,0.911 -2.019,0 0.376,1.404 2.815,0 L 24.838,0 Z m 4.18,-6.109 -0.722,6.192 -0.388,0 -4.245,-6.192 1.13,0 0.824,1.241 2.186,0 0.085,-1.241 1.13,0 z m -1.266,2.055 -1.601,0 1.451,2.282 0.15,-2.282 z m 6.04,-1.105 -2.762,0 1.392,5.159 -1.092,0 -1.649,-6.109 3.854,0 0.257,0.95 z m 5.408,-0.95 -0.721,6.192 -0.388,0 -4.245,-6.192 1.129,0 0.825,1.241 2.185,0 0.085,-1.241 1.13,0 z m -1.265,2.055 -1.602,0 1.451,2.282 0.151,-2.282 z M 45.706,0 44.634,0 43.645,-3.787 41.765,0 l -0.501,0 -1.648,-6.109 1.075,0 1.009,3.865 1.912,-3.948 0.421,0 L 45.706,0 Z m 3.596,-5.099 c 0.731,0.674 1.147,1.578 1.244,2.709 0.07,0.807 -0.133,1.422 -0.605,1.847 -0.472,0.427 -1.173,0.639 -2.104,0.639 -0.358,0 -0.741,-0.035 -1.153,-0.108 l -1.64,-6.097 1.477,0 c 1.124,0 2.051,0.337 2.781,1.01 m -1.382,4.248 c 0.477,0 0.855,-0.135 1.134,-0.409 0.279,-0.271 0.4,-0.634 0.361,-1.084 -0.071,-0.823 -0.349,-1.497 -0.834,-2.023 -0.484,-0.525 -1.099,-0.786 -1.844,-0.786 -0.1,0 -0.212,0.003 -0.331,0.015 l 1.107,4.245 c 0.138,0.028 0.275,0.042 0.407,0.042"
           id="path7753"
           style="fill:#000000;fill-opacity:1;fill-rule:nonzero;stroke:none" />
      </g>
      <g
         transform="matrix(1.25,0,0,-1.25,190.07192,995.73718)"
         id="g7755"
         style="fill:#000000">
        <path
           d="m 0,0 c 0,4.39 3.45,8.012 8.855,8.012 2.531,0 4.697,-1.093 5.617,-2.224 L 11.673,2.913 c -0.766,0.71 -1.917,1.209 -3.104,1.209 -2.55,0 -4.064,-1.745 -4.064,-3.911 0,-1.668 1.207,-2.492 2.606,-2.492 0.48,0 0.863,0.077 1.169,0.211 l 0.442,1.438 -2.204,0 0.727,2.875 6.461,0 -1.917,-6.844 C 10.466,-5.387 8.569,-5.98 6.632,-5.98 3.296,-5.98 0,-4.218 0,0"
           id="path7757"
           style="fill:#000000;fill-opacity:1;fill-rule:nonzero;stroke:none" />
      </g>
      <g
         transform="matrix(1.25,0,0,-1.25,217.27529,992.66956)"
         id="g7759"
         style="fill:#000000">
        <path
           d="m 0,0 -2.07,0 0.498,1.878 1.859,0 c 0.96,0 1.381,-0.23 1.381,-0.786 C 1.668,0.518 1.15,0 0,0 m -1.188,-4.754 -2.166,0 0.536,1.992 1.936,0 c 0.959,0 1.438,-0.267 1.438,-0.842 0,-0.671 -0.652,-1.15 -1.744,-1.15 m 4.083,3.334 c 2.05,0.537 3.144,1.899 3.144,3.527 0,1.649 -0.998,3.164 -5.119,3.164 l -5.774,0 -0.168,0 -1.117,0 c 0,0 0.863,-0.853 0.598,-1.929 l -3.085,-11.488 7.303,0 c 4.601,0 6.403,1.821 6.403,4.082 0,1.379 -0.92,2.319 -2.185,2.644"
           id="path7761"
           style="fill:#000000;fill-opacity:1;fill-rule:nonzero;stroke:none" />
      </g>
      <g
         transform="matrix(1.25,0,0,-1.25,162.59454,994.05992)"
         id="g7763"
         style="fill:#000000">
        <path
           d="m 0,0 -1.63,0 0.71,2.626 1.59,0 C 1.304,2.626 1.745,2.492 1.993,2.243 2.186,2.051 2.282,1.803 2.282,1.533 2.282,0.689 1.495,0 0,0 m 6.843,2.146 c 0,1.055 -0.306,2.053 -1.054,2.8 -0.901,0.9 -2.473,1.438 -4.945,1.438 l -5.064,0 -0.17,0 -1.116,0 c 0,0 0.853,-0.844 0.603,-1.912 l -3.09,-11.506 4.486,0 1.035,3.833 1.111,0 1.496,-3.833 4.83,0 -1.859,4.466 c 2.644,0.824 3.737,2.626 3.737,4.714"
           id="path7765"
           style="fill:#000000;fill-opacity:1;fill-rule:nonzero;stroke:none" />
      </g>
      <g
         transform="matrix(1.25,0,0,-1.25,236.57642,986.08018)"
         id="g7767"
         style="fill:#000000">
        <path
           d="M 0,0 -3.487,-4.486 -4.58,0 -8.828,0 -9.295,0 -10.114,0 c 0,0 0.79,-0.081 1.404,-1.851 l 2.041,-6.45 -1.362,-5.117 4.486,0 1.227,4.562 L 5.31,0 0,0 Z"
           id="path7769"
           style="fill:#000000;fill-opacity:1;fill-rule:nonzero;stroke:none" />
      </g>
      <g
         transform="matrix(1.25,0,0,-1.25,153.45817,999.67267)"
         id="g7771"
         style="fill:#000000">
        <path
           d="M 0,0 Z"
           id="path7773"
           style="fill:#000000;fill-opacity:1;fill-rule:nonzero;stroke:none" />
      </g>
      <g
         transform="matrix(1.25,0,0,-1.25,198.36779,938.43854)"
         id="g7775"
         style="fill:#000000">
        <path
           d="m 0,0 c -0.756,-0.096 -1.502,-0.195 -2.228,-0.307 l 0.262,-8.434 9.346,-4.891 c 0.271,0.132 0.543,0.265 0.815,0.401 L 0.385,-7.917 -0.902,-8.359 0,0"
           id="path7777"
           style="fill:#000000;fill-opacity:1;fill-rule:nonzero;stroke:none" />
      </g>
      <g
         transform="matrix(1.25,0,0,-1.25,192.71717,939.32117)"
         id="g7779"
         style="fill:#000000">
        <path
           d="m 0,0 c -0.756,-0.15 -1.475,-0.316 -2.147,-0.5 l -0.1,-9.593 9.698,-4.952 c 0.362,0.169 0.733,0.344 1.112,0.524 L 0.151,-8.986 -1.188,-9.586 0,0"
           id="path7781"
           style="fill:#000000;fill-opacity:1;fill-rule:nonzero;stroke:none" />
      </g>
      <g
         transform="matrix(1.25,0,0,-1.25,195.34478,938.85842)"
         id="g7783"
         style="fill:#000000">
        <path
           d="m 0,0 c -0.659,-0.104 -1.298,-0.213 -1.916,-0.332 l -0.035,-9.024 9.618,-4.965 c 0.315,0.149 0.637,0.303 0.959,0.459 L 0.452,-8.405 -0.891,-8.878 0,0"
           id="path7785"
           style="fill:#000000;fill-opacity:1;fill-rule:nonzero;stroke:none" />
      </g>
      <g
         transform="matrix(1.25,0,0,-1.25,203.37392,937.89043)"
         id="g7787"
         style="fill:#000000">
        <path
           d="m 0,0 c -0.59,-0.06 -1.183,-0.12 -1.772,-0.184 l 0.42,-7.447 -1.288,-0.416 0.67,7.843 c -0.619,-0.067 -1.234,-0.137 -1.843,-0.212 l 0.193,-7.939 9.084,-4.677 c 0.26,0.132 0.52,0.264 0.781,0.4 l -7.555,5.002 8.558,-4.477 c 0.254,0.135 0.508,0.271 0.763,0.41 L 0.874,-6.896 -0.427,-7.338 0,0"
           id="path7789"
           style="fill:#000000;fill-opacity:1;fill-rule:nonzero;stroke:none" />
      </g>
      <g
         transform="matrix(1.25,0,0,-1.25,205.93554,937.64505)"
         id="g7791"
         style="fill:#000000">
        <path
           d="m 0,0 c -0.608,-0.058 -1.222,-0.116 -1.839,-0.178 l 0.664,-6.914 8.04,-4.304 c 0.23,0.127 0.459,0.258 0.685,0.389 L 0.756,-6.419 -0.363,-6.815 0,0"
           id="path7793"
           style="fill:#000000;fill-opacity:1;fill-rule:nonzero;stroke:none" />
      </g>
      <g
         transform="matrix(1.25,0,0,-1.25,176.3293,946.24742)"
         id="g7795"
         style="fill:#000000">
        <path
           d="m 0,0 c -1.145,-0.706 -2.083,-1.338 -2.741,-1.797 l -0.283,-11.441 c 0,0 -2.2,-1.578 -3.027,-2.276 -0.828,-0.697 -2.342,-2.122 -2.342,-2.122 l -0.899,-3.485 c 0,0 2.731,3.191 4.013,4.394 1.252,1.172 2.865,2.496 2.865,2.496 l -0.296,0.426 10.207,-4.614 c 0.164,0.159 0.562,0.541 1.134,1.063 L -0.219,-11.56 -1.6,-12.666 0,0"
           id="path7797"
           style="fill:#000000;fill-opacity:1;fill-rule:nonzero;stroke:none" />
      </g>
      <g
         transform="matrix(1.25,0,0,-1.25,179.80892,944.2283)"
         id="g7799"
         style="fill:#000000">
        <path
           d="m 0,0 c -0.912,-0.495 -1.758,-0.988 -2.521,-1.455 l -0.482,-11.72 10.349,-4.477 c 0.372,0.317 0.77,0.648 1.191,0.988 l -8.679,5.633 -1.383,-1.007 L 0,0"
           id="path7801"
           style="fill:#000000;fill-opacity:1;fill-rule:nonzero;stroke:none" />
      </g>
      <g
         transform="matrix(1.25,0,0,-1.25,208.52167,937.3948)"
         id="g7803"
         style="fill:#000000">
        <path
           d="m 0,0 c -0.614,-0.061 -1.241,-0.121 -1.876,-0.181 l 0.563,-6.438 7.668,-4.081 c 0.245,0.145 0.489,0.293 0.729,0.441 L 0.674,-5.947 -0.529,-6.373 0,0"
           id="path7805"
           style="fill:#000000;fill-opacity:1;fill-rule:nonzero;stroke:none" />
      </g>
      <g
         transform="matrix(1.25,0,0,-1.25,189.77954,940.01693)"
         id="g7807"
         style="fill:#000000">
        <path
           d="m 0,0 c -0.051,-0.014 -0.103,-0.028 -0.153,-0.043 -0.75,-0.217 -1.495,-0.47 -2.23,-0.745 l -0.241,-10.173 9.95,-4.712 c 0.378,0.185 0.778,0.377 1.198,0.579 L 0.104,-9.536 -1.331,-10.265 0,0"
           id="path7809"
           style="fill:#000000;fill-opacity:1;fill-rule:nonzero;stroke:none" />
      </g>
      <g
         transform="matrix(1.25,0,0,-1.25,186.57954,941.0863)"
         id="g7811"
         style="fill:#000000">
        <path
           d="m 0,0 c -0.876,-0.333 -1.734,-0.697 -2.565,-1.081 l -0.249,-10.646 -1.401,-0.895 1.458,11.451 C -3.615,-1.572 -4.44,-1.989 -5.224,-2.41 l -0.334,-11.135 10.066,-4.552 c 0.366,0.274 0.741,0.546 1.12,0.811 l -8.441,5.531 9.906,-4.566 c 0.394,0.244 0.788,0.473 1.18,0.683 0.023,0.012 0.049,0.027 0.073,0.038 l -8.409,5.495 -1.419,-0.812 L 0,0"
           id="path7813"
           style="fill:#000000;fill-opacity:1;fill-rule:nonzero;stroke:none" />
      </g>
      <g
         transform="matrix(1.25,0,0,-1.25,223.66267,934.14905)"
         id="g7815"
         style="fill:#000000">
        <path
           d="m 0,0 c -0.518,-0.214 -1.061,-0.422 -1.628,-0.623 l 0.015,-3.684 4.757,-1.028 c 0.266,0.4 0.517,0.801 0.754,1.2 L 0.288,-3.116 -0.642,-3.719 0,0"
           id="path7817"
           style="fill:#000000;fill-opacity:1;fill-rule:nonzero;stroke:none" />
      </g>
      <g
         transform="matrix(1.25,0,0,-1.25,221.40254,935.00842)"
         id="g7819"
         style="fill:#000000">
        <path
           d="m 0,0 c -0.553,-0.192 -1.131,-0.377 -1.731,-0.549 l -0.036,-4.09 5.496,-1.692 c 0.225,0.282 0.443,0.57 0.65,0.859 L 0.195,-3.619 -0.765,-4.124 0,0"
           id="path7821"
           style="fill:#000000;fill-opacity:1;fill-rule:nonzero;stroke:none" />
      </g>
      <g
         transform="matrix(1.25,0,0,-1.25,227.95403,932.07868)"
         id="g7823"
         style="fill:#000000">
        <path
           d="m 0,0 c -0.443,-0.247 -0.921,-0.499 -1.433,-0.75 l -0.027,-2.741 -0.925,-0.727 0.787,3.386 c -0.523,-0.253 -1.08,-0.507 -1.671,-0.754 l 0.124,-3.187 4.056,-0.239 c 0.226,0.408 0.437,0.81 0.634,1.205 l -2.949,0.346 3.314,0.413 c 0.177,0.382 0.341,0.754 0.492,1.112 L 0.151,-2.078 -0.537,-2.707 0,0"
           id="path7825"
           style="fill:#000000;fill-opacity:1;fill-rule:nonzero;stroke:none" />
      </g>
      <g
         transform="matrix(1.25,0,0,-1.25,219.04043,935.75305)"
         id="g7827"
         style="fill:#000000">
        <path
           d="m 0,0 c -0.265,-0.075 -0.534,-0.149 -0.807,-0.221 -0.317,-0.081 -0.659,-0.158 -1.022,-0.231 l -0.015,-4.493 -0.007,-0.004 6.19,-2.271 c 0.215,0.229 0.424,0.459 0.628,0.695 L 0.123,-4.043 -0.839,-4.496 0,0"
           id="path7829"
           style="fill:#000000;fill-opacity:1;fill-rule:nonzero;stroke:none" />
      </g>
      <g
         transform="matrix(1.25,0,0,-1.25,232.8918,928.74129)"
         id="g7831"
         style="fill:#000000">
        <path
           d="m 0,0 c 0,0 -0.268,-0.241 -0.786,-0.631 l -0.21,-0.999 -0.422,-0.529 0.23,1.231 C -1.46,-1.122 -1.776,-1.341 -2.136,-1.576 l -0.224,-1.691 -0.466,-0.518 0.445,2.051 c -0.417,-0.267 -0.888,-0.551 -1.407,-0.845 l -0.011,-2.169 2.574,0.936 c 0.138,0.348 0.26,0.68 0.372,0.993 l -1.329,-0.261 1.55,0.896 C -0.188,-0.852 0,0 0,0"
           id="path7833"
           style="fill:#000000;fill-opacity:1;fill-rule:nonzero;stroke:none" />
      </g>
      <g
         transform="matrix(1.25,0,0,-1.25,211.17365,937.12018)"
         id="g7835"
         style="fill:#000000">
        <path
           d="M 0,0 C -0.619,-0.069 -1.259,-0.134 -1.913,-0.199 L -1.448,-6.167 5.93,-9.87 c 0.249,0.159 0.494,0.319 0.736,0.482 L 0.622,-5.392 -0.566,-5.845 0,0"
           id="path7837"
           style="fill:#000000;fill-opacity:1;fill-rule:nonzero;stroke:none" />
      </g>
      <g
         transform="matrix(1.25,0,0,-1.25,214.26929,942.96004)"
         id="g7839"
         style="fill:#000000">
        <path
           d="M 0,0 0.003,0.001 -0.01,0.006 0,0 Z"
           id="path7841"
           style="fill:#000000;fill-opacity:1;fill-rule:nonzero;stroke:none" />
      </g>
      <g
         transform="matrix(1.25,0,0,-1.25,214.04103,936.76618)"
         id="g7843"
         style="fill:#000000">
        <path
           d="m 0,0 c -0.668,-0.094 -1.375,-0.181 -2.114,-0.265 l 0.442,-5.41 6.874,-3.428 c 0.17,0.121 0.339,0.242 0.505,0.363 0.089,0.065 0.179,0.132 0.267,0.199 L 0.183,-4.955 -0.847,-5.357 0,0"
           id="path7845"
           style="fill:#000000;fill-opacity:1;fill-rule:nonzero;stroke:none" />
      </g>
      <g
         transform="matrix(1.25,0,0,-1.25,216.72542,941.9408)"
         id="g7847"
         style="fill:#000000">
        <path
           d="M 0,0 0.001,0.001 -0.007,0.004 0,0 Z"
           id="path7849"
           style="fill:#000000;fill-opacity:1;fill-rule:nonzero;stroke:none" />
      </g>
      <g
         transform="matrix(1.25,0,0,-1.25,216.51542,936.36218)"
         id="g7851"
         style="fill:#000000">
        <path
           d="m 0,0 c -0.548,-0.105 -1.143,-0.204 -1.775,-0.295 l 0.01,-4.971 -0.028,-0.011 6.687,-2.857 c 0.227,0.196 0.448,0.397 0.664,0.602 L 0.168,-4.463 -0.829,-4.895 0,0"
           id="path7853"
           style="fill:#000000;fill-opacity:1;fill-rule:nonzero;stroke:none" />
      </g>
      <g
         transform="matrix(1.25,0,0,-1.25,185.23492,985.92143)"
         id="g7855"
         style="fill:#000000">
        <path
           d="m 0,0 c 0.083,-0.039 0.166,-0.082 0.245,-0.133 1.588,-1.022 1.736,-4.155 0.33,-6.986 -0.824,-1.661 -2.035,-2.902 -3.238,-3.402 -0.001,0.001 -0.003,0.002 -0.003,0.004 0.061,0.032 0.122,0.064 0.182,0.099 0.007,0.004 0.016,0.008 0.024,0.013 0.976,0.569 1.921,1.617 2.604,3.041 1.374,2.862 1.256,6.011 -0.263,7.023 -0.319,0.213 -0.68,0.32 -1.073,0.32 -1.163,0 -2.481,-0.933 -3.526,-2.495 l -0.06,-0.088 0.002,-10e-4 c -0.742,-1.152 -1.357,-2.899 -0.727,-4.172 0.229,-0.462 0.68,-0.653 1.204,-0.505 0.42,0.119 0.872,0.467 1.238,0.954 0.29,0.387 0.624,1.036 0.69,1.694 0.035,0.338 0.006,0.639 -0.081,0.863 -0.004,0.011 -0.008,0.024 -0.013,0.036 -0.098,0.246 -0.295,0.388 -0.541,0.388 l -0.037,-10e-4 c -0.463,-0.026 -0.951,-0.531 -1.109,-1.152 -0.092,-0.361 -0.052,-0.689 0.113,-0.901 0.038,-0.049 0.083,-0.091 0.133,-0.124 0.007,-0.004 0.014,-0.008 0.02,-0.012 0.008,-0.005 0.015,-0.009 0.023,-0.013 0.017,-0.009 0.034,-0.015 0.054,-0.02 0.235,-0.063 0.54,0.127 0.584,0.476 0.019,0.152 -0.04,0.305 -0.061,0.329 0.155,-0.185 0.187,-0.477 -0.056,-0.84 -0.36,-0.538 -0.972,-0.849 -1.31,-0.644 -0.052,0.031 -0.096,0.071 -0.132,0.122 -0.003,0.004 -0.006,0.007 -0.008,0.012 -0.013,0.015 -0.022,0.033 -0.032,0.051 -0.004,0.008 -0.009,0.015 -0.013,0.023 -0.57,1.15 0.356,2.64 0.651,3.067 0.834,1.17 1.764,1.869 2.49,1.869 0.204,0 0.388,-0.055 0.552,-0.163 1.028,-0.681 0.944,-3.158 -0.188,-5.521 -0.903,-1.888 -2.261,-3.039 -3.3,-3.039 l -0.06,10e-4 c -0.105,0 -0.197,0.011 -0.281,0.034 -0.006,0.002 -0.013,0.004 -0.02,0.007 -0.019,0.005 -0.037,0.013 -0.056,0.019 -0.141,0.055 -0.274,0.124 -0.398,0.206 -0.029,0.021 -0.058,0.042 -0.087,0.063 -0.456,0.337 -0.793,0.858 -0.997,1.5 0,0.001 -0.001,0.002 -0.001,0.004 -0.016,0.05 -0.03,0.101 -0.045,0.154 -0.079,0.308 -0.138,0.659 -0.167,1.005 -0.003,0.042 -0.006,0.085 -0.008,0.128 -0.001,0.019 -0.002,0.036 -0.003,0.054 -0.007,0.181 -0.006,0.366 0.003,0.553 10e-4,0.025 10e-4,0.047 0.003,0.071 0,0.01 10e-4,0.025 0.002,0.036 0.023,0.264 0.068,0.527 0.122,0.775 0.004,0.017 0.008,0.033 0.012,0.05 0.004,0.018 0.008,0.033 0.011,0.05 0.087,0.362 0.198,0.727 0.336,1.093 0.74,1.972 2.044,3.452 3.38,4.032 l -6.034,0 -1.838,-6.825 c -0.195,-0.743 -0.293,-1.505 -0.293,-2.208 0,-3.09 2.073,-4.928 5.924,-4.928 2.171,0 4.466,0.508 5.757,1.799 0.958,0.958 1.662,2.287 2.15,4.106 L 4.949,0 0,0 Z"
           id="path7857"
           style="fill:#000000;fill-opacity:1;fill-rule:nonzero;stroke:none" />
      </g>
    </g>
  </g>
</svg>
