<?xml version="1.0" encoding="UTF-8" standalone="no"?>
<!-- Created with Inkscape (http://www.inkscape.org/) -->

<svg
   xmlns:dc="http://purl.org/dc/elements/1.1/"
   xmlns:cc="http://creativecommons.org/ns#"
   xmlns:rdf="http://www.w3.org/1999/02/22-rdf-syntax-ns#"
   xmlns:svg="http://www.w3.org/2000/svg"
   xmlns="http://www.w3.org/2000/svg"
   xmlns:sodipodi="http://sodipodi.sourceforge.net/DTD/sodipodi-0.dtd"
   xmlns:inkscape="http://www.inkscape.org/namespaces/inkscape"
   width="93"
   height="123"
   viewBox="0 0 93.000001 123"
   id="svg4607"
   version="1.1"
   inkscape:version="0.91 r13725"
   sodipodi:docname="welsh rugby union.svg">
  <defs
     id="defs4609">
    <clipPath
       id="clipPath3368"
       clipPathUnits="userSpaceOnUse">
      <path
         inkscape:connector-curvature="0"
         id="path3370"
         d="m 1081.0759,708.7087 73.4701,0 0,97.1876 -73.4701,0 0,-97.1876 z" />
    </clipPath>
  </defs>
  <sodipodi:namedview
     id="base"
     pagecolor="#ffffff"
     bordercolor="#666666"
     borderopacity="1.0"
     inkscape:pageopacity="0.0"
     inkscape:pageshadow="2"
     inkscape:zoom="4.469662"
     inkscape:cx="46.499998"
     inkscape:cy="61.499997"
     inkscape:document-units="px"
     inkscape:current-layer="layer1"
     showgrid="false"
     units="px"
     inkscape:window-width="1280"
     inkscape:window-height="744"
     inkscape:window-x="-4"
     inkscape:window-y="-4"
     inkscape:window-maximized="1" />
  <metadata
     id="metadata4612">
    <rdf:RDF>
      <cc:Work
         rdf:about="">
        <dc:format>image/svg+xml</dc:format>
        <dc:type
           rdf:resource="http://purl.org/dc/dcmitype/StillImage" />
        <dc:title></dc:title>
      </cc:Work>
    </rdf:RDF>
  </metadata>
  <g
     inkscape:label="Layer 1"
     inkscape:groupmode="layer"
     id="layer1"
     transform="translate(0,-929.36216)">
    <g
       id="g4696"
       transform="translate(-473.50625,281.35709)">
      <path
         inkscape:connector-curvature="0"
         id="path3360"
         style="fill:#e69f0a;fill-opacity:1;fill-rule:nonzero;stroke:none"
         d="m 527.19373,723.24667 -14.375,0 -8.2625,5.55 5.6,0 2.85,-2.00012 14.0001,0 2.8499,2.00012 5.5876,0" />
      <path
         inkscape:connector-curvature="0"
         id="path3362"
         style="fill:#0a8137;fill-opacity:1;fill-rule:nonzero;stroke:none"
         d="m 487.78134,770.24792 64.44989,0 0,-7.3725 -64.44989,0 0,7.3725 z" />
      <path
         inkscape:connector-curvature="0"
         id="path3372"
         style="fill:#e69f0a;fill-opacity:1;fill-rule:nonzero;stroke:none"
         d="m 532.28131,717.38347 c 2.0125,0.68475 3.3125,2.24825 2.87487,3.4845 -0.41237,1.22375 -2.38737,1.65625 -4.41237,0.96001 -2.0125,-0.69501 -3.3125,-2.24875 -2.875,-3.47375 0.41237,-1.22588 2.3875,-1.66776 4.4125,-0.97076" />
      <path
         inkscape:connector-curvature="0"
         id="path3374"
         style="fill:#ee2922;fill-opacity:1;fill-rule:nonzero;stroke:none"
         d="m 538.99381,755.52422 c 0,0 -0.3125,3.99125 -4.42512,3.88988 -3.99988,-0.0749 -4.34988,-3.93875 -4.34988,-3.93875 l 0,-10.46863 3.3625,0 0,9.975 c 0,0 0.0875,0.93375 1.025,0.89625 0.88738,-0.0488 1.02488,-0.79625 1.02488,-0.79625 l 0,-10.075 3.36262,0" />
      <path
         inkscape:connector-curvature="0"
         id="path3376"
         style="fill:#ee2922;fill-opacity:1;fill-rule:nonzero;stroke:none"
         d="m 526.14381,730.81172 -1.175,7.53875 -1.67512,0 0,-9.49625" />
      <path
         inkscape:connector-curvature="0"
         id="path3378"
         style="fill:#e69f0a;fill-opacity:1;fill-rule:nonzero;stroke:none"
         d="m 525.33118,717.54585 -5.32499,2.66712 -5.32488,-2.66712 5.32488,-2.5745" />
      <path
         inkscape:connector-curvature="0"
         id="path3380"
         style="fill:#e69f0a;fill-opacity:1;fill-rule:nonzero;stroke:none"
         d="m 523.50631,706.91897 -2.3125,4.9725 -2.3125,0 -2.3875,-4.9725" />
      <path
         inkscape:connector-curvature="0"
         id="path3382"
         style="fill:#ee2922;fill-opacity:1;fill-rule:nonzero;stroke:none"
         d="m 521.83131,728.76422 -0.975,12.695 -1.77513,0 -0.88737,-12.695" />
      <path
         inkscape:connector-curvature="0"
         id="path3384"
         style="fill:#ee2922;fill-opacity:1;fill-rule:nonzero;stroke:none"
         d="m 523.29368,749.27172 c 0.0375,-1.91874 -1.78737,-1.51124 -1.78737,-1.51124 l 0,3.45749 c 0,0 1.7375,0.13875 1.78737,-1.94625 m -5.33737,-4.2675 5.4625,0 c 0.7375,0 3.0625,0.35625 3.16237,3.64875 0.0875,3.44875 -1.96237,4.08113 -1.96237,4.08113 l 2.74987,6.39137 -3.81237,0 -2.13763,-5.68137 0,5.68137 -3.46237,0" />
      <path
         inkscape:connector-curvature="0"
         id="path3386"
         style="fill:#ee2922;fill-opacity:1;fill-rule:nonzero;stroke:none"
         d="m 516.71868,728.85422 0,9.495 -1.68749,0 -1.14988,-7.5375" />
      <path
         inkscape:connector-curvature="0"
         id="path3388"
         style="fill:#ee2922;fill-opacity:1;fill-rule:nonzero;stroke:none"
         d="m 510.15618,751.93797 1.32513,-6.93375 3.37487,0 -3.1,14.12125 -2.48737,0 -1.8625,-7.095 -1.55,7.0975 -2.5875,0 -3.11263,-14.12625 3.45,0 1.13763,6.93625 1.3125,-6.93625 2.87487,0" />
      <path
         inkscape:connector-curvature="0"
         id="path3390"
         style="fill:#e69f0a;fill-opacity:1;fill-rule:nonzero;stroke:none"
         d="m 507.73131,717.38347 c -2,0.68475 -3.3,2.24825 -2.87512,3.4845 0.41262,1.22375 2.40012,1.65625 4.41262,0.96001 2.01238,-0.69501 3.3125,-2.24875 2.8875,-3.47375 -0.42512,-1.22588 -2.4,-1.66776 -4.425,-0.97076" />
      <path
         inkscape:connector-curvature="0"
         id="path3392"
         style="fill:#e69f0a;fill-opacity:1;fill-rule:nonzero;stroke:none"
         d="m 498.05631,713.28922 7.2375,13.7625 -1.6,1.12625 -8.925,-11.07787" />
      <path
         inkscape:connector-curvature="0"
         id="path3394"
         style="fill:#e69f0a;fill-opacity:1;fill-rule:nonzero;stroke:none"
         d="m 541.95631,713.28922 -7.25013,13.7625 1.60013,1.12625 8.925,-11.07787" />
      <path
         inkscape:connector-curvature="0"
         id="path3396"
         style="fill:#ee2922;fill-opacity:1;fill-rule:nonzero;stroke:none"
         d="m 512.78131,710.37172 -8.9625,-34.2425 -11.8875,-6.37762 -7.53762,7.36388 0,3.725 -4.01238,-4.34263 5.3375,-5.59263 -11.63762,4.78263 0,10.3925 5.51262,5.86125 5.12488,-0.025 -5.80001,-6.35625 0.925,-4.27 1.52513,2.481 5.84988,5.85887 -0.80001,-4.6235 8.4375,-8.3325 5.95,3.54988 8.85013,27.716 -11.7125,-25.58963 -1.82513,-1.22987 -4.17487,5.45837 16.95,26.05475" />
      <path
         inkscape:connector-curvature="0"
         id="path3398"
         style="fill:#ee2922;fill-opacity:1;fill-rule:nonzero;stroke:none"
         d="m 527.21869,710.37172 8.96262,-34.2425 11.9,-6.37762 7.5375,7.36388 0,3.725 4,-4.34263 -5.325,-5.59263 11.6375,4.78263 0,10.3925 -5.5125,5.86125 -5.1375,-0.025 5.8,-6.35625 -0.91262,-4.27 -1.52488,2.481 -5.85,5.85887 0.7875,-4.6235 -8.4375,-8.3325 -5.9375,3.54988 -8.86262,27.716 11.7125,-25.58963 1.82512,-1.22987 4.1875,5.45837 -16.96262,26.05475" />
      <path
         inkscape:connector-curvature="0"
         id="path3400"
         style="fill:#ee2922;fill-opacity:1;fill-rule:nonzero;stroke:none"
         d="m 529.74381,671.59422 -7.975,5.54638 -1.76263,24.32362 -1.76237,-24.32362 -7.975,-5.54638 6.3875,33.27763 6.7,0" />
      <path
         inkscape:connector-curvature="0"
         id="path3402"
         style="fill:#ee2922;fill-opacity:1;fill-rule:nonzero;stroke:none"
         d="m 520.00619,674.87122 9.65012,-6.35737 -2.175,-7.44138 5.06238,4.887 0.0375,3.61513 3.51238,-2.46338 0,-11.99762 -11.075,-6.35138 -3.66238,0 1.16238,3.44363 -2.5125,6.5265 -2.51237,-6.5265 1.1625,-3.44363 -3.6625,0 -11.07513,6.35138 0,11.99762 3.51262,2.46338 0.0375,-3.61513 5.06238,-4.887 -2.175,7.44138" />
    </g>
  </g>
</svg>
