<?xml version="1.0" encoding="UTF-8" standalone="no"?>
<!-- Created with Inkscape (http://www.inkscape.org/) -->

<svg
   xmlns:dc="http://purl.org/dc/elements/1.1/"
   xmlns:cc="http://creativecommons.org/ns#"
   xmlns:rdf="http://www.w3.org/1999/02/22-rdf-syntax-ns#"
   xmlns:svg="http://www.w3.org/2000/svg"
   xmlns="http://www.w3.org/2000/svg"
   xmlns:sodipodi="http://sodipodi.sourceforge.net/DTD/sodipodi-0.dtd"
   xmlns:inkscape="http://www.inkscape.org/namespaces/inkscape"
   id="svg2"
   version="1.1"
   inkscape:version="0.91 r13725"
   width="244.426317019"
   height="409.121248562"
   viewBox="0 0 907.01478 1518.1632"
   sodipodi:docname="Spain-Rugby-Logo.svg">
  <metadata
     id="metadata8">
    <rdf:RDF>
      <cc:Work
         rdf:about="">
        <dc:format>image/svg+xml</dc:format>
        <dc:type
           rdf:resource="http://purl.org/dc/dcmitype/StillImage" />
        <dc:title></dc:title>
      </cc:Work>
    </rdf:RDF>
  </metadata>
  <defs
     id="defs6" />
  <sodipodi:namedview
     pagecolor="#ffffff"
     bordercolor="#666666"
     borderopacity="1"
     objecttolerance="10"
     gridtolerance="10"
     guidetolerance="10"
     inkscape:pageopacity="0"
     inkscape:pageshadow="2"
     inkscape:window-width="1440"
     inkscape:window-height="757"
     id="namedview4"
     showgrid="false"
     inkscape:zoom="0.27812867"
     inkscape:cx="773.88124"
     inkscape:cy="566.99147"
     inkscape:window-x="0"
     inkscape:window-y="1"
     inkscape:window-maximized="1"
     inkscape:current-layer="svg2"
     fit-margin-top="0"
     fit-margin-left="0"
     fit-margin-right="0"
     fit-margin-bottom="0" />
  <g
     id="g4365">
    <path
       inkscape:connector-curvature="0"
       id="path4216"
       d="m 241.56379,1478.2056 c -15.2151,-21.9571 -27.73623,-39.922 -27.82474,-39.922 -0.0884,0 -0.16088,8.971 -0.16088,19.9357 l 0,19.9358 6.40518,4.9601 6.40517,4.96 -15.42007,0.1411 c -8.48103,0.078 -22.48798,0.078 -31.12648,0 l -15.7064,-0.1411 10.343,-8.1512 10.3429,-8.1511 0,-33.9635 0,-33.9635 -10.3893,-8.2095 -10.3893,-8.2095 37.14901,-0.1377 c 30.74412,-0.1139 37.9294,0 41.67549,0.6453 7.26479,1.2566 13.14468,4.0375 17.95684,8.4927 5.12801,4.7476 7.60465,10.6616 7.60465,18.1587 0,9.1166 -3.75136,16.2838 -10.92338,20.8694 -2.78477,1.7806 -11.50374,4.9526 -13.65159,4.9665 -2.99805,0.02 -2.73434,0.6298 5.18765,12.0041 4.27228,6.134 8.39071,11.8125 9.15202,12.6187 1.47777,1.565 5.83164,3.9141 6.33025,3.4156 0.16476,-0.1648 -3.26261,-5.3896 -7.61637,-11.6106 -4.35376,-6.2211 -7.99584,-11.5056 -8.09345,-11.7434 -0.0976,-0.2377 0.19357,-0.4323 0.64707,-0.4323 3.73459,0 11.93328,-5.0231 15.81825,-9.6913 5.403,-6.4924 7.15721,-11.8025 6.73449,-20.3857 -0.50649,-10.2841 -3.62494,-16.7348 -10.46136,-21.6403 l -2.88248,-2.0683 2.00727,0 c 1.7696,0 2.47611,0.4546 5.96546,3.838 6.33441,6.1421 8.18245,10.982 8.17025,21.3968 -0.0112,9.6032 -2.50444,15.6461 -9.26891,22.4661 -3.22378,3.2502 -5.26354,4.8 -8.12536,6.1737 l -3.82101,1.8342 6.2174,9.012 c 3.4196,4.9567 7.79753,10.6786 9.72876,12.7154 l 3.51135,3.7034 -2.44629,1.6689 c -9.84506,6.7166 -10.15185,22.0508 -0.87106,43.5345 0.22142,0.5125 0.19725,0.9239 -0.0538,0.9141 -0.25098,-0.01 -12.90509,-17.9828 -28.12024,-39.9398 z m -31.7463,-47.4068 c -0.36116,-1.9974 -0.46554,-4.5035 -0.24395,-5.8579 0.21301,-1.3018 0.49339,-8.7962 0.62306,-16.6542 l 0.23575,-14.2871 9.69404,0.1763 c 8.75811,0.1593 9.90454,0.2888 11.87453,1.3419 1.97803,1.0574 5.86242,4.8123 5.42777,5.247 -0.0985,0.098 -1.72167,-0.5857 -3.60715,-1.5204 -3.34627,-1.6589 -3.62872,-1.704 -11.83572,-1.8884 l -8.40765,-0.1889 0,9.9646 c 0,9.2824 0.0639,9.9381 0.93193,9.5779 4.51666,-1.8741 8.01544,-1.537 10.57074,1.0183 2.29382,2.2938 2.79872,4.9682 1.43427,7.5974 -2.16069,4.1635 -7.28439,4.9758 -10.3933,1.6477 -1.33884,-1.4332 -1.63258,-1.5444 -2.30485,-0.8721 -1.267,1.267 0.21749,5.9227 2.69855,8.4636 1.99454,2.0425 4.80151,3.6132 5.39555,3.0191 0.27808,-0.278 -0.0761,-1.5925 -1.12114,-4.1607 -0.28677,-0.7047 0.12616,-0.9355 2.20878,-1.2346 3.47998,-0.4999 6.75664,-2.1424 7.66647,-3.8429 1.18824,-2.2208 0.86089,-5.6859 -0.76982,-8.1502 -1.53343,-2.3171 -1.41403,-2.4664 1.23419,-1.5432 1.17561,0.4098 1.97324,1.1763 2.47584,2.3793 1.06059,2.5383 0.94061,7.0458 -0.24651,9.2593 -1.05569,1.9685 -4.70981,4.2652 -6.78598,4.2652 -1.56304,0 -1.88436,0.5677 -1.47634,2.608 0.31329,1.5666 0.46027,1.6523 2.83104,1.6523 5.4536,0 10.77592,-4.4286 13.43991,-11.1832 0.96255,-2.4405 1.19319,-4.3253 1.38309,-11.3041 0.29231,-10.7425 -0.57726,-14.1979 -4.7113,-18.7211 -4.96612,-5.4338 -10.93856,-7.2678 -24.16157,-7.4198 l -8.55378,-0.098 -0.14884,40.4724 -0.14889,40.4723 2.54528,2.2333 2.54523,2.2333 0.16605,-20.6056 c 0.11476,-14.2492 -0.0288,-21.6824 -0.46528,-24.0964 z m 62.93983,83.8846 c -4.41149,-6.7099 -6.49965,-13.7525 -6.52537,-22.0079 -0.0224,-7.1455 1.91658,-12.517 5.87712,-16.2825 2.4105,-2.2918 2.13843,-0.7331 -0.88235,5.0549 l -2.52739,4.8426 0.08,6.2177 c 0.10075,7.8287 1.1934,13.0104 3.83214,18.1735 1.82008,3.5614 3.1978,7.4815 2.62932,7.4815 -0.10763,0 -1.22514,-1.5659 -2.48346,-3.4798 z m 49.08854,-16.7931 c -4.5279,-0.6996 -10.32897,-2.7349 -13.82828,-4.8516 -3.3804,-2.0448 -8.16881,-6.1805 -9.78702,-8.4531 -1.08726,-1.5269 -1.08945,-1.5694 -0.0814,-1.5694 0.56981,0 2.79691,1.4748 4.94902,3.2773 7.29488,6.1098 15.65774,9.1929 24.97421,9.207 6.45172,0.01 11.47162,-1.0061 17.97292,-3.6372 l 4.39338,-1.7781 0,1.2086 c 0,0.9977 -0.67509,1.4896 -3.86985,2.8196 -8.64244,3.5978 -17.31087,4.9221 -24.72296,3.7769 z m 113.79775,-0.226 c -4.12354,-0.8282 -8.19128,-2.3262 -11.36112,-4.1839 -4.37596,-2.5645 -12.07024,-11.3321 -12.07024,-13.754 0,-1.5462 0.90408,-1.5624 1.89645,-0.034 4.40845,6.7894 11.305,12.0594 19.40479,14.8283 3.6873,1.2606 14.81118,1.4132 18.90483,0.2595 3.3137,-0.934 7.80716,-3.1556 10.80445,-5.3419 2.16211,-1.5772 2.26487,-1.7716 1.92634,-3.6447 -0.19668,-1.0883 -0.4393,-2.0722 -0.53915,-2.1865 -0.0998,-0.1143 -1.13783,0.6561 -2.30662,1.7121 -4.73354,4.2765 -10.84255,6.2174 -19.5687,6.2174 -6.72933,0 -10.55519,-0.83 -15.87779,-3.4449 -13.41567,-6.5907 -22.8427,-23.4528 -24.17008,-43.2328 -1.8735,-27.9191 10.18737,-50.5785 30.02792,-56.4149 2.84425,-0.8367 6.46237,-0.9623 32.94322,-1.1442 l 29.74805,-0.2043 -1.054,1.497 c -0.5797,0.8234 -6.15006,8.6862 -12.37856,17.4729 -6.22851,8.7868 -11.65211,16.7471 -12.05246,17.6896 -0.95599,2.2506 -0.92494,4.649 0.0709,5.4755 0.68649,0.5698 0.79994,0.3731 0.80695,-1.3992 0.0106,-2.6745 0.40661,-3.2253 2.94643,-4.098 1.90474,-0.6546 3.07165,-2.0747 12.29536,-14.9634 5.605,-7.832 10.39778,-14.2366 10.65062,-14.2323 0.25285,0.01 0.74038,0.443 1.08342,0.975 0.53877,0.8356 -0.636,2.7077 -8.62696,13.748 -7.86792,10.8704 -9.12166,12.8604 -8.38758,13.3133 2.33943,1.4434 4.94682,4.2606 5.50294,5.9456 0.3415,1.0348 0.52396,3.404 0.40548,5.2649 -0.18091,2.8409 -0.49184,3.7273 -1.93942,5.5286 l -1.72397,2.1453 11.64782,0.1434 11.64782,0.1433 -10.16649,8.0256 -10.16649,8.0255 -0.14568,8.8095 -0.14568,8.8096 1.87641,1.4312 1.8764,1.4312 0,-9.5683 c 0,-9.5035 0.009,-9.5748 1.29129,-10.5446 0.71022,-0.537 3.82552,-3.2104 6.9229,-5.941 l 5.63161,-4.9648 0,2.0833 c 0,1.9842 -0.25256,2.2961 -5.31406,6.5623 l -5.31407,4.4791 -0.0112,10.443 -0.0112,10.443 4.06441,3.4028 4.06442,3.4028 -16.10259,0.141 -16.10259,0.141 -2.7281,2.3865 c -3.51594,3.0757 -8.88205,5.8816 -13.19028,6.8971 -4.10623,0.968 -12.22775,0.9791 -16.98608,0.024 z m 18.16572,-13.4237 c 3.8826,-1.8347 6.87141,-4.5406 8.59092,-7.7779 1.0511,-1.9789 1.20599,-3.1736 1.35967,-10.4875 l 0.17344,-8.2543 -10.18964,-7.9879 -10.18962,-7.988 12.81946,-0.1426 c 7.93983,-0.088 12.81949,-0.3417 12.81949,-0.6657 0,-0.2876 -0.23625,-0.523 -0.52498,-0.523 -0.28874,0 -1.16436,-0.9662 -1.94583,-2.1471 l -1.42086,-2.147 -0.25904,-18.3952 -0.25903,-18.3952 -10.17648,0.173 c -9.92526,0.1686 -10.23631,0.208 -12.59968,1.5974 -2.79978,1.646 -4.85243,4.983 -5.77328,9.3854 -0.39013,1.8652 -0.59026,12.6303 -0.59026,31.749 0,31.4209 0.25977,35.0642 2.93116,41.1046 l 1.33335,3.0149 5.24969,-0.2528 c 4.41458,-0.2125 5.7909,-0.5085 8.65152,-1.8601 z m -19.44656,-3.754 c -1.08993,-2.9916 -1.11554,-3.8648 -1.11554,-37.9803 l 0,-34.9182 1.60313,-3.1348 c 1.75362,-3.4292 4.85647,-6.1892 8.12897,-7.2307 1.09404,-0.3483 6.46136,-0.7384 11.96851,-0.87 l 9.98496,-0.2387 0,-2.3466 0,-2.3465 -9.23048,0 c -10.64345,0 -13.97401,0.5294 -18.28591,2.9064 -3.8076,2.0991 -6.64918,5.6646 -8.29396,10.4069 -1.19164,3.4358 -1.20053,3.6883 -1.20053,34.082 0,32.7257 0.0648,33.6586 2.70605,38.9319 1.29043,2.5765 3.76265,5.8007 4.44781,5.8007 0.22137,0 -0.0995,-1.3779 -0.71301,-3.0621 z m 46.99595,-41.8361 c 3.41882,-3.1914 3.70939,-8.4558 0.63633,-11.5288 -1.62249,-1.6225 -2.06676,-1.3236 -1.45265,0.9771 1.44815,5.4255 -4.16666,9.2025 -10.03513,6.7505 -1.78916,-0.7476 -1.84675,-0.7342 -1.84675,0.4281 0,1.613 3.2011,4.6276 5.40979,5.0946 2.38604,0.5046 5.75655,-0.2915 7.28841,-1.7215 z m -314.48045,55.2994 -1.4941,-1.3145 30.72395,-0.017 30.72395,-0.017 1.49417,1.3145 1.49413,1.3145 -30.72395,0.017 -30.72395,0.017 -1.4942,-1.3145 z m 190.21704,-0.034 -1.5976,-1.3095 20.3396,0 20.33959,-0.01 1.49417,1.3144 1.49418,1.3145 -20.23618,0 -20.23617,0 -1.59759,-1.3094 z m 117.58587,0.034 -1.49415,-1.3145 14.03519,-0.017 14.0352,-0.017 1.58219,1.3313 1.58219,1.3313 -14.12323,0 -14.12323,0 -1.49416,-1.3145 z m 38.91299,0.056 -1.53239,-1.3248 37.54343,-0.2153 c 35.44785,-0.2032 37.81134,-0.276 42.34312,-1.3034 15.9491,-3.6158 25.16389,-11.5008 27.77358,-23.7659 1.69938,-7.9868 -0.13301,-15.6106 -5.74927,-23.9204 -2.13386,-3.1572 -2.02292,-3.6203 0.54874,-2.2904 8.98665,4.6472 11.79116,25.7403 4.87225,36.6449 -4.85402,7.6502 -13.923,13.147 -26.38715,15.9934 -4.53061,1.0346 -6.79175,1.1057 -41.33635,1.3005 l -36.54357,0.206 -1.53239,-1.3246 z m 145.44614,-0.056 -1.59759,-1.3096 30.88679,0 30.8868,0 1.59759,1.3096 1.59759,1.3095 -30.88679,0 -30.88679,0 -1.5976,-1.3095 z m -334.42944,-2.3894 c -23.41682,-2.6706 -37.54343,-18.7357 -37.54343,-42.6953 0,-12.8697 4.56592,-24.6114 13.25634,-34.0903 2.42025,-2.6398 3.04267,-3.6166 2.44965,-3.8441 -1.73174,-0.6646 -4.68463,0.9331 -6.46019,3.4952 -1.26875,1.8308 -1.529,1.9811 -2.22518,1.2849 -0.66332,-0.6633 -0.68042,-1.0492 -0.10773,-2.4318 1.45839,-3.5208 5.777,-5.7107 10.12469,-5.1339 2.36433,0.3136 2.70318,0.2025 4.86691,-1.5946 1.27913,-1.0624 2.44548,-2.0457 2.59193,-2.185 0.14645,-0.1393 -2.84904,-0.1732 -6.65664,-0.075 -6.50811,0.1673 -7.05848,0.2661 -9.18615,1.6491 l -2.26326,1.4711 0,-10.1248 0,-10.1247 21.91002,0 21.90998,0 -3.67079,2.714 c -9.97841,7.3776 -16.42304,15.7724 -19.31942,25.1656 -3.46966,11.2521 -4.26739,43.6804 -1.38075,56.1274 1.58284,6.825 5.56287,12.3437 10.51807,14.584 2.40337,1.0866 3.58367,1.2544 8.64143,1.2283 7.90649,-0.041 10.90389,-1.1907 15.75834,-6.0451 3.86335,-3.8634 5.52458,-7.2721 6.38222,-13.0958 0.25881,-1.7573 0.47539,-20.6289 0.4813,-41.9368 l 0.0107,-38.7416 19.83678,0.018 c 19.33055,0.017 19.80679,0.043 18.66334,0.9972 -0.64537,0.5387 -5.01878,4.2884 -9.71868,8.3326 l -8.54526,7.353 0.0197,34.1191 0.0197,34.119 2.24328,1.7084 2.24334,1.7085 0.13692,-34.7546 0.13696,-34.7546 6.91912,-5.9878 6.91912,-5.9878 0,1.8705 c 0,1.703 -0.47725,2.289 -5.32903,6.5443 l -5.32904,4.6739 0.13686,35.6568 0.13686,35.6568 5.05904,3.9323 c 2.78248,2.1628 5.65815,4.3845 6.39038,4.9371 1.31221,0.9903 1.03534,1.0049 -19.30425,1.0215 l -20.63557,0.017 0,-3.7851 0,-3.7851 -3.24594,3.0052 c -3.43317,3.1785 -8.74676,6.1494 -12.72999,7.1174 -3.50986,0.853 -9.85022,1.1524 -14.11212,0.6663 z m 187.05401,-4.1667 c 0.66038,-0.5083 5.37908,-4.1575 10.48598,-8.1092 l 9.28529,-7.185 0.0315,-34.1609 0.0315,-34.1609 -10.36373,-8.1753 -10.36373,-8.1753 33.66195,-0.1524 c 41.6841,-0.1886 45.17922,0.11 54.43066,4.65 9.15568,4.4931 13.47892,11.4404 12.93766,20.7903 -0.51966,8.9768 -5.95946,14.5696 -17.41384,17.9037 -3.891,1.1326 -3.98748,1.1992 -2.54518,1.7585 3.51518,1.363 10.66079,0.2294 14.72453,-2.3359 1.07151,-0.6765 3.05879,-2.4651 4.41619,-3.9749 7.03323,-7.8227 6.6918,-20.473 -0.77108,-28.5693 -2.27667,-2.4699 -1.85016,-3.1141 1.05951,-1.6001 6.77937,3.5272 9.53975,18.6663 5.06851,27.7978 -2.38502,4.8708 -6.47388,8.0336 -14.50115,11.2169 -1.23196,0.4886 -1.16227,0.579 1.68534,2.1861 4.65885,2.6292 8.63457,6.8667 10.88131,11.5977 1.74691,3.6786 1.97063,4.6502 2.18606,9.4941 0.36372,8.1779 -1.33743,13.5911 -5.91389,18.8181 -2.58728,2.9551 -8.75562,6.7138 -13.69896,8.3476 -8.2445,2.7248 -12.3968,2.9657 -51.10183,2.9641 -33.7214,0 -35.35594,-0.046 -34.21261,-0.9257 z m 45.51871,-14.9691 0.14332,-11.6568 3.44116,2.0811 c 4.46771,2.7019 6.8095,3.3546 12.00224,3.345 6.8437,-0.013 10.25859,-2.4219 11.47549,-8.0962 0.68443,-3.1913 0.0224,-6.2984 -1.79145,-8.4071 l -1.19636,-1.3908 -0.0412,2.8532 c -0.158,10.9306 -14.73334,15.5785 -22.99634,7.3332 -3.04849,-3.042 -3.55619,-4.4819 -3.55575,-10.0843 3.2e-4,-4.1206 0.2226,-5.5409 1.19819,-7.6563 1.17857,-2.5556 1.19778,-2.9377 1.19778,-23.8308 l 0,-21.2335 10.30059,0 c 9.72029,0 10.43282,0.069 12.64761,1.2272 1.44522,0.7557 2.69899,1.9213 3.26307,3.0336 0.50383,0.9935 0.85739,1.8649 0.78571,1.9366 -0.0717,0.072 -1.67157,-0.6344 -3.55529,-1.5691 -3.35131,-1.6629 -3.60581,-1.7031 -11.83573,-1.8692 l -8.41078,-0.1697 0,18.4212 0,18.4212 1.27444,-0.835 c 0.70094,-0.4593 4.7326,-1.9812 8.95923,-3.3821 9.61368,-3.1863 11.93608,-4.4501 14.09297,-7.6685 2.28217,-3.4054 3.04306,-7.4007 2.65994,-13.9667 -0.6458,-11.0678 -3.33106,-14.9911 -11.43626,-16.7091 -1.5521,-0.329 -7.60298,-0.5981 -13.44641,-0.5981 l -10.6244,0 0,45.7089 c 0,25.1399 0.15976,45.8687 0.35502,46.0639 0.19526,0.1953 1.38887,0.355 2.65247,0.355 l 2.29744,0 0.14332,-11.6568 z m 16.51195,11.115 c 12.38697,-1.4193 16.78897,-6.2005 17.9311,-19.4757 0.86812,-10.0904 -0.73483,-19.2047 -4.07582,-23.1753 -5.61191,-6.6694 -19.49441,-7.8792 -25.73338,-2.2427 -5.22083,4.7167 -4.71591,15.4214 0.88186,18.6963 2.86002,1.6732 8.69382,1.5088 11.25824,-0.3172 3.87844,-2.7617 3.37288,-10.2207 -0.69274,-10.2207 -1.14112,0 -1.29329,0.2367 -1.29329,2.0116 0,2.9195 -1.21285,4.3787 -3.63942,4.3787 -5.78232,0 -7.06641,-6.946 -1.88012,-10.17 2.86757,-1.7826 8.36627,-1.746 12.17618,0.081 5.85013,2.8054 9.26776,8.3454 8.60425,13.9477 -0.69239,5.8462 -4.03082,9.7022 -9.8693,11.3995 -4.57224,1.3292 -9.30338,0.6857 -16.17534,-2.2 -0.86649,-0.3639 -0.93193,0.2484 -0.93193,8.7186 l 0,9.11 4.39338,-0.01 c 2.41636,0 6.48721,-0.2443 9.04633,-0.5375 z m 82.94839,4.6077 c 0,-0.1069 4.67295,-3.8598 10.38435,-8.3397 9.19254,-7.2105 10.38435,-8.321 10.38435,-9.6758 l 0,-1.5305 -2.79579,0.4178 c -1.53768,0.2297 -5.2015,0.4017 -8.14181,0.3821 -5.61219,-0.037 -8.82531,-0.9975 -10.04184,-3.0009 -0.82788,-1.3634 -0.33403,-1.4753 2.85703,-0.6475 3.91332,1.0151 11.19863,0.9599 15.02542,-0.1139 l 3.09699,-0.8689 0,-2.2538 0,-2.2538 -2.38921,1.2096 c -3.08615,1.5624 -9.23649,2.5928 -12.72279,2.1315 -5.55305,-0.7348 -10.0165,-3.7815 -12.44817,-8.4971 -1.99207,-3.8631 -2.03885,-9.5967 -0.10912,-13.3741 3.30439,-6.4684 11.80589,-8.5519 17.0138,-4.1697 5.73231,4.8234 4.10979,14.567 -2.42573,14.567 -3.02454,0 -3.85096,-0.375 -4.77826,-2.1682 -1.693,-3.2739 -0.1783,-6.9667 3.47898,-8.4815 1.26789,-0.5252 1.48861,-0.8246 1.02234,-1.3864 -0.96318,-1.1605 -3.85364,-1.4426 -5.92293,-0.578 -6.35233,2.6541 -6.95353,12.4678 -1.02682,16.7612 4.49699,3.2575 11.63547,3.6818 16.26819,0.9669 3.51431,-2.0595 4.03972,-3.0802 4.03972,-7.8472 l 0,-4.0938 -13.47106,-21.206 -13.47106,-21.2061 -11.41255,-7.7317 -11.41256,-7.7317 16.93414,-0.1407 c 9.31377,-0.077 24.39964,-0.077 33.52416,0 l 16.59002,0.1407 -2.91584,2.1235 c -1.60371,1.168 -6.19728,4.551 -10.20795,7.5179 l -7.29212,5.3944 11.71534,18.5761 c 6.44344,10.2168 11.90887,18.7711 12.14542,19.0094 0.23655,0.2383 0.93406,-0.4209 1.55004,-1.4649 l 1.11997,-1.8982 -5.65068,-8.9194 c -3.10787,-4.9058 -7.87686,-12.4377 -10.59776,-16.7378 l -4.9471,-7.8183 4.6245,-3.3335 c 2.54348,-1.8334 5.40333,-3.9152 6.35523,-4.6263 l 1.73073,-1.2927 0,1.6467 c 0,1.4425 -0.55639,2.0664 -4.48692,5.0311 l -4.48691,3.3845 9.35212,14.7698 c 5.14368,8.1233 9.53834,14.5747 9.76589,14.3363 0.2276,-0.2384 4.1523,-7.2514 8.72158,-15.5844 6.59182,-12.0216 8.16875,-15.2802 7.63489,-15.7769 -0.37011,-0.3443 -4.70539,-3.771 -9.63401,-7.6148 l -8.96117,-6.9888 21.7229,0 c 18.32627,0 21.60091,0.1131 20.94307,0.7231 -0.4289,0.3977 -4.97346,4.0854 -10.09909,8.1949 l -9.3193,7.4719 -8.78676,16.1421 c -4.83271,8.8781 -9.92579,18.2338 -11.31793,20.7905 l -2.53112,4.6485 1.54961,1.1034 1.54956,1.1035 11.51566,-20.9585 11.51567,-20.9584 6.50688,-5.2261 c 3.57879,-2.8744 6.8235,-5.4689 7.21049,-5.7657 0.55804,-0.428 0.66817,-0.1484 0.53253,1.3523 -0.15315,1.6939 -0.78202,2.3867 -6.00987,6.6202 l -5.83885,4.7282 -11.28247,20.5024 c -9.81225,17.8308 -11.1505,20.5372 -10.2698,20.7688 0.77632,0.2041 0.32356,0.6261 -1.93932,1.8078 -3.51396,1.8351 -6.73934,5.3156 -7.60577,8.2074 -0.34444,1.1496 -0.62455,4.5787 -0.62242,7.62 l 0.005,5.5298 10.38051,8.1971 c 5.70927,4.5084 10.38052,8.2827 10.38052,8.3874 0,0.1046 -13.89905,0.1903 -30.88679,0.1903 -16.98774,0 -30.88679,-0.087 -30.88679,-0.1944 z m -335.8987,-5.7966 c -2.50327,-2.6722 -3.25728,-7.1305 -3.84616,-22.7409 -0.5632,-14.9298 0.0896,-34.7178 1.34603,-40.8005 1.70884,-8.273 5.6927,-15.411 11.58606,-20.759 4.23602,-3.844 5.16411,-4.3679 5.16411,-2.915 0,0.6089 -1.61894,2.8351 -3.67164,5.0489 -4.67684,5.044 -7.0596,8.9868 -9.04275,14.9633 -1.97659,5.9568 -2.58857,11.2438 -3.01705,26.0652 -0.51054,17.6591 0.88624,35.6113 3.22149,41.4043 0.52545,1.3035 -0.40259,1.1615 -1.74009,-0.2663 z m 383.59041,-8.5059 c -1.00659,-1.4371 -1.16806,-12.2182 -0.23341,-15.5849 0.73846,-2.6599 3.41837,-5.2323 6.56983,-6.3061 2.24233,-0.764 2.41956,-0.7586 2.41199,0.075 -0.0122,1.3668 -0.70603,2.1908 -2.68321,3.1877 -3.22026,1.6237 -3.87666,3.5572 -4.13622,12.1841 -0.12621,4.1953 -0.42533,7.6278 -0.6647,7.6278 -0.23943,0 -0.80833,-0.5326 -1.26428,-1.1836 z"
       style="fill:#2a2a57;fill-opacity:1" />
    <path
       inkscape:connector-curvature="0"
       id="path4378"
       d="m 173.75399,1355.377 c -1.81259,-0.6182 -2.59082,-1.3942 -3.15807,-3.1492 -1.45186,-4.4918 0.0337,-7.2106 4.70436,-8.6076 1.12858,-0.3376 1.20418,-3.0382 1.2274,-43.8492 l 0.0247,-43.4894 1.65844,2.0292 c 0.91217,1.1161 3.86139,7.3012 6.55379,13.7448 5.5566,13.2982 7.97905,17.2515 14.05211,22.9326 8.1903,7.6617 9.27463,7.8702 3.82709,0.7359 -7.23504,-9.4753 -11.43778,-18.7136 -13.33958,-29.3225 -0.35764,-1.9952 -0.26548,-2.1766 0.81266,-1.5995 1.51131,0.8088 2.36898,2.5394 4.29208,8.6605 1.85225,5.8955 5.51221,13.387 8.56094,17.5231 5.15559,6.9944 16.64327,16.9607 21.56239,18.7066 1.60793,0.5707 5.99368,0.8671 12.44761,0.8414 8.80958,-0.035 10.57922,-0.2448 15.26248,-1.8079 7.01987,-2.3429 11.15718,-4.852 13.63056,-8.2664 1.74936,-2.4149 2.03271,-3.4208 2.03271,-7.2152 0,-2.425 -0.31331,-4.9946 -0.69624,-5.7102 -1.04749,-1.9571 -8.75446,-7.2138 -14.13197,-9.639 -2.61693,-1.1802 -16.09389,-5.9655 -29.9487,-10.634 -13.85487,-4.6686 -27.1016,-9.4529 -29.43719,-10.6319 -4.80256,-2.4244 -9.52011,-6.5023 -12.45235,-10.7642 -3.08928,-4.4901 -2.34933,-5.0087 1.62064,-1.1359 4.49372,4.3837 10.73949,8.413 17.20159,11.0971 2.72903,1.1336 13.99184,4.868 25.02842,8.2987 25.19204,7.8307 30.83936,10.0422 36.50399,14.2947 3.63062,2.7256 3.21841,1.4078 -0.72476,-2.317 -6.89314,-6.5113 -16.73165,-11.4136 -46.91168,-23.3748 -26.68163,-10.5746 -31.64453,-13.0009 -35.60591,-17.4069 -4.49482,-4.9993 -6.13258,-9.6946 -6.50314,-18.6433 -0.47495,-11.4707 2.28885,-18.9293 9.48211,-25.589 10.60987,-9.8228 29.06588,-14.6237 49.33805,-12.8341 4.79418,0.4232 14.90188,2.0305 22.46151,3.5717 l 13.74477,2.8022 5.15429,-1.2101 c 2.83486,-0.6655 6.7779,-1.768 8.7623,-2.4499 1.9844,-0.6819 3.608,-1.0849 3.608,-0.8955 0,0.1894 -6.06969,8.8425 -13.48823,19.2291 -11.34129,15.8789 -13.53853,19.3459 -13.80456,21.7821 -0.43936,4.0235 0.73039,6.8363 2.7251,6.5531 1.30899,-0.186 1.59777,-0.7425 1.88881,-3.6397 0.46526,-4.6304 1.7895,-5.2582 9.96496,-4.7242 6.99555,0.4569 8.94998,1.3505 10.36604,4.7396 2.57914,6.1727 0.47701,13.0189 -5.22357,17.0117 -1.48065,1.0371 -1.53508,1.2406 -0.5403,2.02 2.31592,1.8148 8.33524,9.2796 10.62045,13.1708 1.31043,2.2315 3.19861,6.4065 4.196,9.2778 1.53976,4.4328 1.81102,6.3612 1.79734,12.7801 -0.0103,4.8298 -0.43571,9.1728 -1.178,12.0267 -5.00804,19.2535 -21.41649,31.506 -44.70241,33.3799 -7.17326,0.5772 -13.58664,-0.4188 -27.48962,-4.2689 -16.96765,-4.699 -24.04676,-4.717 -26.67785,-0.068 -0.59749,1.0558 -0.98166,6.3364 -1.22308,16.8122 -0.33888,14.7066 -0.40946,15.3304 -1.90448,16.8245 -1.13896,1.1382 -2.44169,1.5812 -4.89039,1.6627 -1.83582,0.061 -3.97747,0.4535 -4.7592,0.8719 -1.766,0.9451 -3.24274,0.9131 -6.32246,-0.1371 z m 12.7544,-4.1997 c 1.23036,-0.8985 1.36066,-2.1397 1.67762,-15.9783 0.30946,-13.5121 0.48697,-15.2776 1.7851,-17.7532 3.26184,-6.2203 8.67625,-6.8398 23.98635,-2.7447 20.25293,5.4173 20.08717,5.3871 29.89489,5.4349 6.88043,0.034 10.43194,-0.2709 13.74478,-1.1784 14.19457,-3.8882 25.30186,-13.7922 29.68067,-26.4651 1.345,-3.8926 1.58141,-5.9157 1.54141,-13.1884 -0.0419,-7.6651 -0.2551,-9.1457 -1.9767,-13.7448 -1.06124,-2.8349 -3.2839,-7.2543 -4.93933,-9.821 -2.95485,-4.5813 -12.15141,-14.2154 -13.60279,-14.2499 -0.40609,-0.01 1.17408,-0.9451 3.51152,-2.0789 5.25009,-2.5465 7.08962,-5.176 7.08962,-10.1341 0,-3.7413 -1.17236,-5.6377 -3.48526,-5.6377 -1.08048,0 -1.32541,0.491 -1.32541,2.6564 0,3.2255 -1.85211,5.7923 -5.5355,7.6714 -4.7012,2.3984 -9.54121,1.5947 -13.52246,-2.2453 -3.41571,-3.2946 -3.83637,-5.4722 -3.2793,-16.9749 0.55605,-11.4819 0.27476,-12.5832 -4.22129,-16.5309 -5.27882,-4.6348 -13.055,-6.8769 -23.85166,-6.8769 -11.757,0 -18.72471,2.1882 -22.72712,7.1377 -1.92138,2.3759 -2.11532,3.0665 -2.11532,7.5322 0,4.1283 0.30362,5.4329 1.89375,8.138 3.58306,6.0952 5.86999,7.3063 26.28304,13.9189 36.43981,11.8044 50.05353,20.6831 55.38368,36.1205 2.02014,5.851 2.19278,17.4953 0.3516,23.7098 -3.14055,10.5999 -10.10407,18.908 -19.85172,23.6852 -8.03053,3.9355 -13.08984,5.08 -22.4824,5.0857 -8.65852,0.01 -11.27106,-0.5001 -27.83317,-5.3832 -13.88195,-4.093 -18.16737,-4.8181 -21.09755,-3.5702 -6.91713,2.9459 -8.83837,10.2081 -8.30226,31.3818 0.15793,6.2367 0.4107,11.726 0.56168,12.1984 0.35709,1.1173 1.11938,1.0855 2.76353,-0.115 z m 8.91039,-139.6128 c -1.95196,-7.494 -1.00611,-11.5845 3.74422,-16.1932 4.04742,-3.9268 8.87514,-5.8286 17.58912,-6.9293 9.99121,-1.2619 20.8311,0.5276 32.15219,5.3077 1.19813,0.5059 1.21188,0.4207 0.23559,-1.4672 -3.6269,-7.0137 -12.01122,-10.5663 -24.93667,-10.5663 -15.43937,0 -29.923,5.8404 -33.92183,13.6788 -3.20199,6.2764 -2.38355,11.8128 2.55893,17.31 1.69446,1.8847 3.2035,3.304 3.35345,3.1541 0.14989,-0.15 -0.19882,-2.0825 -0.775,-4.2946 z m 404.64756,141.9593 c -4.15851,-0.8635 -6.6349,-2.3325 -9.42291,-5.5896 -5.39624,-6.3044 -3.91459,-15.1754 3.15112,-18.8667 4.4364,-2.3176 11.16856,-0.4867 14.12253,3.8409 1.99813,2.9273 1.94502,5.6436 -0.20044,10.2526 -1.11321,2.3915 -1.49612,3.9608 -1.07034,4.3865 1.16889,1.1689 2.71055,-0.056 3.45768,-2.7459 0.48827,-1.7583 0.72745,-25.7129 0.73003,-73.1138 l 0.004,-70.4987 -9.46372,-7.9524 c -5.20504,-4.3738 -10.23048,-8.5903 -11.16763,-9.37 l -1.70391,-1.4175 39.7971,-0.023 39.79711,-0.023 -11.44851,8.6003 c -6.29667,4.7303 -11.4485,8.7808 -11.4485,9.0013 0,0.3006 57.65233,85.3077 58.86929,86.8015 0.12824,0.1574 0.22425,-1.8528 0.21332,-4.4671 l -0.02,-4.7534 -25.47289,-37.4545 c -14.01011,-20.6 -25.60486,-37.6676 -25.76611,-37.928 -0.27103,-0.4376 7.92,-6.975 12.27813,-9.7992 l 1.8899,-1.2248 0,2.1331 c 0,1.8498 -0.63956,2.5982 -4.81514,5.6353 -2.95612,2.1501 -4.6331,3.8113 -4.34365,4.3029 0.48894,0.8303 45.61324,67.2426 46.03259,67.7492 0.13044,0.1574 0.2371,-14.8625 0.2371,-33.3777 l 0,-33.664 -11.41289,-10.6057 -11.41288,-10.6056 13.52011,-0.1864 c 7.43611,-0.1026 19.34732,-0.1026 26.46946,0 l 12.94937,0.1864 -12.30172,10.6522 -12.30171,10.6522 -0.007,44.7964 -0.007,44.7963 2.99155,2.4514 c 1.64532,1.3482 3.1916,2.4513 3.43619,2.4513 0.24452,0 0.46719,-20.7976 0.49481,-46.2168 l 0.0502,-46.2168 7.56169,-6.5288 c 10.65028,-9.1939 10.20811,-8.9348 10.20811,-5.9806 0,2.2437 -0.5601,2.9078 -7.1712,8.5024 l -7.1712,6.0687 -0.0206,47.0758 -0.0206,47.0759 6.93265,5.3261 6.93273,5.3261 -43.86135,0 c -24.12372,0 -43.56752,-0.2603 -43.20844,-0.5783 0.35908,-0.3181 6.30022,-4.992 13.20254,-10.3865 6.90231,-5.3944 12.71717,-10.0791 12.9219,-10.4103 0.20475,-0.3313 -10.2361,-16.1635 -23.20185,-35.1826 l -23.57467,-34.5801 -0.34362,59.1418 -0.34361,59.1419 -1.60671,3.2626 c -1.99423,4.0494 -6.18153,7.7113 -10.34487,9.0467 -4.21951,1.3535 -10.06831,1.8223 -13.59557,1.0898 z m 17.84321,-8.7726 c 0.60477,-0.6683 1.72831,-2.6011 2.49675,-4.2952 1.37086,-3.0222 1.39746,-4.2336 1.41227,-64.3044 l 0.0151,-61.2242 -2.78678,-3.8917 c -1.53273,-2.1404 -2.92439,-3.8917 -3.09258,-3.8917 -0.16818,0 -0.30579,31.235 -0.30579,69.4111 0,38.1761 0.26133,69.4111 0.58072,69.4111 0.31941,0 1.07555,-0.5467 1.68032,-1.215 z m -181.15648,5.2328 c -0.63858,-0.3574 -1.16116,-1.3056 -1.16116,-2.1072 0,-0.8016 4.29655,-13.5431 9.54788,-28.3145 21.57844,-60.6979 29.57563,-92.1653 30.79706,-121.1806 l 0.41226,-9.7931 -9.95539,0 c -5.47545,0 -11.71964,0.3543 -13.87596,0.7873 -5.41453,1.0874 -10.62421,4.3678 -12.3922,7.8031 -1.88874,3.67 -1.9519,9.9435 -0.1204,11.9673 1.95986,2.1656 2.45914,1.7648 2.45914,-1.9743 0,-2.6615 0.3753,-3.8284 1.71295,-5.3261 0.94206,-1.0548 2.56566,-2.9394 3.60799,-4.1879 2.45341,-2.9388 5.16075,-3.5346 16.1553,-3.5551 l 8.7623,-0.016 0,1.6507 c 0,1.6479 -0.0149,1.651 -9.13766,1.8899 -7.46183,0.1953 -9.49353,0.4725 -11.07809,1.5116 l -1.94043,1.2725 1.92584,1.2632 c 2.45093,1.6078 3.68137,3.8307 3.71225,6.7064 0.0601,5.5993 -4.89154,9.4613 -11.43503,8.9186 -2.63948,-0.2189 -3.65989,-0.063 -3.65989,0.5594 0,1.4228 3.26252,4.8531 5.49543,5.7779 4.69556,1.945 11.6447,-0.7664 14.09162,-5.4982 1.42947,-2.7644 1.2615,-8.0127 -0.37164,-11.6122 -1.63363,-3.6007 -1.299,-4.2423 1.24122,-2.38 5.9352,4.3513 5.6879,13.5703 -0.52574,19.5984 -7.50139,7.2774 -17.7597,5.6881 -23.56508,-3.6508 -1.13807,-1.8307 -2.10027,-3.3271 -2.13821,-3.3252 -0.0378,0 -0.0973,4.2541 -0.13174,9.4495 -0.0543,8.1474 -0.30136,10.1707 -1.79871,14.715 -2.59254,7.8681 -6.34136,14.0466 -11.82725,19.4927 -8.79315,8.7295 -16.49991,11.5854 -31.32558,11.6087 -9.58038,0.015 -12.0987,-0.5713 -14.40817,-3.354 -1.35489,-1.6325 -0.76166,-1.739 3.76167,-0.675 9.38721,2.2079 22.76795,0.639 30.79951,-3.6112 1.95622,-1.0353 6.0343,-4.3665 9.06241,-7.4029 8.41613,-8.4389 11.77645,-16.4041 12.47661,-29.5739 0.88606,-16.6658 -5.50334,-28.8243 -20.56122,-39.1261 -5.28982,-3.619 -5.47241,-3.8263 -3.36953,-3.8263 6.42747,0 19.38927,11.1198 23.47663,20.1402 l 1.18521,2.6158 0.32781,-5.0211 c 0.7829,-11.9907 7.93115,-17.4825 24.93538,-19.1568 4.09492,-0.4032 30.18978,-0.6003 64.47429,-0.4868 l 57.59516,0.1906 -12.40921,10.6379 -12.4092,10.638 0,43.7679 0,43.7681 2.67604,2.1194 c 1.47182,1.1657 2.86348,2.1194 3.09257,2.1194 0.2291,0 0.41667,-20.0244 0.41683,-44.4987 l 2.9e-4,-44.4987 8.3481,-7.216 c 10.51094,-9.0856 10.20676,-8.9088 10.20676,-5.9309 0,2.1806 -0.61202,2.902 -7.17118,8.4527 l -7.17119,6.0687 -0.0448,45.7157 -0.0448,45.7156 8.41244,6.5145 8.41244,6.5145 -20.0955,0.1822 c -11.05252,0.1002 -29.13714,0.1002 -40.18803,0 l -20.09254,-0.1822 13.57792,-10.6522 13.57792,-10.6522 -0.18597,-9.965 -0.18598,-9.9649 -15.95377,-0.1844 -15.95378,-0.1845 -1.5294,3.6207 c -3.4583,8.1869 -15.27432,31.0563 -20.68986,40.0442 -7.37397,12.2383 -22.35565,33.6856 -24.42305,34.9633 -0.30153,0.1864 -0.94384,0.094 -1.42736,-0.2045 -0.64392,-0.3979 0.40156,-2.3623 3.90775,-7.3425 12.68046,-18.0109 23.92012,-37.2046 34.65533,-59.1798 l 7.48028,-15.3123 17.13874,0 17.13874,0 0,-2.749 0,-2.749 -19.46319,0 -19.4632,0 -4.70696,11.1677 c -9.10826,21.61 -21.90084,45.6265 -31.16186,58.5028 -5.24275,7.2893 -14.15675,17.9998 -15.36725,18.4643 -0.53886,0.2068 -1.50224,0.084 -2.14089,-0.2739 z m 92.30335,-94.7333 c 0,-0.4408 -6.52877,-0.6872 -18.21183,-0.6872 -11.68306,0 -18.21183,0.2464 -18.21183,0.6872 0,0.4409 6.52877,0.6873 18.21183,0.6873 11.68306,0 18.21183,-0.2464 18.21183,-0.6873 z m -23.53699,-18.5554 c 2.97876,-9.4406 6.08926,-21.5525 8.3834,-32.6439 l 1.84793,-8.9341 6.65283,-0.1967 6.65283,-0.1966 0,-3.0677 0,-3.0677 -9.4666,0 -9.4666,0 -1.19533,7.0048 c -1.82226,10.6788 -4.39922,21.6736 -8.15294,34.7851 -1.873,6.5423 -3.58366,12.3594 -3.80147,12.927 -0.32493,0.8467 0.20227,0.9938 2.93655,0.8189 l 3.33257,-0.2131 2.27684,-7.216 z m 23.37445,-15.2911 -0.18108,-22.8507 -4.90695,-0.2004 -4.90696,-0.2004 -0.79352,4.6675 c -1.59906,9.4056 -7.79667,32.598 -10.80818,40.4458 -0.32047,0.8352 1.34289,0.9889 10.69915,0.9889 l 11.07862,0 -0.18107,-22.8507 z m 214.36774,128.5798 c -0.63866,-0.3574 -1.16116,-1.3056 -1.16116,-2.1072 0,-0.8016 4.29655,-13.5431 9.54781,-28.3145 21.57844,-60.6979 29.57564,-92.1653 30.79714,-121.1806 l 0.4122,-9.7931 -9.9554,0 c -5.4754,0 -11.7196,0.3543 -13.87595,0.7873 -5.41448,1.0874 -10.62417,4.3678 -12.39216,7.8031 -1.8888,3.67 -1.95189,9.9435 -0.1204,11.9673 1.95987,2.1656 2.45915,1.7648 2.45915,-1.9743 0,-2.6615 0.3753,-3.8284 1.71294,-5.3261 0.94207,-1.0548 2.56567,-2.9394 3.608,-4.1879 2.45338,-2.9388 5.16068,-3.5346 16.15522,-3.5551 l 8.7623,-0.016 0,1.6507 c 0,1.6479 -0.015,1.651 -9.1376,1.8899 -7.4619,0.1953 -9.4935,0.4725 -11.0781,1.5116 l -1.94042,1.2725 1.92585,1.2632 c 2.45087,1.6078 3.68137,3.8307 3.71227,6.7064 0.061,5.5993 -4.89158,9.4613 -11.43505,8.9186 -2.63955,-0.2189 -3.65989,-0.063 -3.65989,0.5594 0,1.4228 3.26253,4.8531 5.49537,5.7779 4.69562,1.945 11.64467,-0.7664 14.09167,-5.4982 1.4295,-2.7644 1.2614,-8.0127 -0.3716,-11.6122 -1.6337,-3.6007 -1.2991,-4.2423 1.2412,-2.38 5.9352,4.3513 5.6878,13.5703 -0.5258,19.5984 -7.8066,7.5736 -18.69959,5.4302 -24.25234,-4.772 -3.84668,-7.0677 -4.85287,-19.2698 -2.03196,-24.6406 3.49612,-6.656 10.43174,-10.0331 23.1841,-11.2888 4.0949,-0.4032 30.1898,-0.6003 64.4743,-0.4868 l 57.59515,0.1906 -12.4092,10.6379 -12.4092,10.638 0,43.7679 0,43.7681 2.6761,2.1194 c 1.4718,1.1657 2.8635,2.1194 3.0924,2.1194 0.2292,0 0.4167,-20.0244 0.4168,-44.4987 l 4e-4,-44.4987 8.3481,-7.216 c 10.511,-9.0856 10.2068,-8.9088 10.2068,-5.9309 0,2.1806 -0.612,2.902 -7.1713,8.4527 l -7.1711,6.0687 -0.045,45.7157 -0.045,45.7156 8.4124,6.5145 8.4125,6.5145 -20.0956,0.1822 c -11.0525,0.1002 -29.1371,0.1002 -40.18805,0 l -20.0925,-0.1822 13.5779,-10.6522 13.57795,-10.6522 -0.1859,-9.965 -0.186,-9.9649 -15.95385,-0.1844 -15.9537,-0.1845 -1.5294,3.6207 c -3.4584,8.1869 -15.2744,31.0563 -20.6899,40.0442 -7.374,12.2383 -22.35568,33.6856 -24.4231,34.9633 -0.30148,0.1864 -0.94379,0.094 -1.42733,-0.2045 -0.64394,-0.3979 0.40156,-2.3623 3.90771,-7.3425 12.68052,-18.0109 23.92022,-37.2046 34.65542,-59.1798 l 7.47991,-15.3123 17.13879,0 17.13875,0 0,-2.749 0,-2.749 -19.46325,0 -19.4631,0 -4.707,11.1677 c -9.1083,21.61 -21.9009,45.6265 -31.1619,58.5028 -5.24274,7.2893 -14.15671,17.9998 -15.36728,18.4643 -0.53879,0.2068 -1.50216,0.084 -2.14081,-0.2739 z m 92.30334,-94.7333 c 0,-0.4408 -6.52874,-0.6872 -18.21185,-0.6872 -11.683,0 -18.2118,0.2464 -18.2118,0.6872 0,0.4409 6.5288,0.6873 18.2118,0.6873 11.6831,0 18.21185,-0.2464 18.21185,-0.6873 z m -23.53695,-18.5554 c 2.9787,-9.4406 6.0892,-21.5525 8.3833,-32.6439 l 1.848,-8.9341 6.6528,-0.1967 6.65285,-0.1966 0,-3.0677 0,-3.0677 -9.46655,0 -9.4667,0 -1.1953,7.0048 c -1.8223,10.6788 -4.3992,21.6736 -8.1529,34.7851 -1.873,6.5423 -3.5837,12.3594 -3.8015,12.927 -0.3249,0.8467 0.2023,0.9938 2.9365,0.8189 l 3.3326,-0.2131 2.2769,-7.216 z m 23.37445,-15.2911 -0.1811,-22.8507 -4.90689,-0.2004 -4.90706,-0.2004 -0.7935,4.6675 c -1.599,9.4056 -7.7967,32.598 -10.80819,40.4458 -0.3204,0.8352 1.3429,0.9889 10.6992,0.9889 l 11.07865,0 -0.1811,-22.8507 z m -818.128757,98.8123 -1.92826,-1.6964 71.988265,-0.022 c 39.593542,-0.012 71.988262,-0.1508 71.988262,-0.3086 0,-0.1579 -5.91506,-10.5712 -13.14461,-23.141 l -13.14461,-22.854 2.12247,-1.7714 c 3.46334,-2.8907 4.59728,-7.8731 2.47976,-10.8963 -1.59116,-2.2717 -2.36637,-1.8613 -2.36637,1.2528 0,2.0663 -0.45158,3.2318 -1.75878,4.539 -1.54793,1.5479 -2.12528,1.7038 -4.81582,1.3004 -2.43269,-0.3649 -3.14151,-0.2382 -3.47083,0.6201 -0.25676,0.6691 4.34314,9.4372 12.11629,23.0954 6.89163,12.1093 12.38755,22.1594 12.21327,22.3338 -0.17436,0.1743 -30.81689,0.2381 -68.094507,0.1418 l -67.77749,-0.1752 13.3745,-10.5504 13.37442,-10.5504 0,-43.7809 0,-43.7811 -13.40672,-10.6127 -13.40673,-10.6126 65.06069,-0.1754 c 35.783357,-0.096 65.177247,-0.058 65.319787,0.084 0.1426,0.1425 -4.74656,8.7165 -10.86463,19.0533 -15.19073,25.6652 -15.93652,27.4404 -13.00558,30.9586 l 1.35166,1.6225 0.0337,-2.749 c 0.0186,-1.5119 0.26053,-3.0892 0.53825,-3.5051 1.35496,-2.0292 7.10316,-3.2047 8.06454,-1.6492 0.23359,0.378 1.29256,0.6873 2.35324,0.6873 4.41853,0 7.51173,5.3715 6.59887,11.4591 -1.53708,10.25 -15.83632,12.5475 -22.32708,3.5872 -1.10941,-1.5315 -2.33146,-3.7652 -2.7157,-4.9638 -1.36657,-4.2631 -2.12116,-14.0166 -2.12116,-27.4172 l 0,-13.5911 -17.180972,0 -17.180965,0 0,21.9917 c 0,12.0954 0.13367,21.9916 0.29695,21.9916 0.16336,0 4.20467,-4.9481 8.980765,-10.9958 4.77604,-6.0477 8.81741,-10.9958 8.98077,-10.9958 0.16329,0 0.29696,11.4425 0.29696,25.4278 0,13.9853 -0.23195,25.4134 -0.51543,25.3957 -0.28349,-0.018 -2.82916,-3.1102 -5.65701,-6.8724 l -5.141635,-6.8403 -3.62065,0 -3.62072,0 0,25.7715 0,25.7715 18.899065,0 18.899062,0 0,-24.0875 c 0,-26.6661 -0.0825,-26.1176 4.54093,-30.1771 2.37572,-2.0859 2.82243,-2.2187 6.55448,-1.9488 2.89705,0.2096 4.44767,0.7056 5.60505,1.7928 0.87994,0.8268 2.30548,1.5032 3.16776,1.5032 2.20892,0 5.30273,1.9822 6.21346,3.9809 2.17188,4.7668 1.39063,11.3191 -1.69047,14.1775 l -1.53907,1.4279 13.64609,23.7097 c 7.5054,13.0404 13.65158,23.9417 13.65818,24.2252 0.007,0.2835 -32.90664,0.5154 -73.140562,0.5154 l -73.152645,0 -1.92819,-1.6964 z m 56.14342,-40.8796 0,-27.4567 4.13305,-0.2047 4.13306,-0.2046 -1.85582,-2.6028 -1.85575,-2.6029 -5.54162,0.1975 -5.54169,0.1975 -0.17902,30.0667 -0.17903,30.0667 3.44341,0 3.44341,0 0,-27.4567 z m 58.475427,-36.6489 c 3.80435,-2.5637 5.0376,-6.4487 3.19415,-10.0619 -1.27345,-2.4957 -2.56704,-2.5987 -2.56704,-0.2042 0,1.1145 -0.61274,2.8053 -1.36163,3.7573 -1.8106,2.3019 -6.50561,4.1449 -9.10454,3.5741 -1.88489,-0.414 -1.97217,-0.3458 -1.26012,0.9847 1.88146,3.5155 7.35036,4.4764 11.09918,1.95 z m -58.475427,-25.9227 0,-24.0533 19.242685,0 19.242682,0 0,-2.7583 0,-2.7584 -22.507072,0.1812 -22.507065,0.1812 -0.17985,26.6305 -0.17992,26.6305 3.44431,0 3.44423,0 0,-24.0534 z m 227.686207,103.4512 -1.92825,-1.6964 39.64969,-0.022 39.64969,-0.022 1.92826,1.6964 1.92819,1.6964 -39.6497,0.022 -39.64976,0.022 -1.92812,-1.6964 z m 204.24335,-0.043 -2.06171,-1.69 39.76064,0 39.76066,-0.01 2.04183,1.718 2.04184,1.7181 -39.74077,-0.025 -39.74077,-0.025 -2.06172,-1.69 z m 146.38187,0.043 -2.0617,-1.69 41.92156,0 41.92157,0 2.06172,1.69 2.06171,1.69 -41.92156,0 -41.92157,0 -2.06173,-1.69 z m 160.12667,-0.043 -2.0617,-1.69 39.76065,0 39.7607,-0.01 2.0418,1.718 2.0419,1.7181 -39.7408,-0.025 -39.74085,-0.025 -2.0617,-1.69 z m -514.02026,-7.785 c 0.35908,-0.3245 6.45139,-5.1442 13.53854,-10.7102 l 12.88574,-10.12 -0.0385,-43.7534 -0.0385,-43.7534 -13.31313,-10.6522 -13.31319,-10.6522 41.35693,-0.1952 c 27.19535,-0.1284 43.35728,0.063 47.19854,0.5601 20.02565,2.5896 35.69635,14.879 39.48888,30.9684 1.30513,5.537 1.32541,13.338 0.0502,19.3555 -2.66367,12.57 -13.17829,24.1904 -25.95035,28.6793 -12.05451,4.2369 -27.48289,3.0458 -35.46716,-2.7379 l -2.86221,-2.0734 0,21.2636 0,21.2637 7.35071,5.7148 c 4.04295,3.1431 7.83136,6.0915 8.41867,6.5519 0.8429,0.6608 -7.46918,0.8418 -39.44476,0.8591 -22.61737,0.012 -40.22436,-0.2389 -39.85985,-0.5685 z m 59.39798,-66.5227 c -4e-4,-27.8406 0.14694,-50.7671 0.32747,-50.9476 0.7548,-0.7548 13.47828,-1.543 18.23857,-1.1298 6.15126,0.5338 12.85603,2.4913 15.40749,4.4982 2.61541,2.0573 2.76001,1.3465 0.46285,-2.2757 -2.27723,-3.5908 -7.0005,-6.2757 -13.04022,-7.4127 -2.03594,-0.3833 -9.22618,-0.6969 -15.9783,-0.6969 l -12.27649,0 0,51.5475 0,51.5474 1.54629,1.3178 c 2.5405,2.165 4.97147,4.1239 5.14783,4.1482 0.091,0.012 0.165,-22.7558 0.16451,-50.5964 z m 29.41706,10.9345 c 3.07223,-1.4175 6.14858,-5.3125 7.46589,-9.4528 1.45317,-4.5673 2.15078,-30.5383 0.97271,-36.2129 -1.09834,-5.2908 -4.83658,-9.5418 -10.20281,-11.6026 -4.21071,-1.617 -16.33209,-2.6074 -21.05878,-1.7207 l -2.45689,0.461 0,17.4727 0,17.4727 2.47447,-1.6792 c 3.30165,-2.2406 6.53765,-2.7579 11.00201,-1.7588 6.44761,1.4429 9.14976,5.6206 8.3314,12.881 -0.51062,4.5302 -2.91658,6.7485 -7.3193,6.7485 -4.4819,0 -6.24171,-1.5691 -6.24171,-5.5654 0,-3.3546 1.69026,-5.0868 4.96358,-5.0868 2.25641,0 2.42355,-0.8597 0.53433,-2.7489 -1.7027,-1.7027 -5.57523,-1.8125 -8.24783,-0.2337 -3.02763,1.7884 -5.04048,5.9573 -4.63089,9.5912 1.11154,9.8615 14.36707,16.0699 24.41382,11.4347 z m -11.36329,-1.8819 c -0.85046,-0.616 -1.54629,-1.3758 -1.54629,-1.6883 0,-0.3125 2.00021,-0.6955 4.44485,-0.8512 3.47413,-0.2212 4.82057,-0.636 6.16522,-1.8992 3.60808,-3.3896 3.90888,-9.2904 0.78785,-15.4551 -1.68029,-3.3191 -1.55989,-3.5461 1.3026,-2.4578 4.25029,1.616 6.13848,13.148 2.93183,17.9063 -2.02736,3.0084 -5.09622,4.74 -9.20907,5.196 -2.44451,0.2711 -3.74209,0.071 -4.87699,-0.7507 z m -272.49013,22.2591 -1.88991,-2.4702 0,-22.7858 c 0,-12.5322 0.23195,-22.7687 0.51543,-22.7478 0.28349,0.021 1.21538,0.9253 2.07093,2.0097 1.55501,1.9711 1.55543,1.979 1.37448,25.218 l -0.18102,23.2463 -1.88991,-2.4702 z m 29.35548,-57.2598 c -1.18034,-1.8013 -1.17889,-1.8045 6.87087,-15.2383 7.30734,-12.1949 8.13904,-13.3212 8.99912,-12.1866 0.5212,0.6876 0.95746,1.6637 0.96949,2.1692 0.0117,0.5055 -3.50636,6.8002 -7.81858,13.9883 l -7.84037,13.0692 -1.18053,-1.8018 z m 137.56315,-4.8273 c -1.13779,-1.7365 -1.10254,-1.8026 6.81762,-12.7492 4.37881,-6.052 8.19711,-11.0037 8.48513,-11.0037 0.28802,0 0.91492,0.7311 1.39303,1.6245 0.81005,1.5135 0.34252,2.3457 -6.85363,12.1985 -4.24761,5.8157 -7.94242,10.8218 -8.21064,11.1248 -0.2683,0.3028 -1.00241,-0.2349 -1.63151,-1.1949 z m 401.94328,-46.3717 c -4.1578,-1.1087 -8.43022,-2.3488 -9.49428,-2.7559 -3.81651,-1.4599 -6.6463,-0.9424 -9.10569,1.6653 l -2.26853,2.4053 -6.91854,0 c -3.80519,0 -6.91853,-0.284 -6.91853,-0.631 0,-0.3471 -0.18772,-1.1202 -0.41715,-1.7181 -0.36165,-0.9424 0.41921,-1.0871 5.86906,-1.0871 l 6.2862,0 2.55585,-2.6867 c 3.95687,-4.1596 5.9035,-4.2341 17.15946,-0.6564 15.15551,4.817 21.83423,4.0351 29.55798,-3.4605 1.59117,-1.5443 3.81693,-4.2789 4.94607,-6.0771 2.04447,-3.2557 2.05312,-3.2605 2.06611,-1.1583 0.0399,6.4749 -4.16597,11.8361 -12.27245,15.6431 -6.41371,3.0121 -11.24425,3.1309 -21.04557,0.5174 z m 4.12342,-8.9474 c -2.64586,-0.7329 -8.04133,-2.4348 -11.9899,-3.782 -9.1917,-3.1362 -11.155,-3.1519 -14.1939,-0.113 -1.28513,1.2851 -2.3366,2.8314 -2.3366,3.4362 0,0.9308 -1.00222,1.0996 -6.52877,1.0996 -7.35961,0 -7.13472,0.23 -5.42128,-5.545 2.41833,-8.1507 7.40775,-15.0993 12.95001,-18.035 2.14085,-1.1339 3.96466,-1.4684 7.93413,-1.4549 4.4747,0.015 6.28696,0.4509 13.74478,3.3044 10.51548,4.0236 15.89634,4.7548 18.6903,2.5404 1.01912,-0.8078 2.24096,-2.5417 2.7152,-3.8533 l 0.86226,-2.3845 6.14282,0 6.14283,0 -0.42156,3.5594 c -0.56147,4.7405 -4.38984,12.5924 -7.88423,16.1703 -5.73357,5.8707 -11.92735,7.4057 -20.40609,5.0574 z"
       style="fill:#2a2a57;fill-opacity:1" />
    <circle
       r="14.622848"
       id="path2181"
       style="fill:#ffffff;fill-opacity:1;fill-rule:nonzero;stroke:none;stroke-width:2;stroke-linecap:round;stroke-linejoin:round;stroke-miterlimit:4;stroke-dasharray:none;stroke-dashoffset:6.76940012;stroke-opacity:1"
       cx="843.18085"
       cy="1125.2075" />
    <path
       inkscape:connector-curvature="0"
       id="path2170"
       d="m 454.5684,1124.2189 c 0.8053,-0.1082 1.2257,-0.2194 1.7167,-0.454 0.2085,-0.1 0.3419,-0.2002 0.5666,-0.4269 0.5263,-0.5309 0.7458,-1.0378 0.778,-1.7965 0.016,-0.3683 0.01,-0.4901 -0.058,-0.7494 -0.1931,-0.7756 -0.6555,-1.3577 -1.3579,-1.7093 -0.434,-0.2173 -0.7731,-0.313 -1.4074,-0.3975 -0.3525,-0.047 -0.9286,-0.062 -2.9337,-0.075 l -2.495,-0.017 0,2.8577 0,2.8576 2.3853,-0.017 c 1.869,-0.013 2.4764,-0.029 2.8058,-0.073 z"
       style="fill:#ffffff" />
    <g
       transform="matrix(1.5116293,0,0,1.5736318,0.09637003,-0.59474281)"
       id="layer1"
       style="display:inline">
      <g
         transform="matrix(0.96153331,0,0,0.96329343,-54.417655,-159.99924)"
         id="g3806"
         style="display:inline;stroke-width:5.19111967;stroke-miterlimit:4;stroke-dasharray:none">
        <path
           inkscape:connector-curvature="0"
           d="m 268.70057,796.03595 c 0.63074,20.39014 -19.22771,37.49856 -35.78611,49.23695 -19.48105,13.81029 -44.76339,21.43127 -68.77773,20.67647 -24.20867,-0.76092 -48.83945,-10.71312 -68.414799,-25.17345 -15.086597,-11.14448 -34.017208,-26.09904 -34.102615,-44.73997 -0.09271,-20.23474 19.970072,-36.65826 36.57573,-48.05539 19.239374,-13.20475 43.913034,-20.54551 67.374184,-19.64931 24.52231,0.93672 49.16486,11.47218 69.17932,25.87068 14.5802,10.48907 33.39992,23.98585 33.95202,41.83402 z"
           transform="matrix(0.70586777,0.76508575,-0.77398273,0.69775377,650.30226,110.70181)"
           id="path3808"
           style="fill:#f99c1b;fill-opacity:1;stroke:#000000;stroke-width:4.98435783;stroke-linejoin:miter;stroke-miterlimit:4;stroke-dasharray:none;stroke-opacity:1" />
        <path
           inkscape:connector-curvature="0"
           d="m 86.428572,708.43361 c 0,0 0.553985,31.94621 5.714285,46.78572 7.282664,20.9428 20.745863,39.50821 34.642853,56.78571 14.67065,18.23937 31.63368,35.01294 50.71429,48.57143 10.67642,7.58656 35,17.85714 35,17.85714"
           id="path3810"
           style="fill:none;stroke:#000000;stroke-width:5.19111967;stroke-linecap:butt;stroke-linejoin:miter;stroke-miterlimit:4;stroke-dasharray:none;stroke-opacity:1" />
      </g>
      <path
         inkscape:connector-curvature="0"
         d="m 166.31015,94.026308 -4.99427,7.746482 -8.49026,1.24943 -11.98625,-1.24943 -7.2417,-8.121312 z M 453.98028,671.76386 c 45.6976,-1.33272 91.3952,-2.66546 137.0928,-3.99818 9.62494,-6.13328 2.69422,-21.04711 5.30753,-30.89912 4.19452,-13.00053 -3.98004,-19.88601 -14.52379,-25.60021 -24.97909,-17.98349 -49.95816,-35.96699 -74.93724,-53.9505 -0.49943,-24.90535 -0.99887,-49.8107 -1.49829,-74.71606 -15.1493,-15.57625 -30.29858,-31.15251 -45.44788,-46.72877 3.58973,-10.61399 15.99522,-17.66559 23.03453,-26.88563 15.42414,-18.30291 36.80451,-32.32847 46.38586,-54.82724 2.06295,-11.48651 2.85327,-22.65288 -6.38569,-31.29639 -43.15286,-65.28347 -86.30569,-130.56696 -129.45853,-195.85044 22.05803,-23.90581 44.11607,-47.81161 66.17412,-71.717418 27.6067,5.275548 67.50373,-15.445407 64.91953,-42.668557 -33.1728,-8.4118505 -42.10531,7.456974 -55.96106,15.43093 -17.1932,2.838075 -10.99434,23.493859 -23.73437,31.08844 -21.04493,22.622203 -42.08984,45.244405 -63.13476,67.866605 42.95074,67.21947 85.90149,134.43893 128.85223,201.6584 3.32526,13.66554 -12.95323,17.53325 -20.47242,25.77881 -21.31026,16.89549 -42.62052,33.79097 -63.93079,50.68646 -13.65123,-9.6543 -26.25277,-22.16547 -40.54657,-30.07095 -25.12508,-1.87999 -51.29599,-0.91554 -75.77843,-4.54344 -18.74238,-14.53336 -37.48475,-29.06672 -56.22713,-43.60009 16.14815,-15.24307 32.29629,-30.48615 48.44445,-45.72922 C 300.57286,197.56261 298.99134,113.93394 297.40983,30.305253 287.5348,22.00631 279.08889,10.236477 268.34835,4.0395819 235.04479,3.9849221 201.44268,2.1544136 168.32362,3.1972574 154.66266,9.2695896 138.46098,11.847676 126.35597,20.059908 122.74356,30.166233 104.77601,29.851278 93.156162,38.526923 82.381258,46.571714 69.687741,61.04163 68.1121,77.458454 c 9.713171,6.725267 24.75508,3.861531 34.27991,9.077955 8.72913,3.130515 -13.716488,15.348941 -18.767064,21.065361 -16.620676,4.19223 -52.919573,10.99503 -40.389062,24.33856 12.513099,-0.79939 23.767338,-0.63163 37.47954,-2.82502 12.468213,-7.77067 22.136406,-27.78478 39.147986,-19.59604 7.57436,6.90206 25.70278,8.50088 20.30878,21.9193 -4.30378,9.39508 -19.35055,11.60424 -27.9447,18.1295 -24.340529,13.05508 -48.681056,26.11015 -73.021583,39.16522 -15.197505,9.68289 2.006425,32.73216 -13.741461,41.51138 -8.900252,8.61426 -21.6465249,15.83728 -18.6128012,30.18001 -0.2858845,18.66687 -0.5717688,37.33373 -0.8576532,56.0006 8.9792154,7.49567 16.9292984,15.5064 15.6887164,28.11702 6.506969,48.68463 13.013939,97.36924 19.520908,146.05386 -12.901872,12.74421 -25.803743,25.48842 -38.7056155,38.23263 1.5811895,26.18453 21.4173445,1.34941 28.6546415,-7.02805 18.680675,-3.56743 39.082638,-4.25292 57.434139,1.53055 8.827999,-9.75161 -14.462062,-18.11509 -0.643066,-30.76414 4.313821,-11.23552 8.627642,-22.47105 12.941465,-33.70657 30.63155,20.57398 61.26308,41.14798 91.89462,61.72196 23.04492,3.29213 34.25803,-24.14755 55.43643,-30.23626 21.12118,-14.64664 45.59949,-23.74352 71.64221,-21.3778 18.84232,-1.08259 10.38125,6.13084 -3.57504,3.48535 -12.44196,0.71629 -26.61599,-3.38585 -35.10975,8.31398 -17.06218,13.93793 -34.12434,27.87588 -51.18651,41.81382 -0.33295,20.99046 -0.66592,41.98093 -0.99886,62.9714 31.6304,17.90853 63.26079,35.81705 94.89119,53.72559 -3.57838,12.65406 -11.67793,17.75218 -24.57667,14.82974 -42.41641,0.22108 -84.83282,0.44215 -127.24924,0.66322 -13.61418,9.37952 -34.63043,15.05432 -34.9599,34.73422 m -0.0712,0.60024 c 100.76502,2.59155 201.53003,5.1831 302.29506,7.77464 6.50832,-9.18411 18.64288,-16.41836 14.8273,-29.18039 -0.47025,-11.54408 2.49625,-24.98111 -11.34903,-29.15822 -13.41883,-9.08373 -26.83767,-18.16746 -40.2565,-27.25119 9.68367,-9.52999 20.48777,-16.91446 34.25039,-18.6337 15.04305,2.82287 29.61207,12.36891 44.47557,17.73813 13.54573,5.87933 27.09145,11.75864 40.63717,17.63797 -5.14143,13.16119 -19.58152,7.95565 -30.69292,9.32493 -13.19973,1.52013 -28.10293,-3.58532 -37.72863,8.16712"
         id="path3836"
         style="fill:#d71f27;fill-opacity:1;stroke:#000000;stroke-width:4.99600124;stroke-linecap:butt;stroke-linejoin:miter;stroke-miterlimit:4;stroke-dasharray:none;stroke-opacity:1" />
      <path
         inkscape:connector-curvature="0"
         d="m 402.94323,612.35961 -24.36724,-13.07555 4.23778,-7.77463 24.01409,-8.12804 15.89168,-8.12803 3.17833,-2.82714 0.7063,-28.97822"
         id="path3778"
         style="fill:none;stroke:#000000;stroke-width:4.99600124;stroke-linecap:round;stroke-linejoin:miter;stroke-miterlimit:4;stroke-dasharray:none;stroke-opacity:1" />
      <path
         inkscape:connector-curvature="0"
         d="m 323.13167,639.57086 57.5632,31.09857 37.08059,-0.35338 6.00352,-8.12805"
         id="path3780"
         style="fill:none;stroke:#000000;stroke-width:4.99600124;stroke-linecap:round;stroke-linejoin:miter;stroke-miterlimit:4;stroke-dasharray:none;stroke-opacity:1" />
      <path
         inkscape:connector-curvature="0"
         d="m 460.15327,435.66317 2.11889,127.57484 c 0,0 -0.35314,3.53392 -0.7063,4.59409 -0.35314,1.06019 -1.76573,2.12036 -2.82518,3.88733 -1.05945,1.76697 -21.8952,21.91036 -21.8952,21.91036"
         id="path3782"
         style="fill:none;stroke:#000000;stroke-width:4.99600124;stroke-linecap:butt;stroke-linejoin:miter;stroke-miterlimit:4;stroke-dasharray:none;stroke-opacity:1" />
      <path
         inkscape:connector-curvature="0"
         d="m 513.12554,637.2738 c 8.50219,-2.35744 17.1418,-8.04098 26.30956,-10.07169 8.18052,-1.81204 15.89656,-1.76697 25.07354,-1.76697"
         id="path3784"
         style="fill:none;stroke:#000000;stroke-width:4.99600124;stroke-linecap:round;stroke-linejoin:miter;stroke-miterlimit:4;stroke-dasharray:none;stroke-opacity:1" />
      <path
         inkscape:connector-curvature="0"
         d="m 102.63317,109.76916 17.23024,-16.242626 15.6071,0.37483"
         id="path3839"
         style="fill:none;stroke:#000000;stroke-width:4.99600124;stroke-linecap:round;stroke-linejoin:miter;stroke-miterlimit:4;stroke-dasharray:none;stroke-opacity:1" />
      <path
         inkscape:connector-curvature="0"
         d="m 122.61027,93.776421 c 0,0 -5.99313,6.247159 -6.24284,7.246709 -0.24972,0.99955 -1.24857,6.24716 -1.24857,6.24716"
         id="path3841"
         style="fill:none;stroke:#000000;stroke-width:4.99600124;stroke-linecap:round;stroke-linejoin:miter;stroke-miterlimit:4;stroke-dasharray:none;stroke-opacity:1" />
      <path
         inkscape:connector-curvature="0"
         d="m 139.3672,122.15085 c 4.77325,-2.25465 10.48089,-2.55621 14.82119,0.94009 4.97321,2.69064 10.67951,2.93268 16.0032,1.30151 10.58411,-5.55522 20.8627,-11.92392 31.32973,-17.79087 0.23543,-22.381553 0.47087,-44.763104 0.7063,-67.144654 -9.29958,-6.125476 -18.59915,-12.250952 -27.89873,-18.376429 -6.12047,-0.181275 -12.2567,-1.475126 -18.36372,-0.706784 -5.14546,5.096834 -12.99276,3.599189 -19.51144,5.124196 -8.7925,1.250341 -16.63392,5.887222 -24.96201,8.790178 -7.48629,3.393646 -15.198975,6.732994 -22.21287,10.882209 -3.795578,5.471865 -8.933328,10.646284 -8.292192,17.875604 -0.09823,5.554568 -1.990472,10.765353 -0.948394,16.344418"
         id="path3843"
         style="display:inline;fill:none;stroke:#000000;stroke-width:4.99600124;stroke-linecap:butt;stroke-linejoin:miter;stroke-miterlimit:4;stroke-dasharray:none;stroke-opacity:1" />
      <path
         inkscape:connector-curvature="0"
         d="m 99.412148,84.390678 39.199482,2.47375 15.36195,-12.545447 c 0,0 2.47203,-0.706785 4.23778,-0.706785 1.76575,0 3.88464,0 6.00353,0.706785 2.11888,0.706785 4.59092,2.297054 5.12065,3.003839 0.52972,0.706787 1.58916,1.766965 1.23602,4.064019 -0.35316,2.297053 -0.7063,3.710625 -1.23602,5.300892 -0.52973,1.590269 -1.4126,5.124196 -1.4126,5.124196"
         id="path3863"
         style="fill:none;stroke:#000000;stroke-width:4.99600124;stroke-linecap:round;stroke-linejoin:miter;stroke-miterlimit:4;stroke-dasharray:none;stroke-opacity:1" />
      <path
         inkscape:connector-curvature="0"
         d="M 201.29547,106.30104 200.94232,120.96685 31.607649,224.68764"
         id="path3865"
         style="fill:none;stroke:#000000;stroke-width:4.99600124;stroke-linecap:butt;stroke-linejoin:miter;stroke-miterlimit:4;stroke-dasharray:none;stroke-opacity:1" />
      <path
         inkscape:connector-curvature="0"
         d="m 14.126801,323.99103 29.31132,10.60179 1.942317,-67.67473 c 0,0 0.353148,-1.59027 0.88287,-2.47375 0.529723,-0.88349 1.589169,-2.65045 2.47204,-3.35723 0.882871,-0.70679 2.472039,-1.76696 3.884632,-2.82715 1.412594,-1.06017 141.7891,-92.41223 141.7891,-92.41223"
         id="path3867"
         style="fill:none;stroke:#000000;stroke-width:4.99600124;stroke-linecap:round;stroke-linejoin:miter;stroke-miterlimit:4;stroke-dasharray:none;stroke-opacity:1" />
      <path
         inkscape:connector-curvature="0"
         d="m 43.084973,334.23943 9.888156,7.42124 34.255398,-29.3316 0.706297,-33.92572 C 140.05037,244.70999 226.70769,187.01026 268.6742,158.84985 c 3.68161,-2.47044 8.41905,-5.42672 10.59071,-9.56772 1.87738,-3.57986 1.43572,-8.22369 1.56697,-12.05614 1.26774,-37.01893 1.5031,-80.24715 1.68773,-110.084955 L 262.7433,4.8772852"
         id="path3871"
         style="fill:none;stroke:#000000;stroke-width:4.99600124;stroke-linecap:butt;stroke-linejoin:miter;stroke-miterlimit:4;stroke-dasharray:none;stroke-opacity:1" />
      <path
         inkscape:connector-curvature="0"
         d="m 70.63055,520.47747 -1.059446,-146.30465 1.412595,-2.47375 2.11889,-2.82714 49.087631,-31.45196 -1.41259,-31.45197"
         id="path3891"
         style="fill:none;stroke:#000000;stroke-width:4.99600124;stroke-linecap:butt;stroke-linejoin:miter;stroke-miterlimit:4;stroke-dasharray:none;stroke-opacity:1" />
      <path
         inkscape:connector-curvature="0"
         d="m 86.875378,311.97568 c 0.117716,4.24072 0.235433,8.48143 0.353149,12.72214 53.678563,-32.62993 107.357123,-65.25988 161.035683,-97.88982 7.17531,-3.97753 16.91576,0.80334 13.48103,9.77145 m -7.47751,90.94552 c -9.29958,-7.77465 -18.59915,-15.54929 -27.89872,-23.32394 0,0 -2.8913,-23.05057 -4.1607,-35.18261 -0.2603,-2.48781 -0.0602,-5.75187 1.94454,-7.24785 12.0178,-8.96787 23.58145,-18.3149 37.83022,-25.27907"
         id="path3893"
         style="fill:none;stroke:#000000;stroke-width:4.99600124;stroke-linecap:butt;stroke-linejoin:miter;stroke-miterlimit:4;stroke-dasharray:none;stroke-opacity:1" />
      <path
         inkscape:connector-curvature="0"
         d="m 229.19419,306.67478 31.43021,-22.61713 1.35866,-52.86945"
         id="path3897"
         style="fill:none;stroke:#000000;stroke-width:4.99600124;stroke-linecap:round;stroke-linejoin:miter;stroke-miterlimit:4;stroke-dasharray:none;stroke-opacity:1" />
      <path
         inkscape:connector-curvature="0"
         d="m 85.109635,360.74389 5.297227,87.64143 12.007038,11.30857"
         id="path3899"
         style="fill:none;stroke:#000000;stroke-width:4.99600124;stroke-linecap:butt;stroke-linejoin:miter;stroke-miterlimit:4;stroke-dasharray:none;stroke-opacity:1" />
      <path
         inkscape:connector-curvature="0"
         d="m 149.70017,49.238816 c 2.44651,-1.585634 5.15159,-3.793377 7.96201,-4.732334 3.19841,-1.166366 2.05786,-1.479432 5.31085,-2.527076 2.27437,-0.851983 10.48795,-1.82961 13.16912,-2.12454 2.59183,-0.4527 4.17038,1.822123 2.10517,3.279668 -1.28188,0.987347 -8.12528,3.460008 -7.74271,4.993839 -2.89457,4.98203 -4.48295,9.217722 -14.72893,5.136012 -2.55033,0.866792 0.41653,-0.17009 -3.10343,1.05262 -2.31581,0.267879 -3.43488,0.08906 -5.72725,-0.720246 0.20289,-1.744534 0.93825,-3.600884 2.75517,-4.357943 z"
         id="path3901"
         style="fill:#000000;fill-opacity:1;fill-rule:evenodd;stroke:none" />
      <path
         inkscape:connector-curvature="0"
         d="m 470.3824,27.203572 c 0,0 12.12822,-4.789744 18.45349,-6.272984 4.66887,-1.094823 14.25953,-1.907564 14.25953,-1.907564"
         transform="translate(-1.2179566e-7,0.3786807)"
         id="path3002"
         style="fill:none;stroke:#000000;stroke-width:6;stroke-linecap:round;stroke-linejoin:miter;stroke-miterlimit:4;stroke-dasharray:none;stroke-opacity:1" />
      <path
         inkscape:connector-curvature="0"
         d="m 465.3591,54.090211 c 0.5156,-1.031197 4.19622,-7.713933 7.31601,-10.705149 2.81411,-2.698133 9.92527,-6.187185 9.92527,-6.187185"
         transform="translate(-1.2179566e-7,0.3786807)"
         id="path3772"
         style="fill:none;stroke:#000000;stroke-width:7;stroke-linecap:round;stroke-linejoin:miter;stroke-miterlimit:4;stroke-dasharray:none;stroke-opacity:1" />
      <path
         inkscape:connector-curvature="0"
         d="m 501.16193,45.963054 c 0,0 1.81225,-5.846308 3.41038,-8.417485 0.8714,-1.401952 3.29241,-3.699084 3.29241,-3.699084"
         transform="translate(-1.2179566e-7,0.3786807)"
         id="path3774"
         style="fill:none;stroke:#000000;stroke-width:7;stroke-linecap:round;stroke-linejoin:miter;stroke-miterlimit:4;stroke-dasharray:none;stroke-opacity:1" />
    </g>
    <circle
       r="16.652525"
       id="path2185"
       style="fill:#2a2a57;fill-opacity:1;fill-rule:nonzero;stroke:none;stroke-width:2;stroke-linecap:round;stroke-linejoin:round;stroke-miterlimit:4;stroke-dasharray:none;stroke-dashoffset:6.76940012;stroke-opacity:1"
       cx="826.16559"
       cy="1123.4327" />
    <circle
       r="13.877104"
       id="path2181-0"
       style="fill:#ffffff;fill-opacity:1;fill-rule:nonzero;stroke:none;stroke-width:2;stroke-linecap:round;stroke-linejoin:round;stroke-miterlimit:4;stroke-dasharray:none;stroke-dashoffset:6.76940012;stroke-opacity:1"
       cx="826.16553"
       cy="1123.4329" />
    <path
       inkscape:connector-curvature="0"
       id="path2208"
       d="m 818.89967,1123.6722 0,-8.9534 3.9463,0.016 c 3.92922,0.016 4.21952,0.024 5.21258,0.1473 1.50864,0.1877 2.41329,0.5801 3.22721,1.4001 0.41086,0.4139 0.68987,0.8116 0.93684,1.3356 0.33561,0.712 0.45486,1.2324 0.45391,1.981 -0.002,1.2722 -0.45462,2.3999 -1.34321,3.3438 -0.92148,0.9789 -1.96051,1.4674 -3.53368,1.6612 l -0.2069,0.025 0.40186,0.1999 c 0.70162,0.3491 1.00105,0.5962 1.6913,1.3959 0.6577,0.762 1.30097,1.6854 2.36856,3.3999 0.39208,0.6297 0.94608,1.5195 1.23111,1.9775 0.28502,0.4579 0.54654,0.8755 0.58114,0.928 l 0.0629,0.095 -1.76661,0 -1.76661,0 -0.23814,-0.425 c -0.13097,-0.2337 -0.29517,-0.5264 -0.36489,-0.6505 -0.0697,-0.124 -0.20573,-0.366 -0.30225,-0.5377 -1.24746,-2.2194 -1.43887,-2.5443 -1.96226,-3.3305 -0.82596,-1.2407 -1.51458,-1.9738 -2.15899,-2.2984 -0.55451,-0.2793 -1.08588,-0.354 -2.52389,-0.3549 l -1.06681,-7e-4 0,3.7989 0,3.7988 -1.43975,0 -1.43974,0 0,-8.9534 z"
       style="fill:#2a2a57;fill-opacity:1" />
    <path
       inkscape:connector-curvature="0"
       id="path2170-3"
       d="m 826.70497,1122.4946 c 0.76428,-0.1027 1.1632,-0.2082 1.62917,-0.4309 0.19787,-0.094 0.32449,-0.1899 0.53774,-0.405 0.49942,-0.5039 0.70772,-0.9849 0.73832,-1.7049 0.0149,-0.3495 0.006,-0.4652 -0.0554,-0.7112 -0.18331,-0.7361 -0.62211,-1.2885 -1.28873,-1.6222 -0.41179,-0.2061 -0.73364,-0.297 -1.33558,-0.3772 -0.33457,-0.044 -0.88122,-0.058 -2.78409,-0.071 l -2.36778,-0.016 0,2.7119 0,2.712 2.2637,-0.016 c 1.77365,-0.013 2.35007,-0.028 2.66267,-0.07 z"
       style="fill:#ffffff" />
  </g>
</svg>
